<ttFont>
    <TTGlyph name=".ttfautohint" xMin="0" yMin="0" xMax="0" yMax="0">
      <contour>
        <pt x="0" y="0" on="1"/>
      </contour>
    </TTGlyph>
    <TTGlyph name="A" xMin="-9" yMin="0" xMax="632" yMax="654">
      <contour>
        <pt x="55" y="62" on="1"/>
        <pt x="270" y="654" on="1"/>
        <pt x="340" y="654" on="1"/>
        <pt x="566" y="62" on="1"/>
        <pt x="632" y="47" on="1"/>
        <pt x="632" y="0" on="1"/>
        <pt x="372" y="0" on="1"/>
        <pt x="372" y="47" on="1"/>
        <pt x="446" y="62" on="1"/>
        <pt x="443" y="82" on="1"/>
        <pt x="405" y="184" on="1"/>
        <pt x="176" y="184" on="1"/>
        <pt x="140" y="81" on="1"/>
        <pt x="138" y="62" on="1"/>
        <pt x="216" y="47" on="1"/>
        <pt x="216" y="0" on="1"/>
        <pt x="-9" y="0" on="1"/>
        <pt x="-9" y="47" on="1"/>
      </contour>
      <contour>
        <pt x="295" y="492" on="1"/>
        <pt x="291" y="507" on="1"/>
        <pt x="288" y="510" on="1"/>
        <pt x="283" y="490" on="1"/>
        <pt x="198" y="248" on="1"/>
        <pt x="384" y="248" on="1"/>
      </contour>
    </TTGlyph>
    <TTGlyph name="AE" xMin="-8" yMin="0" xMax="798" yMax="648">
      <contour>
        <pt x="59" y="62" on="1"/>
        <pt x="335" y="648" on="1"/>
        <pt x="734" y="648" on="1"/>
        <pt x="739" y="477" on="1"/>
        <pt x="685" y="477" on="1"/>
        <pt x="659" y="587" on="1"/>
        <pt x="557" y="587" on="1"/>
        <pt x="478" y="580" on="1"/>
        <pt x="499" y="330" on="1"/>
        <pt x="625" y="330" on="1"/>
        <pt x="642" y="385" on="1"/>
        <pt x="687" y="385" on="1"/>
        <pt x="693" y="210" on="1"/>
        <pt x="648" y="210" on="1"/>
        <pt x="628" y="267" on="1"/>
        <pt x="504" y="267" on="1"/>
        <pt x="522" y="70" on="1"/>
        <pt x="557" y="63" on="0"/>
        <pt x="607" y="63" on="1"/>
        <pt x="719" y="63" on="1"/>
        <pt x="739" y="174" on="1"/>
        <pt x="793" y="174" on="1"/>
        <pt x="798" y="0" on="1"/>
        <pt x="337" y="0" on="1"/>
        <pt x="335" y="47" on="1"/>
        <pt x="417" y="65" on="1"/>
        <pt x="399" y="266" on="1"/>
        <pt x="231" y="266" on="1"/>
        <pt x="145" y="80" on="1"/>
        <pt x="142" y="62" on="1"/>
        <pt x="217" y="47" on="1"/>
        <pt x="217" y="0" on="1"/>
        <pt x="-8" y="0" on="1"/>
        <pt x="-8" y="47" on="1"/>
      </contour>
      <contour>
        <pt x="373" y="578" on="1"/>
        <pt x="262" y="330" on="1"/>
        <pt x="394" y="330" on="1"/>
      </contour>
    </TTGlyph>
    <TTGlyph name="AEacute" xMin="-8" yMin="0" xMax="798" yMax="838">
      <component glyphName=".ttfautohint" x="0" y="0" flags="0x0"/>
      <component glyphName="AE" x="0" y="0" flags="0x0"/>
      <component glyphName="acutecomb.case" x="615" y="0" flags="0x0"/>
    </TTGlyph>
    <TTGlyph name="Aacute" xMin="-9" yMin="0" xMax="632" yMax="838">
      <contour>
        <pt x="337" y="816" on="1"/>
        <pt x="342" y="819" on="0"/>
        <pt x="362" y="832" on="0"/>
        <pt x="376" y="838" on="0"/>
        <pt x="382" y="838" on="1"/>
        <pt x="404" y="838" on="0"/>
        <pt x="428" y="795" on="0"/>
        <pt x="427" y="759" on="1"/>
        <pt x="226" y="678" on="1"/>
        <pt x="203" y="718" on="1"/>
      </contour>
      <contour>
        <pt x="55" y="62" on="1"/>
        <pt x="270" y="654" on="1"/>
        <pt x="340" y="654" on="1"/>
        <pt x="566" y="62" on="1"/>
        <pt x="632" y="47" on="1"/>
        <pt x="632" y="0" on="1"/>
        <pt x="372" y="0" on="1"/>
        <pt x="372" y="47" on="1"/>
        <pt x="446" y="62" on="1"/>
        <pt x="443" y="82" on="1"/>
        <pt x="405" y="184" on="1"/>
        <pt x="176" y="184" on="1"/>
        <pt x="140" y="81" on="1"/>
        <pt x="138" y="62" on="1"/>
        <pt x="216" y="47" on="1"/>
        <pt x="216" y="0" on="1"/>
        <pt x="-9" y="0" on="1"/>
        <pt x="-9" y="47" on="1"/>
      </contour>
      <contour>
        <pt x="295" y="492" on="1"/>
        <pt x="291" y="507" on="1"/>
        <pt x="288" y="510" on="1"/>
        <pt x="283" y="490" on="1"/>
        <pt x="198" y="248" on="1"/>
        <pt x="384" y="248" on="1"/>
      </contour>
    </TTGlyph>
    <TTGlyph name="Abreve" xMin="-9" yMin="0" xMax="632" yMax="830">
      <contour>
        <pt x="224" y="827" on="0"/>
        <pt x="245" y="793" on="0"/>
        <pt x="287" y="764" on="0"/>
        <pt x="319" y="764" on="1"/>
        <pt x="355" y="764" on="0"/>
        <pt x="405" y="792" on="0"/>
        <pt x="431" y="825" on="0"/>
        <pt x="431" y="828" on="1"/>
        <pt x="466" y="813" on="1"/>
        <pt x="466" y="807" on="0"/>
        <pt x="435" y="746" on="0"/>
        <pt x="369" y="693" on="0"/>
        <pt x="317" y="693" on="1"/>
        <pt x="257" y="693" on="0"/>
        <pt x="187" y="742" on="0"/>
        <pt x="160" y="796" on="0"/>
        <pt x="160" y="804" on="1"/>
        <pt x="224" y="830" on="1"/>
      </contour>
      <contour>
        <pt x="55" y="62" on="1"/>
        <pt x="270" y="654" on="1"/>
        <pt x="340" y="654" on="1"/>
        <pt x="566" y="62" on="1"/>
        <pt x="632" y="47" on="1"/>
        <pt x="632" y="0" on="1"/>
        <pt x="372" y="0" on="1"/>
        <pt x="372" y="47" on="1"/>
        <pt x="446" y="62" on="1"/>
        <pt x="443" y="82" on="1"/>
        <pt x="405" y="184" on="1"/>
        <pt x="176" y="184" on="1"/>
        <pt x="140" y="81" on="1"/>
        <pt x="138" y="62" on="1"/>
        <pt x="216" y="47" on="1"/>
        <pt x="216" y="0" on="1"/>
        <pt x="-9" y="0" on="1"/>
        <pt x="-9" y="47" on="1"/>
      </contour>
      <contour>
        <pt x="295" y="492" on="1"/>
        <pt x="291" y="507" on="1"/>
        <pt x="288" y="510" on="1"/>
        <pt x="283" y="490" on="1"/>
        <pt x="198" y="248" on="1"/>
        <pt x="384" y="248" on="1"/>
      </contour>
    </TTGlyph>
    <TTGlyph name="Acircumflex" xMin="-9" yMin="0" xMax="632" yMax="837">
      <contour>
        <pt x="236" y="790" on="1"/>
        <pt x="273" y="820" on="0"/>
        <pt x="297" y="837" on="0"/>
        <pt x="305" y="837" on="1"/>
        <pt x="314" y="837" on="0"/>
        <pt x="337" y="822" on="0"/>
        <pt x="356" y="805" on="1"/>
        <pt x="374" y="790" on="1"/>
        <pt x="462" y="720" on="1"/>
        <pt x="430" y="676" on="1"/>
        <pt x="300" y="740" on="1"/>
        <pt x="169" y="677" on="1"/>
        <pt x="144" y="715" on="1"/>
      </contour>
      <contour>
        <pt x="55" y="62" on="1"/>
        <pt x="270" y="654" on="1"/>
        <pt x="340" y="654" on="1"/>
        <pt x="566" y="62" on="1"/>
        <pt x="632" y="47" on="1"/>
        <pt x="632" y="0" on="1"/>
        <pt x="372" y="0" on="1"/>
        <pt x="372" y="47" on="1"/>
        <pt x="446" y="62" on="1"/>
        <pt x="443" y="82" on="1"/>
        <pt x="405" y="184" on="1"/>
        <pt x="176" y="184" on="1"/>
        <pt x="140" y="81" on="1"/>
        <pt x="138" y="62" on="1"/>
        <pt x="216" y="47" on="1"/>
        <pt x="216" y="0" on="1"/>
        <pt x="-9" y="0" on="1"/>
        <pt x="-9" y="47" on="1"/>
      </contour>
      <contour>
        <pt x="295" y="492" on="1"/>
        <pt x="291" y="507" on="1"/>
        <pt x="288" y="510" on="1"/>
        <pt x="283" y="490" on="1"/>
        <pt x="198" y="248" on="1"/>
        <pt x="384" y="248" on="1"/>
      </contour>
    </TTGlyph>
    <TTGlyph name="Adieresis" xMin="-9" yMin="0" xMax="632" yMax="816">
      <contour>
        <pt x="166" y="689" on="0"/>
        <pt x="134" y="723" on="0"/>
        <pt x="134" y="750" on="1"/>
        <pt x="134" y="777" on="0"/>
        <pt x="170" y="816" on="0"/>
        <pt x="196" y="816" on="1"/>
        <pt x="222" y="816" on="0"/>
        <pt x="253" y="784" on="0"/>
        <pt x="253" y="756" on="1"/>
        <pt x="253" y="728" on="0"/>
        <pt x="219" y="689" on="0"/>
        <pt x="191" y="689" on="1"/>
      </contour>
      <contour>
        <pt x="387" y="689" on="0"/>
        <pt x="356" y="723" on="0"/>
        <pt x="356" y="750" on="1"/>
        <pt x="356" y="777" on="0"/>
        <pt x="391" y="816" on="0"/>
        <pt x="417" y="816" on="1"/>
        <pt x="443" y="816" on="0"/>
        <pt x="474" y="784" on="0"/>
        <pt x="474" y="756" on="1"/>
        <pt x="474" y="728" on="0"/>
        <pt x="440" y="689" on="0"/>
        <pt x="412" y="689" on="1"/>
      </contour>
      <contour>
        <pt x="55" y="62" on="1"/>
        <pt x="270" y="654" on="1"/>
        <pt x="340" y="654" on="1"/>
        <pt x="566" y="62" on="1"/>
        <pt x="632" y="47" on="1"/>
        <pt x="632" y="0" on="1"/>
        <pt x="372" y="0" on="1"/>
        <pt x="372" y="47" on="1"/>
        <pt x="446" y="62" on="1"/>
        <pt x="443" y="82" on="1"/>
        <pt x="405" y="184" on="1"/>
        <pt x="176" y="184" on="1"/>
        <pt x="140" y="81" on="1"/>
        <pt x="138" y="62" on="1"/>
        <pt x="216" y="47" on="1"/>
        <pt x="216" y="0" on="1"/>
        <pt x="-9" y="0" on="1"/>
        <pt x="-9" y="47" on="1"/>
      </contour>
      <contour>
        <pt x="295" y="492" on="1"/>
        <pt x="291" y="507" on="1"/>
        <pt x="288" y="510" on="1"/>
        <pt x="283" y="490" on="1"/>
        <pt x="198" y="248" on="1"/>
        <pt x="384" y="248" on="1"/>
      </contour>
    </TTGlyph>
    <TTGlyph name="Agrave" xMin="-9" yMin="0" xMax="632" yMax="838">
      <contour>
        <pt x="172" y="795" on="0"/>
        <pt x="196" y="838" on="0"/>
        <pt x="217" y="838" on="1"/>
        <pt x="225" y="838" on="0"/>
        <pt x="250" y="824" on="0"/>
        <pt x="262" y="816" on="1"/>
        <pt x="397" y="718" on="1"/>
        <pt x="374" y="678" on="1"/>
        <pt x="173" y="759" on="1"/>
      </contour>
      <contour>
        <pt x="55" y="62" on="1"/>
        <pt x="270" y="654" on="1"/>
        <pt x="340" y="654" on="1"/>
        <pt x="566" y="62" on="1"/>
        <pt x="632" y="47" on="1"/>
        <pt x="632" y="0" on="1"/>
        <pt x="372" y="0" on="1"/>
        <pt x="372" y="47" on="1"/>
        <pt x="446" y="62" on="1"/>
        <pt x="443" y="82" on="1"/>
        <pt x="405" y="184" on="1"/>
        <pt x="176" y="184" on="1"/>
        <pt x="140" y="81" on="1"/>
        <pt x="138" y="62" on="1"/>
        <pt x="216" y="47" on="1"/>
        <pt x="216" y="0" on="1"/>
        <pt x="-9" y="0" on="1"/>
        <pt x="-9" y="47" on="1"/>
      </contour>
      <contour>
        <pt x="295" y="492" on="1"/>
        <pt x="291" y="507" on="1"/>
        <pt x="288" y="510" on="1"/>
        <pt x="283" y="490" on="1"/>
        <pt x="198" y="248" on="1"/>
        <pt x="384" y="248" on="1"/>
      </contour>
    </TTGlyph>
    <TTGlyph name="Amacron" xMin="-9" yMin="0" xMax="632" yMax="788">
      <contour>
        <pt x="478" y="788" on="1"/>
        <pt x="468" y="723" on="1"/>
        <pt x="131" y="723" on="1"/>
        <pt x="142" y="788" on="1"/>
      </contour>
      <contour>
        <pt x="55" y="62" on="1"/>
        <pt x="270" y="654" on="1"/>
        <pt x="340" y="654" on="1"/>
        <pt x="566" y="62" on="1"/>
        <pt x="632" y="47" on="1"/>
        <pt x="632" y="0" on="1"/>
        <pt x="372" y="0" on="1"/>
        <pt x="372" y="47" on="1"/>
        <pt x="446" y="62" on="1"/>
        <pt x="443" y="82" on="1"/>
        <pt x="405" y="184" on="1"/>
        <pt x="176" y="184" on="1"/>
        <pt x="140" y="81" on="1"/>
        <pt x="138" y="62" on="1"/>
        <pt x="216" y="47" on="1"/>
        <pt x="216" y="0" on="1"/>
        <pt x="-9" y="0" on="1"/>
        <pt x="-9" y="47" on="1"/>
      </contour>
      <contour>
        <pt x="295" y="492" on="1"/>
        <pt x="291" y="507" on="1"/>
        <pt x="288" y="510" on="1"/>
        <pt x="283" y="490" on="1"/>
        <pt x="198" y="248" on="1"/>
        <pt x="384" y="248" on="1"/>
      </contour>
    </TTGlyph>
    <TTGlyph name="Aogonek" xMin="-9" yMin="-187" xMax="632" yMax="654">
      <contour>
        <pt x="381" y="-44" on="0"/>
        <pt x="381" y="-82" on="1"/>
        <pt x="381" y="-123" on="0"/>
        <pt x="422" y="-123" on="1"/>
        <pt x="443" y="-123" on="0"/>
        <pt x="478" y="-103" on="1"/>
        <pt x="497" y="-136" on="1"/>
        <pt x="497" y="-137" on="0"/>
        <pt x="467" y="-164" on="0"/>
        <pt x="421" y="-187" on="0"/>
        <pt x="395" y="-187" on="1"/>
        <pt x="355" y="-187" on="0"/>
        <pt x="307" y="-149" on="0"/>
        <pt x="307" y="-113" on="1"/>
        <pt x="307" y="-77" on="0"/>
        <pt x="349" y="-20" on="0"/>
        <pt x="382" y="0" on="1"/>
        <pt x="372" y="0" on="1"/>
        <pt x="372" y="47" on="1"/>
        <pt x="446" y="62" on="1"/>
        <pt x="443" y="82" on="1"/>
        <pt x="405" y="184" on="1"/>
        <pt x="176" y="184" on="1"/>
        <pt x="140" y="81" on="1"/>
        <pt x="138" y="62" on="1"/>
        <pt x="216" y="47" on="1"/>
        <pt x="216" y="0" on="1"/>
        <pt x="-9" y="0" on="1"/>
        <pt x="-9" y="47" on="1"/>
        <pt x="55" y="62" on="1"/>
        <pt x="270" y="654" on="1"/>
        <pt x="340" y="654" on="1"/>
        <pt x="566" y="62" on="1"/>
        <pt x="632" y="47" on="1"/>
        <pt x="632" y="0" on="1"/>
        <pt x="435" y="0" on="1"/>
      </contour>
      <contour>
        <pt x="384" y="248" on="1"/>
        <pt x="295" y="492" on="1"/>
        <pt x="291" y="507" on="1"/>
        <pt x="288" y="510" on="1"/>
        <pt x="283" y="490" on="1"/>
        <pt x="198" y="248" on="1"/>
      </contour>
    </TTGlyph>
    <TTGlyph name="Aring" xMin="-9" yMin="0" xMax="632" yMax="829">
      <contour>
        <pt x="632" y="47" on="1"/>
        <pt x="632" y="0" on="1"/>
        <pt x="372" y="0" on="1"/>
        <pt x="372" y="47" on="1"/>
        <pt x="446" y="62" on="1"/>
        <pt x="443" y="82" on="1"/>
        <pt x="405" y="184" on="1"/>
        <pt x="176" y="184" on="1"/>
        <pt x="140" y="81" on="1"/>
        <pt x="138" y="62" on="1"/>
        <pt x="216" y="47" on="1"/>
        <pt x="216" y="0" on="1"/>
        <pt x="-9" y="0" on="1"/>
        <pt x="-9" y="47" on="1"/>
        <pt x="55" y="62" on="1"/>
        <pt x="270" y="654" on="1"/>
        <pt x="277" y="654" on="1"/>
        <pt x="242" y="660" on="0"/>
        <pt x="211" y="702" on="0"/>
        <pt x="211" y="739" on="1"/>
        <pt x="211" y="781" on="0"/>
        <pt x="264" y="829" on="0"/>
        <pt x="308" y="829" on="1"/>
        <pt x="351" y="829" on="0"/>
        <pt x="400" y="786" on="0"/>
        <pt x="400" y="745" on="1"/>
        <pt x="400" y="665" on="0"/>
        <pt x="328" y="654" on="1"/>
        <pt x="340" y="654" on="1"/>
        <pt x="566" y="62" on="1"/>
      </contour>
      <contour>
        <pt x="266" y="718" on="0"/>
        <pt x="282" y="700" on="0"/>
        <pt x="307" y="700" on="1"/>
        <pt x="329" y="700" on="0"/>
        <pt x="345" y="719" on="0"/>
        <pt x="345" y="741" on="1"/>
        <pt x="345" y="764" on="0"/>
        <pt x="330" y="783" on="0"/>
        <pt x="306" y="783" on="1"/>
        <pt x="284" y="783" on="0"/>
        <pt x="266" y="766" on="0"/>
        <pt x="266" y="743" on="1"/>
      </contour>
      <contour>
        <pt x="384" y="248" on="1"/>
        <pt x="295" y="492" on="1"/>
        <pt x="291" y="507" on="1"/>
        <pt x="288" y="510" on="1"/>
        <pt x="283" y="490" on="1"/>
        <pt x="198" y="248" on="1"/>
      </contour>
    </TTGlyph>
    <TTGlyph name="Aringacute" xMin="-9" yMin="0" xMax="632" yMax="1014">
      <contour>
        <pt x="273" y="854" on="1"/>
        <pt x="250" y="894" on="1"/>
        <pt x="385" y="992" on="1"/>
        <pt x="388" y="994" on="0"/>
        <pt x="408" y="1007" on="0"/>
        <pt x="424" y="1014" on="0"/>
        <pt x="430" y="1014" on="1"/>
        <pt x="451" y="1014" on="0"/>
        <pt x="475" y="971" on="0"/>
        <pt x="474" y="935" on="1"/>
      </contour>
      <contour>
        <pt x="632" y="47" on="1"/>
        <pt x="632" y="0" on="1"/>
        <pt x="372" y="0" on="1"/>
        <pt x="372" y="47" on="1"/>
        <pt x="446" y="62" on="1"/>
        <pt x="443" y="82" on="1"/>
        <pt x="405" y="184" on="1"/>
        <pt x="176" y="184" on="1"/>
        <pt x="140" y="81" on="1"/>
        <pt x="138" y="62" on="1"/>
        <pt x="216" y="47" on="1"/>
        <pt x="216" y="0" on="1"/>
        <pt x="-9" y="0" on="1"/>
        <pt x="-9" y="47" on="1"/>
        <pt x="55" y="62" on="1"/>
        <pt x="270" y="654" on="1"/>
        <pt x="216" y="669" on="0"/>
        <pt x="216" y="733" on="1"/>
        <pt x="216" y="775" on="0"/>
        <pt x="269" y="824" on="0"/>
        <pt x="313" y="824" on="1"/>
        <pt x="356" y="824" on="0"/>
        <pt x="405" y="781" on="0"/>
        <pt x="405" y="740" on="1"/>
        <pt x="405" y="706" on="0"/>
        <pt x="370" y="662" on="0"/>
        <pt x="340" y="653" on="1"/>
        <pt x="566" y="62" on="1"/>
      </contour>
      <contour>
        <pt x="289" y="778" on="0"/>
        <pt x="272" y="760" on="0"/>
        <pt x="272" y="737" on="1"/>
        <pt x="272" y="713" on="0"/>
        <pt x="288" y="694" on="0"/>
        <pt x="312" y="694" on="1"/>
        <pt x="333" y="694" on="0"/>
        <pt x="349" y="712" on="0"/>
        <pt x="349" y="734" on="1"/>
        <pt x="349" y="759" on="0"/>
        <pt x="335" y="778" on="0"/>
        <pt x="311" y="778" on="1"/>
      </contour>
      <contour>
        <pt x="384" y="248" on="1"/>
        <pt x="295" y="492" on="1"/>
        <pt x="291" y="507" on="1"/>
        <pt x="288" y="510" on="1"/>
        <pt x="283" y="490" on="1"/>
        <pt x="198" y="248" on="1"/>
      </contour>
    </TTGlyph>
    <TTGlyph name="Atilde" xMin="-9" yMin="0" xMax="632" yMax="817">
      <contour>
        <pt x="163" y="782" on="1"/>
        <pt x="176" y="802" on="0"/>
        <pt x="210" y="817" on="0"/>
        <pt x="232" y="817" on="1"/>
        <pt x="257" y="817" on="0"/>
        <pt x="298" y="804" on="1"/>
        <pt x="383" y="776" on="1"/>
        <pt x="461" y="813" on="1"/>
        <pt x="488" y="784" on="1"/>
        <pt x="452" y="734" on="1"/>
        <pt x="439" y="714" on="0"/>
        <pt x="405" y="699" on="0"/>
        <pt x="383" y="699" on="1"/>
        <pt x="358" y="699" on="0"/>
        <pt x="317" y="712" on="1"/>
        <pt x="232" y="740" on="1"/>
        <pt x="155" y="703" on="1"/>
        <pt x="127" y="732" on="1"/>
      </contour>
      <contour>
        <pt x="55" y="62" on="1"/>
        <pt x="270" y="654" on="1"/>
        <pt x="340" y="654" on="1"/>
        <pt x="566" y="62" on="1"/>
        <pt x="632" y="47" on="1"/>
        <pt x="632" y="0" on="1"/>
        <pt x="372" y="0" on="1"/>
        <pt x="372" y="47" on="1"/>
        <pt x="446" y="62" on="1"/>
        <pt x="443" y="82" on="1"/>
        <pt x="405" y="184" on="1"/>
        <pt x="176" y="184" on="1"/>
        <pt x="140" y="81" on="1"/>
        <pt x="138" y="62" on="1"/>
        <pt x="216" y="47" on="1"/>
        <pt x="216" y="0" on="1"/>
        <pt x="-9" y="0" on="1"/>
        <pt x="-9" y="47" on="1"/>
      </contour>
      <contour>
        <pt x="295" y="492" on="1"/>
        <pt x="291" y="507" on="1"/>
        <pt x="288" y="510" on="1"/>
        <pt x="283" y="490" on="1"/>
        <pt x="198" y="248" on="1"/>
        <pt x="384" y="248" on="1"/>
      </contour>
    </TTGlyph>
    <TTGlyph name="B" xMin="52" yMin="0" xMax="570" yMax="648">
      <contour>
        <pt x="52" y="47" on="1"/>
        <pt x="134" y="65" on="1"/>
        <pt x="134" y="584" on="1"/>
        <pt x="52" y="601" on="1"/>
        <pt x="52" y="648" on="1"/>
        <pt x="318" y="648" on="1"/>
        <pt x="424" y="648" on="0"/>
        <pt x="539" y="565" on="0"/>
        <pt x="539" y="489" on="1"/>
        <pt x="539" y="438" on="0"/>
        <pt x="486" y="367" on="0"/>
        <pt x="430" y="345" on="1"/>
        <pt x="493" y="330" on="0"/>
        <pt x="570" y="243" on="0"/>
        <pt x="570" y="186" on="1"/>
        <pt x="570" y="98" on="0"/>
        <pt x="450" y="0" on="0"/>
        <pt x="343" y="0" on="1"/>
        <pt x="52" y="0" on="1"/>
      </contour>
      <contour>
        <pt x="283" y="360" on="1"/>
        <pt x="354" y="360" on="0"/>
        <pt x="431" y="425" on="0"/>
        <pt x="431" y="485" on="1"/>
        <pt x="431" y="585" on="0"/>
        <pt x="304" y="585" on="1"/>
        <pt x="269" y="585" on="0"/>
        <pt x="237" y="580" on="1"/>
        <pt x="237" y="360" on="1"/>
      </contour>
      <contour>
        <pt x="456" y="61" on="0"/>
        <pt x="456" y="183" on="1"/>
        <pt x="456" y="244" on="0"/>
        <pt x="379" y="299" on="0"/>
        <pt x="295" y="299" on="1"/>
        <pt x="237" y="299" on="1"/>
        <pt x="237" y="66" on="1"/>
        <pt x="262" y="61" on="0"/>
        <pt x="312" y="61" on="1"/>
      </contour>
    </TTGlyph>
    <TTGlyph name="C" xMin="42" yMin="-13" xMax="560" yMax="662">
      <contour>
        <pt x="560" y="191" on="1"/>
        <pt x="560" y="31" on="1"/>
        <pt x="515" y="12" on="0"/>
        <pt x="418" y="-13" on="0"/>
        <pt x="339" y="-13" on="1"/>
        <pt x="190" y="-13" on="0"/>
        <pt x="42" y="155" on="0"/>
        <pt x="42" y="316" on="1"/>
        <pt x="42" y="410" on="0"/>
        <pt x="120" y="569" on="0"/>
        <pt x="263" y="662" on="0"/>
        <pt x="356" y="662" on="1"/>
        <pt x="418" y="662" on="0"/>
        <pt x="521" y="646" on="0"/>
        <pt x="556" y="633" on="1"/>
        <pt x="556" y="469" on="1"/>
        <pt x="499" y="469" on="1"/>
        <pt x="478" y="578" on="1"/>
        <pt x="418" y="595" on="0"/>
        <pt x="352" y="595" on="1"/>
        <pt x="282" y="595" on="0"/>
        <pt x="199" y="539" on="0"/>
        <pt x="162" y="419" on="0"/>
        <pt x="162" y="319" on="1"/>
        <pt x="162" y="187" on="0"/>
        <pt x="261" y="51" on="0"/>
        <pt x="355" y="51" on="1"/>
        <pt x="429" y="51" on="0"/>
        <pt x="481" y="83" on="0"/>
        <pt x="482" y="84" on="1"/>
        <pt x="503" y="191" on="1"/>
      </contour>
    </TTGlyph>
    <TTGlyph name="Cacute" xMin="42" yMin="-13" xMax="559" yMax="838">
      <contour>
        <pt x="403" y="816" on="1"/>
        <pt x="415" y="824" on="0"/>
        <pt x="440" y="838" on="0"/>
        <pt x="448" y="838" on="1"/>
        <pt x="470" y="838" on="0"/>
        <pt x="494" y="795" on="0"/>
        <pt x="493" y="759" on="1"/>
        <pt x="292" y="678" on="1"/>
        <pt x="269" y="718" on="1"/>
      </contour>
      <contour>
        <pt x="559" y="191" on="1"/>
        <pt x="559" y="31" on="1"/>
        <pt x="514" y="11" on="0"/>
        <pt x="418" y="-13" on="0"/>
        <pt x="339" y="-13" on="1"/>
        <pt x="190" y="-13" on="0"/>
        <pt x="42" y="155" on="0"/>
        <pt x="42" y="316" on="1"/>
        <pt x="42" y="410" on="0"/>
        <pt x="120" y="569" on="0"/>
        <pt x="263" y="662" on="0"/>
        <pt x="356" y="662" on="1"/>
        <pt x="477" y="662" on="0"/>
        <pt x="555" y="633" on="1"/>
        <pt x="555" y="469" on="1"/>
        <pt x="499" y="469" on="1"/>
        <pt x="478" y="578" on="1"/>
        <pt x="418" y="595" on="0"/>
        <pt x="352" y="595" on="1"/>
        <pt x="282" y="595" on="0"/>
        <pt x="199" y="539" on="0"/>
        <pt x="162" y="419" on="0"/>
        <pt x="162" y="319" on="1"/>
        <pt x="162" y="187" on="0"/>
        <pt x="261" y="51" on="0"/>
        <pt x="355" y="51" on="1"/>
        <pt x="429" y="51" on="0"/>
        <pt x="481" y="83" on="0"/>
        <pt x="482" y="84" on="1"/>
        <pt x="503" y="191" on="1"/>
      </contour>
    </TTGlyph>
    <TTGlyph name="Cacute.loclPLK" xMin="42" yMin="-13" xMax="560" yMax="865">
      <contour>
        <pt x="327" y="698" on="1"/>
        <pt x="398" y="824" on="1"/>
        <pt x="401" y="828" on="0"/>
        <pt x="418" y="853" on="0"/>
        <pt x="434" y="865" on="0"/>
        <pt x="443" y="865" on="1"/>
        <pt x="478" y="865" on="0"/>
        <pt x="503" y="808" on="1"/>
        <pt x="368" y="666" on="1"/>
      </contour>
      <contour>
        <pt x="560" y="191" on="1"/>
        <pt x="560" y="31" on="1"/>
        <pt x="515" y="12" on="0"/>
        <pt x="418" y="-13" on="0"/>
        <pt x="339" y="-13" on="1"/>
        <pt x="190" y="-13" on="0"/>
        <pt x="42" y="155" on="0"/>
        <pt x="42" y="316" on="1"/>
        <pt x="42" y="410" on="0"/>
        <pt x="120" y="569" on="0"/>
        <pt x="263" y="662" on="0"/>
        <pt x="356" y="662" on="1"/>
        <pt x="418" y="662" on="0"/>
        <pt x="521" y="646" on="0"/>
        <pt x="556" y="633" on="1"/>
        <pt x="556" y="469" on="1"/>
        <pt x="499" y="469" on="1"/>
        <pt x="478" y="578" on="1"/>
        <pt x="418" y="595" on="0"/>
        <pt x="352" y="595" on="1"/>
        <pt x="282" y="595" on="0"/>
        <pt x="199" y="539" on="0"/>
        <pt x="162" y="419" on="0"/>
        <pt x="162" y="319" on="1"/>
        <pt x="162" y="187" on="0"/>
        <pt x="261" y="51" on="0"/>
        <pt x="355" y="51" on="1"/>
        <pt x="429" y="51" on="0"/>
        <pt x="481" y="83" on="0"/>
        <pt x="482" y="84" on="1"/>
        <pt x="503" y="191" on="1"/>
      </contour>
    </TTGlyph>
    <TTGlyph name="Ccaron" xMin="42" yMin="-13" xMax="559" yMax="837">
      <contour>
        <pt x="348" y="773" on="1"/>
        <pt x="478" y="836" on="1"/>
        <pt x="504" y="798" on="1"/>
        <pt x="412" y="722" on="1"/>
        <pt x="390" y="704" on="1"/>
        <pt x="371" y="689" on="0"/>
        <pt x="352" y="676" on="0"/>
        <pt x="344" y="676" on="1"/>
        <pt x="335" y="676" on="0"/>
        <pt x="310" y="693" on="0"/>
        <pt x="290" y="710" on="1"/>
        <pt x="274" y="723" on="1"/>
        <pt x="185" y="793" on="1"/>
        <pt x="219" y="837" on="1"/>
      </contour>
      <contour>
        <pt x="559" y="191" on="1"/>
        <pt x="559" y="31" on="1"/>
        <pt x="514" y="11" on="0"/>
        <pt x="418" y="-13" on="0"/>
        <pt x="339" y="-13" on="1"/>
        <pt x="190" y="-13" on="0"/>
        <pt x="42" y="155" on="0"/>
        <pt x="42" y="316" on="1"/>
        <pt x="42" y="410" on="0"/>
        <pt x="120" y="569" on="0"/>
        <pt x="263" y="662" on="0"/>
        <pt x="356" y="662" on="1"/>
        <pt x="477" y="662" on="0"/>
        <pt x="555" y="633" on="1"/>
        <pt x="555" y="469" on="1"/>
        <pt x="499" y="469" on="1"/>
        <pt x="478" y="578" on="1"/>
        <pt x="418" y="595" on="0"/>
        <pt x="352" y="595" on="1"/>
        <pt x="282" y="595" on="0"/>
        <pt x="199" y="539" on="0"/>
        <pt x="162" y="419" on="0"/>
        <pt x="162" y="319" on="1"/>
        <pt x="162" y="187" on="0"/>
        <pt x="261" y="51" on="0"/>
        <pt x="355" y="51" on="1"/>
        <pt x="429" y="51" on="0"/>
        <pt x="481" y="83" on="0"/>
        <pt x="482" y="84" on="1"/>
        <pt x="503" y="191" on="1"/>
      </contour>
    </TTGlyph>
    <TTGlyph name="Ccedilla" xMin="42" yMin="-189" xMax="559" yMax="662">
      <contour>
        <pt x="301" y="-144" on="0"/>
        <pt x="328" y="-144" on="1"/>
        <pt x="380" y="-144" on="0"/>
        <pt x="380" y="-115" on="1"/>
        <pt x="380" y="-102" on="0"/>
        <pt x="367" y="-91" on="0"/>
        <pt x="351" y="-88" on="1"/>
        <pt x="317" y="-81" on="1"/>
        <pt x="296" y="-61" on="1"/>
        <pt x="317" y="-12" on="1"/>
        <pt x="179" y="-7" on="0"/>
        <pt x="42" y="160" on="0"/>
        <pt x="42" y="316" on="1"/>
        <pt x="42" y="410" on="0"/>
        <pt x="120" y="569" on="0"/>
        <pt x="263" y="662" on="0"/>
        <pt x="356" y="662" on="1"/>
        <pt x="477" y="662" on="0"/>
        <pt x="555" y="633" on="1"/>
        <pt x="555" y="469" on="1"/>
        <pt x="499" y="469" on="1"/>
        <pt x="478" y="578" on="1"/>
        <pt x="418" y="595" on="0"/>
        <pt x="352" y="595" on="1"/>
        <pt x="282" y="595" on="0"/>
        <pt x="199" y="539" on="0"/>
        <pt x="162" y="419" on="0"/>
        <pt x="162" y="319" on="1"/>
        <pt x="162" y="187" on="0"/>
        <pt x="261" y="51" on="0"/>
        <pt x="355" y="51" on="1"/>
        <pt x="429" y="51" on="0"/>
        <pt x="481" y="83" on="0"/>
        <pt x="482" y="84" on="1"/>
        <pt x="503" y="191" on="1"/>
        <pt x="559" y="191" on="1"/>
        <pt x="559" y="31" on="1"/>
        <pt x="519" y="13" on="0"/>
        <pt x="433" y="-10" on="0"/>
        <pt x="366" y="-13" on="1"/>
        <pt x="366" y="-29" on="1"/>
        <pt x="384" y="-34" on="1"/>
        <pt x="419" y="-42" on="0"/>
        <pt x="455" y="-68" on="0"/>
        <pt x="455" y="-98" on="1"/>
        <pt x="455" y="-145" on="0"/>
        <pt x="386" y="-189" on="0"/>
        <pt x="332" y="-189" on="1"/>
        <pt x="308" y="-189" on="0"/>
        <pt x="273" y="-181" on="0"/>
        <pt x="255" y="-172" on="1"/>
        <pt x="272" y="-132" on="1"/>
      </contour>
    </TTGlyph>
    <TTGlyph name="Ccircumflex" xMin="42" yMin="-13" xMax="560" yMax="837">
      <component glyphName=".ttfautohint" x="42" y="0" flags="0x0"/>
      <component glyphName="C" x="0" y="0" flags="0x0"/>
      <component glyphName="uni0302.case" x="515" y="0" flags="0x0"/>
    </TTGlyph>
    <TTGlyph name="Cdotaccent" xMin="42" yMin="-13" xMax="560" yMax="833">
      <component glyphName=".ttfautohint" x="42" y="0" flags="0x0"/>
      <component glyphName="C" x="0" y="0" flags="0x0"/>
      <component glyphName="uni0307.case" x="421" y="0" flags="0x0"/>
    </TTGlyph>
    <TTGlyph name="D" xMin="49" yMin="0" xMax="664" yMax="648">
      <contour>
        <pt x="49" y="47" on="1"/>
        <pt x="131" y="65" on="1"/>
        <pt x="131" y="583" on="1"/>
        <pt x="49" y="601" on="1"/>
        <pt x="49" y="648" on="1"/>
        <pt x="350" y="648" on="1"/>
        <pt x="501" y="648" on="0"/>
        <pt x="664" y="489" on="0"/>
        <pt x="664" y="338" on="1"/>
        <pt x="664" y="175" on="0"/>
        <pt x="487" y="0" on="0"/>
        <pt x="323" y="0" on="1"/>
        <pt x="49" y="0" on="1"/>
      </contour>
      <contour>
        <pt x="398" y="59" on="0"/>
        <pt x="499" y="113" on="0"/>
        <pt x="544" y="235" on="0"/>
        <pt x="544" y="339" on="1"/>
        <pt x="544" y="471" on="0"/>
        <pt x="431" y="585" on="0"/>
        <pt x="317" y="585" on="1"/>
        <pt x="272" y="585" on="0"/>
        <pt x="234" y="580" on="1"/>
        <pt x="234" y="66" on="1"/>
        <pt x="264" y="59" on="0"/>
        <pt x="310" y="59" on="1"/>
      </contour>
    </TTGlyph>
    <TTGlyph name="Dcaron" xMin="49" yMin="0" xMax="664" yMax="837">
      <contour>
        <pt x="343" y="773" on="1"/>
        <pt x="473" y="836" on="1"/>
        <pt x="499" y="798" on="1"/>
        <pt x="408" y="723" on="1"/>
        <pt x="392" y="710" on="1"/>
        <pt x="367" y="690" on="0"/>
        <pt x="347" y="676" on="0"/>
        <pt x="339" y="676" on="1"/>
        <pt x="329" y="676" on="0"/>
        <pt x="306" y="691" on="0"/>
        <pt x="286" y="709" on="1"/>
        <pt x="269" y="723" on="1"/>
        <pt x="180" y="793" on="1"/>
        <pt x="213" y="837" on="1"/>
      </contour>
      <contour>
        <pt x="49" y="47" on="1"/>
        <pt x="131" y="65" on="1"/>
        <pt x="131" y="583" on="1"/>
        <pt x="49" y="601" on="1"/>
        <pt x="49" y="648" on="1"/>
        <pt x="350" y="648" on="1"/>
        <pt x="501" y="648" on="0"/>
        <pt x="664" y="489" on="0"/>
        <pt x="664" y="338" on="1"/>
        <pt x="664" y="175" on="0"/>
        <pt x="487" y="0" on="0"/>
        <pt x="323" y="0" on="1"/>
        <pt x="49" y="0" on="1"/>
      </contour>
      <contour>
        <pt x="398" y="59" on="0"/>
        <pt x="499" y="113" on="0"/>
        <pt x="544" y="235" on="0"/>
        <pt x="544" y="339" on="1"/>
        <pt x="544" y="471" on="0"/>
        <pt x="431" y="585" on="0"/>
        <pt x="317" y="585" on="1"/>
        <pt x="272" y="585" on="0"/>
        <pt x="234" y="580" on="1"/>
        <pt x="234" y="66" on="1"/>
        <pt x="264" y="59" on="0"/>
        <pt x="310" y="59" on="1"/>
      </contour>
    </TTGlyph>
    <TTGlyph name="Dcroat" xMin="52" yMin="0" xMax="669" yMax="648">
      <component glyphName=".ttfautohint" x="52" y="0" flags="0x0"/>
      <component glyphName="Eth" x="0" y="0" flags="0x0"/>
    </TTGlyph>
    <TTGlyph name="E" xMin="49" yMin="0" xMax="528" yMax="648">
      <contour>
        <pt x="131" y="65" on="1"/>
        <pt x="131" y="584" on="1"/>
        <pt x="49" y="601" on="1"/>
        <pt x="49" y="648" on="1"/>
        <pt x="519" y="648" on="1"/>
        <pt x="519" y="477" on="1"/>
        <pt x="464" y="477" on="1"/>
        <pt x="442" y="587" on="1"/>
        <pt x="316" y="587" on="1"/>
        <pt x="234" y="580" on="1"/>
        <pt x="234" y="360" on="1"/>
        <pt x="375" y="360" on="1"/>
        <pt x="392" y="422" on="1"/>
        <pt x="437" y="422" on="1"/>
        <pt x="437" y="236" on="1"/>
        <pt x="392" y="236" on="1"/>
        <pt x="375" y="301" on="1"/>
        <pt x="234" y="301" on="1"/>
        <pt x="234" y="70" on="1"/>
        <pt x="273" y="63" on="0"/>
        <pt x="323" y="63" on="1"/>
        <pt x="450" y="63" on="1"/>
        <pt x="474" y="174" on="1"/>
        <pt x="528" y="174" on="1"/>
        <pt x="528" y="0" on="1"/>
        <pt x="49" y="0" on="1"/>
        <pt x="49" y="47" on="1"/>
      </contour>
    </TTGlyph>
    <TTGlyph name="Eacute" xMin="49" yMin="0" xMax="528" yMax="838">
      <contour>
        <pt x="341" y="816" on="1"/>
        <pt x="346" y="819" on="0"/>
        <pt x="366" y="832" on="0"/>
        <pt x="380" y="838" on="0"/>
        <pt x="386" y="838" on="1"/>
        <pt x="408" y="838" on="0"/>
        <pt x="432" y="795" on="0"/>
        <pt x="431" y="759" on="1"/>
        <pt x="230" y="678" on="1"/>
        <pt x="207" y="718" on="1"/>
      </contour>
      <contour>
        <pt x="131" y="65" on="1"/>
        <pt x="131" y="584" on="1"/>
        <pt x="49" y="601" on="1"/>
        <pt x="49" y="648" on="1"/>
        <pt x="519" y="648" on="1"/>
        <pt x="519" y="477" on="1"/>
        <pt x="464" y="477" on="1"/>
        <pt x="442" y="587" on="1"/>
        <pt x="316" y="587" on="1"/>
        <pt x="234" y="580" on="1"/>
        <pt x="234" y="360" on="1"/>
        <pt x="375" y="360" on="1"/>
        <pt x="392" y="422" on="1"/>
        <pt x="437" y="422" on="1"/>
        <pt x="437" y="236" on="1"/>
        <pt x="392" y="236" on="1"/>
        <pt x="375" y="301" on="1"/>
        <pt x="234" y="301" on="1"/>
        <pt x="234" y="70" on="1"/>
        <pt x="273" y="63" on="0"/>
        <pt x="323" y="63" on="1"/>
        <pt x="450" y="63" on="1"/>
        <pt x="474" y="174" on="1"/>
        <pt x="528" y="174" on="1"/>
        <pt x="528" y="0" on="1"/>
        <pt x="49" y="0" on="1"/>
        <pt x="49" y="47" on="1"/>
      </contour>
    </TTGlyph>
    <TTGlyph name="Ebreve" xMin="49" yMin="0" xMax="528" yMax="830">
      <component glyphName=".ttfautohint" x="49" y="0" flags="0x0"/>
      <component glyphName="E" x="0" y="0" flags="0x0"/>
      <component glyphName="uni0306.case" x="470" y="0" flags="0x0"/>
    </TTGlyph>
    <TTGlyph name="Ecaron" xMin="49" yMin="0" xMax="528" yMax="837">
      <contour>
        <pt x="310" y="773" on="1"/>
        <pt x="440" y="836" on="1"/>
        <pt x="466" y="798" on="1"/>
        <pt x="374" y="723" on="1"/>
        <pt x="355" y="707" on="1"/>
        <pt x="334" y="690" on="0"/>
        <pt x="313" y="676" on="0"/>
        <pt x="305" y="676" on="1"/>
        <pt x="296" y="676" on="0"/>
        <pt x="272" y="693" on="0"/>
        <pt x="243" y="717" on="0"/>
        <pt x="236" y="723" on="1"/>
        <pt x="147" y="793" on="1"/>
        <pt x="180" y="837" on="1"/>
      </contour>
      <contour>
        <pt x="131" y="65" on="1"/>
        <pt x="131" y="584" on="1"/>
        <pt x="49" y="601" on="1"/>
        <pt x="49" y="648" on="1"/>
        <pt x="519" y="648" on="1"/>
        <pt x="519" y="477" on="1"/>
        <pt x="464" y="477" on="1"/>
        <pt x="442" y="587" on="1"/>
        <pt x="316" y="587" on="1"/>
        <pt x="234" y="580" on="1"/>
        <pt x="234" y="360" on="1"/>
        <pt x="375" y="360" on="1"/>
        <pt x="392" y="422" on="1"/>
        <pt x="437" y="422" on="1"/>
        <pt x="437" y="236" on="1"/>
        <pt x="392" y="236" on="1"/>
        <pt x="375" y="301" on="1"/>
        <pt x="234" y="301" on="1"/>
        <pt x="234" y="70" on="1"/>
        <pt x="273" y="63" on="0"/>
        <pt x="323" y="63" on="1"/>
        <pt x="450" y="63" on="1"/>
        <pt x="474" y="174" on="1"/>
        <pt x="528" y="174" on="1"/>
        <pt x="528" y="0" on="1"/>
        <pt x="49" y="0" on="1"/>
        <pt x="49" y="47" on="1"/>
      </contour>
    </TTGlyph>
    <TTGlyph name="Ecircumflex" xMin="49" yMin="0" xMax="528" yMax="837">
      <contour>
        <pt x="232" y="790" on="1"/>
        <pt x="269" y="820" on="0"/>
        <pt x="293" y="837" on="0"/>
        <pt x="301" y="837" on="1"/>
        <pt x="310" y="837" on="0"/>
        <pt x="333" y="822" on="0"/>
        <pt x="352" y="805" on="1"/>
        <pt x="370" y="790" on="1"/>
        <pt x="458" y="720" on="1"/>
        <pt x="426" y="676" on="1"/>
        <pt x="296" y="740" on="1"/>
        <pt x="165" y="677" on="1"/>
        <pt x="140" y="715" on="1"/>
      </contour>
      <contour>
        <pt x="131" y="65" on="1"/>
        <pt x="131" y="584" on="1"/>
        <pt x="49" y="601" on="1"/>
        <pt x="49" y="648" on="1"/>
        <pt x="519" y="648" on="1"/>
        <pt x="519" y="477" on="1"/>
        <pt x="464" y="477" on="1"/>
        <pt x="442" y="587" on="1"/>
        <pt x="316" y="587" on="1"/>
        <pt x="234" y="580" on="1"/>
        <pt x="234" y="360" on="1"/>
        <pt x="375" y="360" on="1"/>
        <pt x="392" y="422" on="1"/>
        <pt x="437" y="422" on="1"/>
        <pt x="437" y="236" on="1"/>
        <pt x="392" y="236" on="1"/>
        <pt x="375" y="301" on="1"/>
        <pt x="234" y="301" on="1"/>
        <pt x="234" y="70" on="1"/>
        <pt x="273" y="63" on="0"/>
        <pt x="323" y="63" on="1"/>
        <pt x="450" y="63" on="1"/>
        <pt x="474" y="174" on="1"/>
        <pt x="528" y="174" on="1"/>
        <pt x="528" y="0" on="1"/>
        <pt x="49" y="0" on="1"/>
        <pt x="49" y="47" on="1"/>
      </contour>
    </TTGlyph>
    <TTGlyph name="Edieresis" xMin="49" yMin="0" xMax="528" yMax="820">
      <contour>
        <pt x="167" y="694" on="0"/>
        <pt x="135" y="728" on="0"/>
        <pt x="135" y="755" on="1"/>
        <pt x="135" y="782" on="0"/>
        <pt x="170" y="820" on="0"/>
        <pt x="197" y="820" on="1"/>
        <pt x="223" y="820" on="0"/>
        <pt x="254" y="788" on="0"/>
        <pt x="254" y="761" on="1"/>
        <pt x="254" y="733" on="0"/>
        <pt x="220" y="694" on="0"/>
        <pt x="192" y="694" on="1"/>
      </contour>
      <contour>
        <pt x="388" y="694" on="0"/>
        <pt x="357" y="728" on="0"/>
        <pt x="357" y="755" on="1"/>
        <pt x="357" y="782" on="0"/>
        <pt x="392" y="820" on="0"/>
        <pt x="418" y="820" on="1"/>
        <pt x="444" y="820" on="0"/>
        <pt x="475" y="788" on="0"/>
        <pt x="475" y="761" on="1"/>
        <pt x="475" y="733" on="0"/>
        <pt x="441" y="694" on="0"/>
        <pt x="413" y="694" on="1"/>
      </contour>
      <contour>
        <pt x="131" y="65" on="1"/>
        <pt x="131" y="584" on="1"/>
        <pt x="49" y="601" on="1"/>
        <pt x="49" y="648" on="1"/>
        <pt x="519" y="648" on="1"/>
        <pt x="519" y="477" on="1"/>
        <pt x="464" y="477" on="1"/>
        <pt x="442" y="587" on="1"/>
        <pt x="316" y="587" on="1"/>
        <pt x="234" y="580" on="1"/>
        <pt x="234" y="360" on="1"/>
        <pt x="375" y="360" on="1"/>
        <pt x="392" y="422" on="1"/>
        <pt x="437" y="422" on="1"/>
        <pt x="437" y="236" on="1"/>
        <pt x="392" y="236" on="1"/>
        <pt x="375" y="301" on="1"/>
        <pt x="234" y="301" on="1"/>
        <pt x="234" y="70" on="1"/>
        <pt x="273" y="63" on="0"/>
        <pt x="323" y="63" on="1"/>
        <pt x="450" y="63" on="1"/>
        <pt x="474" y="174" on="1"/>
        <pt x="528" y="174" on="1"/>
        <pt x="528" y="0" on="1"/>
        <pt x="49" y="0" on="1"/>
        <pt x="49" y="47" on="1"/>
      </contour>
    </TTGlyph>
    <TTGlyph name="Edotaccent" xMin="49" yMin="0" xMax="528" yMax="833">
      <contour>
        <pt x="278" y="693" on="0"/>
        <pt x="244" y="731" on="0"/>
        <pt x="244" y="760" on="1"/>
        <pt x="244" y="790" on="0"/>
        <pt x="283" y="833" on="0"/>
        <pt x="312" y="833" on="1"/>
        <pt x="340" y="833" on="0"/>
        <pt x="375" y="797" on="0"/>
        <pt x="375" y="767" on="1"/>
        <pt x="375" y="736" on="0"/>
        <pt x="337" y="693" on="0"/>
        <pt x="306" y="693" on="1"/>
      </contour>
      <contour>
        <pt x="131" y="65" on="1"/>
        <pt x="131" y="584" on="1"/>
        <pt x="49" y="601" on="1"/>
        <pt x="49" y="648" on="1"/>
        <pt x="519" y="648" on="1"/>
        <pt x="519" y="477" on="1"/>
        <pt x="464" y="477" on="1"/>
        <pt x="442" y="587" on="1"/>
        <pt x="316" y="587" on="1"/>
        <pt x="234" y="580" on="1"/>
        <pt x="234" y="360" on="1"/>
        <pt x="375" y="360" on="1"/>
        <pt x="392" y="422" on="1"/>
        <pt x="437" y="422" on="1"/>
        <pt x="437" y="236" on="1"/>
        <pt x="392" y="236" on="1"/>
        <pt x="375" y="301" on="1"/>
        <pt x="234" y="301" on="1"/>
        <pt x="234" y="70" on="1"/>
        <pt x="273" y="63" on="0"/>
        <pt x="323" y="63" on="1"/>
        <pt x="450" y="63" on="1"/>
        <pt x="474" y="174" on="1"/>
        <pt x="528" y="174" on="1"/>
        <pt x="528" y="0" on="1"/>
        <pt x="49" y="0" on="1"/>
        <pt x="49" y="47" on="1"/>
      </contour>
    </TTGlyph>
    <TTGlyph name="Egrave" xMin="49" yMin="0" xMax="528" yMax="838">
      <contour>
        <pt x="182" y="795" on="0"/>
        <pt x="207" y="838" on="0"/>
        <pt x="228" y="838" on="1"/>
        <pt x="236" y="838" on="0"/>
        <pt x="261" y="824" on="0"/>
        <pt x="273" y="816" on="1"/>
        <pt x="407" y="718" on="1"/>
        <pt x="385" y="678" on="1"/>
        <pt x="183" y="759" on="1"/>
      </contour>
      <contour>
        <pt x="131" y="65" on="1"/>
        <pt x="131" y="584" on="1"/>
        <pt x="49" y="601" on="1"/>
        <pt x="49" y="648" on="1"/>
        <pt x="519" y="648" on="1"/>
        <pt x="519" y="477" on="1"/>
        <pt x="464" y="477" on="1"/>
        <pt x="442" y="587" on="1"/>
        <pt x="316" y="587" on="1"/>
        <pt x="234" y="580" on="1"/>
        <pt x="234" y="360" on="1"/>
        <pt x="375" y="360" on="1"/>
        <pt x="392" y="422" on="1"/>
        <pt x="437" y="422" on="1"/>
        <pt x="437" y="236" on="1"/>
        <pt x="392" y="236" on="1"/>
        <pt x="375" y="301" on="1"/>
        <pt x="234" y="301" on="1"/>
        <pt x="234" y="70" on="1"/>
        <pt x="273" y="63" on="0"/>
        <pt x="323" y="63" on="1"/>
        <pt x="450" y="63" on="1"/>
        <pt x="474" y="174" on="1"/>
        <pt x="528" y="174" on="1"/>
        <pt x="528" y="0" on="1"/>
        <pt x="49" y="0" on="1"/>
        <pt x="49" y="47" on="1"/>
      </contour>
    </TTGlyph>
    <TTGlyph name="Emacron" xMin="49" yMin="0" xMax="528" yMax="788">
      <contour>
        <pt x="475" y="788" on="1"/>
        <pt x="464" y="723" on="1"/>
        <pt x="128" y="723" on="1"/>
        <pt x="139" y="788" on="1"/>
      </contour>
      <contour>
        <pt x="131" y="65" on="1"/>
        <pt x="131" y="584" on="1"/>
        <pt x="49" y="601" on="1"/>
        <pt x="49" y="648" on="1"/>
        <pt x="519" y="648" on="1"/>
        <pt x="519" y="477" on="1"/>
        <pt x="464" y="477" on="1"/>
        <pt x="442" y="587" on="1"/>
        <pt x="316" y="587" on="1"/>
        <pt x="234" y="580" on="1"/>
        <pt x="234" y="360" on="1"/>
        <pt x="375" y="360" on="1"/>
        <pt x="392" y="422" on="1"/>
        <pt x="437" y="422" on="1"/>
        <pt x="437" y="236" on="1"/>
        <pt x="392" y="236" on="1"/>
        <pt x="375" y="301" on="1"/>
        <pt x="234" y="301" on="1"/>
        <pt x="234" y="70" on="1"/>
        <pt x="273" y="63" on="0"/>
        <pt x="323" y="63" on="1"/>
        <pt x="450" y="63" on="1"/>
        <pt x="474" y="174" on="1"/>
        <pt x="528" y="174" on="1"/>
        <pt x="528" y="0" on="1"/>
        <pt x="49" y="0" on="1"/>
        <pt x="49" y="47" on="1"/>
      </contour>
    </TTGlyph>
    <TTGlyph name="Eng" xMin="49" yMin="-166" xMax="689" yMax="648">
      <contour>
        <pt x="689" y="648" on="1"/>
        <pt x="689" y="602" on="1"/>
        <pt x="616" y="585" on="1"/>
        <pt x="616" y="-82" on="1"/>
        <pt x="616" y="-122" on="0"/>
        <pt x="560" y="-166" on="0"/>
        <pt x="505" y="-166" on="1"/>
        <pt x="472" y="-166" on="0"/>
        <pt x="413" y="-155" on="0"/>
        <pt x="413" y="-154" on="1"/>
        <pt x="413" y="-112" on="1"/>
        <pt x="512" y="-89" on="1"/>
        <pt x="512" y="5" on="1"/>
        <pt x="211" y="478" on="1"/>
        <pt x="201" y="495" on="1"/>
        <pt x="194" y="495" on="1"/>
        <pt x="194" y="63" on="1"/>
        <pt x="267" y="46" on="1"/>
        <pt x="267" y="0" on="1"/>
        <pt x="49" y="0" on="1"/>
        <pt x="49" y="46" on="1"/>
        <pt x="122" y="63" on="1"/>
        <pt x="122" y="585" on="1"/>
        <pt x="57" y="599" on="1"/>
        <pt x="57" y="648" on="1"/>
        <pt x="227" y="648" on="1"/>
        <pt x="526" y="174" on="1"/>
        <pt x="537" y="156" on="1"/>
        <pt x="544" y="156" on="1"/>
        <pt x="544" y="585" on="1"/>
        <pt x="472" y="602" on="1"/>
        <pt x="472" y="648" on="1"/>
      </contour>
    </TTGlyph>
    <TTGlyph name="Eogonek" xMin="49" yMin="-187" xMax="580" yMax="648">
      <contour>
        <pt x="131" y="65" on="1"/>
        <pt x="131" y="584" on="1"/>
        <pt x="49" y="601" on="1"/>
        <pt x="49" y="648" on="1"/>
        <pt x="519" y="648" on="1"/>
        <pt x="519" y="477" on="1"/>
        <pt x="465" y="477" on="1"/>
        <pt x="442" y="587" on="1"/>
        <pt x="316" y="587" on="1"/>
        <pt x="234" y="580" on="1"/>
        <pt x="234" y="360" on="1"/>
        <pt x="375" y="360" on="1"/>
        <pt x="392" y="422" on="1"/>
        <pt x="437" y="422" on="1"/>
        <pt x="437" y="236" on="1"/>
        <pt x="392" y="236" on="1"/>
        <pt x="375" y="301" on="1"/>
        <pt x="234" y="301" on="1"/>
        <pt x="234" y="70" on="1"/>
        <pt x="280" y="63" on="0"/>
        <pt x="322" y="63" on="1"/>
        <pt x="450" y="63" on="1"/>
        <pt x="483" y="174" on="1"/>
        <pt x="537" y="174" on="1"/>
        <pt x="528" y="11" on="1"/>
        <pt x="512" y="11" on="1"/>
        <pt x="498" y="-2" on="0"/>
        <pt x="465" y="-55" on="0"/>
        <pt x="465" y="-82" on="1"/>
        <pt x="465" y="-123" on="0"/>
        <pt x="505" y="-123" on="1"/>
        <pt x="526" y="-123" on="0"/>
        <pt x="561" y="-103" on="1"/>
        <pt x="580" y="-136" on="1"/>
        <pt x="580" y="-137" on="0"/>
        <pt x="550" y="-164" on="0"/>
        <pt x="504" y="-187" on="0"/>
        <pt x="478" y="-187" on="1"/>
        <pt x="438" y="-187" on="0"/>
        <pt x="390" y="-149" on="0"/>
        <pt x="390" y="-113" on="1"/>
        <pt x="390" y="-81" on="0"/>
        <pt x="424" y="-23" on="0"/>
        <pt x="450" y="0" on="1"/>
        <pt x="49" y="0" on="1"/>
        <pt x="49" y="47" on="1"/>
      </contour>
    </TTGlyph>
    <TTGlyph name="Eth" xMin="52" yMin="0" xMax="669" yMax="648">
      <contour>
        <pt x="137" y="65" on="1"/>
        <pt x="137" y="302" on="1"/>
        <pt x="52" y="302" on="1"/>
        <pt x="52" y="365" on="1"/>
        <pt x="137" y="365" on="1"/>
        <pt x="137" y="583" on="1"/>
        <pt x="55" y="601" on="1"/>
        <pt x="55" y="648" on="1"/>
        <pt x="364" y="648" on="1"/>
        <pt x="511" y="648" on="0"/>
        <pt x="669" y="485" on="0"/>
        <pt x="669" y="331" on="1"/>
        <pt x="669" y="232" on="0"/>
        <pt x="589" y="82" on="0"/>
        <pt x="443" y="0" on="0"/>
        <pt x="347" y="0" on="1"/>
        <pt x="55" y="0" on="1"/>
        <pt x="55" y="47" on="1"/>
      </contour>
      <contour>
        <pt x="268" y="59" on="0"/>
        <pt x="320" y="59" on="1"/>
        <pt x="406" y="59" on="0"/>
        <pt x="505" y="112" on="0"/>
        <pt x="550" y="230" on="0"/>
        <pt x="550" y="332" on="1"/>
        <pt x="550" y="469" on="0"/>
        <pt x="442" y="585" on="0"/>
        <pt x="331" y="585" on="1"/>
        <pt x="289" y="585" on="0"/>
        <pt x="239" y="580" on="1"/>
        <pt x="239" y="365" on="1"/>
        <pt x="398" y="365" on="1"/>
        <pt x="398" y="302" on="1"/>
        <pt x="239" y="302" on="1"/>
        <pt x="239" y="66" on="1"/>
      </contour>
    </TTGlyph>
    <TTGlyph name="Euro" xMin="-8" yMin="-13" xMax="493" yMax="662">
      <contour>
        <pt x="351" y="360" on="1"/>
        <pt x="3" y="360" on="1"/>
        <pt x="25" y="423" on="1"/>
        <pt x="68" y="423" on="1"/>
        <pt x="95" y="533" on="0"/>
        <pt x="237" y="662" on="0"/>
        <pt x="339" y="662" on="1"/>
        <pt x="374" y="662" on="0"/>
        <pt x="457" y="647" on="0"/>
        <pt x="489" y="633" on="1"/>
        <pt x="489" y="469" on="1"/>
        <pt x="432" y="469" on="1"/>
        <pt x="413" y="578" on="1"/>
        <pt x="374" y="595" on="0"/>
        <pt x="330" y="595" on="1"/>
        <pt x="205" y="595" on="0"/>
        <pt x="176" y="423" on="1"/>
        <pt x="373" y="423" on="1"/>
      </contour>
      <contour>
        <pt x="493" y="191" on="1"/>
        <pt x="493" y="31" on="1"/>
        <pt x="457" y="11" on="0"/>
        <pt x="364" y="-13" on="0"/>
        <pt x="317" y="-13" on="1"/>
        <pt x="204" y="-13" on="0"/>
        <pt x="73" y="130" on="0"/>
        <pt x="60" y="249" on="1"/>
        <pt x="-8" y="249" on="1"/>
        <pt x="14" y="312" on="1"/>
        <pt x="335" y="312" on="1"/>
        <pt x="312" y="249" on="1"/>
        <pt x="176" y="249" on="1"/>
        <pt x="187" y="155" on="0"/>
        <pt x="258" y="51" on="0"/>
        <pt x="318" y="51" on="1"/>
        <pt x="343" y="51" on="0"/>
        <pt x="398" y="69" on="0"/>
        <pt x="418" y="84" on="1"/>
        <pt x="436" y="191" on="1"/>
      </contour>
    </TTGlyph>
    <TTGlyph name="Euro.osf" xMin="-18" yMin="-12" xMax="475" yMax="531">
      <contour>
        <pt x="69" y="341" on="1"/>
        <pt x="91" y="426" on="0"/>
        <pt x="212" y="531" on="0"/>
        <pt x="309" y="531" on="1"/>
        <pt x="364" y="531" on="0"/>
        <pt x="436" y="516" on="0"/>
        <pt x="472" y="503" on="1"/>
        <pt x="472" y="360" on="1"/>
        <pt x="422" y="360" on="1"/>
        <pt x="403" y="451" on="1"/>
        <pt x="394" y="455" on="0"/>
        <pt x="346" y="464" on="0"/>
        <pt x="315" y="464" on="1"/>
        <pt x="244" y="464" on="0"/>
        <pt x="178" y="402" on="0"/>
        <pt x="170" y="341" on="1"/>
        <pt x="363" y="341" on="1"/>
        <pt x="341" y="278" on="1"/>
        <pt x="15" y="278" on="1"/>
        <pt x="37" y="341" on="1"/>
      </contour>
      <contour>
        <pt x="325" y="230" on="1"/>
        <pt x="302" y="167" on="1"/>
        <pt x="172" y="167" on="1"/>
        <pt x="182" y="106" on="0"/>
        <pt x="251" y="53" on="0"/>
        <pt x="311" y="53" on="1"/>
        <pt x="367" y="53" on="0"/>
        <pt x="407" y="73" on="1"/>
        <pt x="426" y="167" on="1"/>
        <pt x="475" y="167" on="1"/>
        <pt x="475" y="26" on="1"/>
        <pt x="469" y="23" on="0"/>
        <pt x="418" y="1" on="0"/>
        <pt x="346" y="-12" on="0"/>
        <pt x="300" y="-12" on="1"/>
        <pt x="196" y="-12" on="0"/>
        <pt x="85" y="70" on="0"/>
        <pt x="66" y="167" on="1"/>
        <pt x="-18" y="167" on="1"/>
        <pt x="4" y="230" on="1"/>
      </contour>
    </TTGlyph>
    <TTGlyph name="F" xMin="49" yMin="0" xMax="519" yMax="648">
      <contour>
        <pt x="131" y="65" on="1"/>
        <pt x="131" y="584" on="1"/>
        <pt x="49" y="601" on="1"/>
        <pt x="49" y="648" on="1"/>
        <pt x="519" y="648" on="1"/>
        <pt x="519" y="477" on="1"/>
        <pt x="463" y="477" on="1"/>
        <pt x="441" y="587" on="1"/>
        <pt x="316" y="587" on="1"/>
        <pt x="234" y="580" on="1"/>
        <pt x="234" y="341" on="1"/>
        <pt x="387" y="341" on="1"/>
        <pt x="403" y="404" on="1"/>
        <pt x="448" y="404" on="1"/>
        <pt x="448" y="217" on="1"/>
        <pt x="403" y="217" on="1"/>
        <pt x="387" y="282" on="1"/>
        <pt x="234" y="282" on="1"/>
        <pt x="234" y="67" on="1"/>
        <pt x="338" y="51" on="1"/>
        <pt x="338" y="0" on="1"/>
        <pt x="49" y="0" on="1"/>
        <pt x="49" y="47" on="1"/>
      </contour>
    </TTGlyph>
    <TTGlyph name="G" xMin="42" yMin="-13" xMax="617" yMax="662">
      <contour>
        <pt x="397" y="278" on="1"/>
        <pt x="397" y="325" on="1"/>
        <pt x="617" y="325" on="1"/>
        <pt x="617" y="273" on="1"/>
        <pt x="573" y="262" on="1"/>
        <pt x="573" y="0" on="1"/>
        <pt x="530" y="0" on="1"/>
        <pt x="500" y="27" on="1"/>
        <pt x="488" y="27" on="1"/>
        <pt x="426" y="-13" on="0"/>
        <pt x="331" y="-13" on="1"/>
        <pt x="42" y="-13" on="0"/>
        <pt x="42" y="314" on="1"/>
        <pt x="42" y="412" on="0"/>
        <pt x="121" y="571" on="0"/>
        <pt x="268" y="662" on="0"/>
        <pt x="367" y="662" on="1"/>
        <pt x="434" y="662" on="0"/>
        <pt x="538" y="643" on="0"/>
        <pt x="564" y="632" on="1"/>
        <pt x="564" y="468" on="1"/>
        <pt x="508" y="468" on="1"/>
        <pt x="481" y="578" on="1"/>
        <pt x="430" y="595" on="0"/>
        <pt x="358" y="595" on="1"/>
        <pt x="252" y="595" on="0"/>
        <pt x="162" y="463" on="0"/>
        <pt x="162" y="325" on="1"/>
        <pt x="162" y="183" on="0"/>
        <pt x="252" y="51" on="0"/>
        <pt x="356" y="51" on="1"/>
        <pt x="395" y="51" on="0"/>
        <pt x="445" y="64" on="0"/>
        <pt x="472" y="77" on="1"/>
        <pt x="472" y="260" on="1"/>
      </contour>
    </TTGlyph>
    <TTGlyph name="G_tilde.loclGUA" xMin="42" yMin="-13" xMax="617" yMax="817">
      <component glyphName=".ttfautohint" x="42" y="0" flags="0x0"/>
      <component glyphName="G" x="0" y="0" flags="0x0"/>
      <component glyphName="tildecomb.case" x="533" y="0" flags="0x0"/>
    </TTGlyph>
    <TTGlyph name="Gbreve" xMin="42" yMin="-13" xMax="617" yMax="830">
      <contour>
        <pt x="251" y="827" on="0"/>
        <pt x="272" y="793" on="0"/>
        <pt x="314" y="764" on="0"/>
        <pt x="346" y="764" on="1"/>
        <pt x="382" y="764" on="0"/>
        <pt x="432" y="792" on="0"/>
        <pt x="458" y="825" on="0"/>
        <pt x="458" y="828" on="1"/>
        <pt x="493" y="813" on="1"/>
        <pt x="493" y="807" on="0"/>
        <pt x="462" y="746" on="0"/>
        <pt x="396" y="693" on="0"/>
        <pt x="344" y="693" on="1"/>
        <pt x="284" y="693" on="0"/>
        <pt x="214" y="742" on="0"/>
        <pt x="187" y="796" on="0"/>
        <pt x="187" y="804" on="1"/>
        <pt x="251" y="830" on="1"/>
      </contour>
      <contour>
        <pt x="397" y="278" on="1"/>
        <pt x="397" y="325" on="1"/>
        <pt x="617" y="325" on="1"/>
        <pt x="617" y="273" on="1"/>
        <pt x="573" y="262" on="1"/>
        <pt x="573" y="0" on="1"/>
        <pt x="530" y="0" on="1"/>
        <pt x="500" y="27" on="1"/>
        <pt x="488" y="27" on="1"/>
        <pt x="426" y="-13" on="0"/>
        <pt x="331" y="-13" on="1"/>
        <pt x="42" y="-13" on="0"/>
        <pt x="42" y="314" on="1"/>
        <pt x="42" y="412" on="0"/>
        <pt x="121" y="571" on="0"/>
        <pt x="268" y="662" on="0"/>
        <pt x="367" y="662" on="1"/>
        <pt x="434" y="662" on="0"/>
        <pt x="537" y="643" on="0"/>
        <pt x="563" y="632" on="1"/>
        <pt x="563" y="468" on="1"/>
        <pt x="508" y="468" on="1"/>
        <pt x="481" y="578" on="1"/>
        <pt x="430" y="595" on="0"/>
        <pt x="358" y="595" on="1"/>
        <pt x="252" y="595" on="0"/>
        <pt x="162" y="463" on="0"/>
        <pt x="162" y="325" on="1"/>
        <pt x="162" y="183" on="0"/>
        <pt x="252" y="51" on="0"/>
        <pt x="356" y="51" on="1"/>
        <pt x="395" y="51" on="0"/>
        <pt x="445" y="64" on="0"/>
        <pt x="472" y="77" on="1"/>
        <pt x="472" y="260" on="1"/>
      </contour>
    </TTGlyph>
    <TTGlyph name="Gcaron" xMin="42" yMin="-13" xMax="617" yMax="837">
      <component glyphName=".ttfautohint" x="42" y="0" flags="0x0"/>
      <component glyphName="G" x="0" y="0" flags="0x0"/>
      <component glyphName="uni030C.case" x="511" y="0" flags="0x0"/>
    </TTGlyph>
    <TTGlyph name="Gcircumflex" xMin="42" yMin="-13" xMax="617" yMax="837">
      <component glyphName=".ttfautohint" x="42" y="0" flags="0x0"/>
      <component glyphName="G" x="0" y="0" flags="0x0"/>
      <component glyphName="uni0302.case" x="511" y="0" flags="0x0"/>
    </TTGlyph>
    <TTGlyph name="Gcommaaccent" xMin="42" yMin="-197" xMax="617" yMax="662">
      <contour>
        <pt x="397" y="278" on="1"/>
        <pt x="397" y="325" on="1"/>
        <pt x="617" y="325" on="1"/>
        <pt x="617" y="273" on="1"/>
        <pt x="573" y="262" on="1"/>
        <pt x="573" y="0" on="1"/>
        <pt x="530" y="0" on="1"/>
        <pt x="500" y="27" on="1"/>
        <pt x="488" y="27" on="1"/>
        <pt x="426" y="-13" on="0"/>
        <pt x="331" y="-13" on="1"/>
        <pt x="42" y="-13" on="0"/>
        <pt x="42" y="314" on="1"/>
        <pt x="42" y="412" on="0"/>
        <pt x="121" y="571" on="0"/>
        <pt x="268" y="662" on="0"/>
        <pt x="367" y="662" on="1"/>
        <pt x="434" y="662" on="0"/>
        <pt x="537" y="643" on="0"/>
        <pt x="563" y="632" on="1"/>
        <pt x="563" y="468" on="1"/>
        <pt x="508" y="468" on="1"/>
        <pt x="481" y="578" on="1"/>
        <pt x="430" y="595" on="0"/>
        <pt x="358" y="595" on="1"/>
        <pt x="252" y="595" on="0"/>
        <pt x="162" y="463" on="0"/>
        <pt x="162" y="325" on="1"/>
        <pt x="162" y="183" on="0"/>
        <pt x="252" y="51" on="0"/>
        <pt x="356" y="51" on="1"/>
        <pt x="395" y="51" on="0"/>
        <pt x="445" y="64" on="0"/>
        <pt x="472" y="77" on="1"/>
        <pt x="472" y="260" on="1"/>
      </contour>
      <contour>
        <pt x="334" y="-147" on="0"/>
        <pt x="334" y="-111" on="1"/>
        <pt x="334" y="-74" on="0"/>
        <pt x="310" y="-52" on="1"/>
        <pt x="332" y="-27" on="0"/>
        <pt x="358" y="-27" on="1"/>
        <pt x="384" y="-27" on="0"/>
        <pt x="410" y="-60" on="0"/>
        <pt x="410" y="-82" on="1"/>
        <pt x="410" y="-112" on="0"/>
        <pt x="385" y="-162" on="0"/>
        <pt x="353" y="-197" on="0"/>
        <pt x="353" y="-195" on="1"/>
        <pt x="318" y="-195" on="1"/>
      </contour>
    </TTGlyph>
    <TTGlyph name="Gdotaccent" xMin="42" yMin="-13" xMax="617" yMax="833">
      <component glyphName=".ttfautohint" x="42" y="0" flags="0x0"/>
      <component glyphName="G" x="0" y="0" flags="0x0"/>
      <component glyphName="uni0307.case" x="417" y="0" flags="0x0"/>
    </TTGlyph>
    <TTGlyph name="H" xMin="49" yMin="0" xMax="707" yMax="648">
      <contour>
        <pt x="131" y="64" on="1"/>
        <pt x="131" y="584" on="1"/>
        <pt x="49" y="600" on="1"/>
        <pt x="49" y="648" on="1"/>
        <pt x="316" y="648" on="1"/>
        <pt x="316" y="600" on="1"/>
        <pt x="234" y="584" on="1"/>
        <pt x="234" y="364" on="1"/>
        <pt x="522" y="364" on="1"/>
        <pt x="522" y="584" on="1"/>
        <pt x="440" y="600" on="1"/>
        <pt x="440" y="648" on="1"/>
        <pt x="707" y="648" on="1"/>
        <pt x="707" y="600" on="1"/>
        <pt x="625" y="584" on="1"/>
        <pt x="625" y="64" on="1"/>
        <pt x="707" y="48" on="1"/>
        <pt x="707" y="0" on="1"/>
        <pt x="440" y="0" on="1"/>
        <pt x="440" y="48" on="1"/>
        <pt x="522" y="64" on="1"/>
        <pt x="522" y="302" on="1"/>
        <pt x="234" y="302" on="1"/>
        <pt x="234" y="64" on="1"/>
        <pt x="316" y="48" on="1"/>
        <pt x="316" y="0" on="1"/>
        <pt x="49" y="0" on="1"/>
        <pt x="49" y="48" on="1"/>
      </contour>
    </TTGlyph>
    <TTGlyph name="Hbar" xMin="49" yMin="0" xMax="708" yMax="648">
      <contour>
        <pt x="49" y="48" on="1"/>
        <pt x="131" y="64" on="1"/>
        <pt x="131" y="432" on="1"/>
        <pt x="51" y="432" on="1"/>
        <pt x="51" y="494" on="1"/>
        <pt x="131" y="494" on="1"/>
        <pt x="131" y="584" on="1"/>
        <pt x="49" y="600" on="1"/>
        <pt x="49" y="648" on="1"/>
        <pt x="316" y="648" on="1"/>
        <pt x="316" y="600" on="1"/>
        <pt x="234" y="584" on="1"/>
        <pt x="234" y="494" on="1"/>
        <pt x="522" y="494" on="1"/>
        <pt x="522" y="584" on="1"/>
        <pt x="440" y="600" on="1"/>
        <pt x="440" y="648" on="1"/>
        <pt x="707" y="648" on="1"/>
        <pt x="707" y="600" on="1"/>
        <pt x="625" y="584" on="1"/>
        <pt x="625" y="494" on="1"/>
        <pt x="708" y="494" on="1"/>
        <pt x="708" y="432" on="1"/>
        <pt x="625" y="432" on="1"/>
        <pt x="625" y="64" on="1"/>
        <pt x="707" y="48" on="1"/>
        <pt x="707" y="0" on="1"/>
        <pt x="440" y="0" on="1"/>
        <pt x="440" y="48" on="1"/>
        <pt x="522" y="64" on="1"/>
        <pt x="522" y="276" on="1"/>
        <pt x="234" y="276" on="1"/>
        <pt x="234" y="64" on="1"/>
        <pt x="316" y="48" on="1"/>
        <pt x="316" y="0" on="1"/>
        <pt x="49" y="0" on="1"/>
      </contour>
      <contour>
        <pt x="522" y="338" on="1"/>
        <pt x="522" y="432" on="1"/>
        <pt x="234" y="432" on="1"/>
        <pt x="234" y="338" on="1"/>
      </contour>
    </TTGlyph>
    <TTGlyph name="Hcircumflex" xMin="49" yMin="0" xMax="707" yMax="837">
      <component glyphName=".ttfautohint" x="49" y="0" flags="0x0"/>
      <component glyphName="H" x="0" y="0" flags="0x0"/>
      <component glyphName="uni0302.case" x="537" y="0" flags="0x0"/>
    </TTGlyph>
    <TTGlyph name="I" xMin="52" yMin="0" xMax="318" yMax="648">
      <contour>
        <pt x="133" y="64" on="1"/>
        <pt x="133" y="584" on="1"/>
        <pt x="52" y="600" on="1"/>
        <pt x="52" y="648" on="1"/>
        <pt x="318" y="648" on="1"/>
        <pt x="318" y="600" on="1"/>
        <pt x="237" y="584" on="1"/>
        <pt x="237" y="64" on="1"/>
        <pt x="318" y="48" on="1"/>
        <pt x="318" y="0" on="1"/>
        <pt x="52" y="0" on="1"/>
        <pt x="52" y="48" on="1"/>
      </contour>
    </TTGlyph>
    <TTGlyph name="IJ" xMin="52" yMin="-15" xMax="741" yMax="648">
      <component glyphName=".ttfautohint" x="52" y="0" flags="0x0"/>
      <component glyphName="I" x="0" y="0" flags="0x0"/>
      <component glyphName="J" x="370" y="0" flags="0x0"/>
    </TTGlyph>
    <TTGlyph name="Iacute" xMin="52" yMin="0" xMax="318" yMax="838">
      <contour>
        <pt x="211" y="816" on="1"/>
        <pt x="216" y="819" on="0"/>
        <pt x="236" y="832" on="0"/>
        <pt x="250" y="838" on="0"/>
        <pt x="256" y="838" on="1"/>
        <pt x="278" y="838" on="0"/>
        <pt x="302" y="795" on="0"/>
        <pt x="301" y="759" on="1"/>
        <pt x="100" y="678" on="1"/>
        <pt x="77" y="718" on="1"/>
      </contour>
      <contour>
        <pt x="133" y="64" on="1"/>
        <pt x="133" y="584" on="1"/>
        <pt x="52" y="600" on="1"/>
        <pt x="52" y="648" on="1"/>
        <pt x="318" y="648" on="1"/>
        <pt x="318" y="600" on="1"/>
        <pt x="237" y="584" on="1"/>
        <pt x="237" y="64" on="1"/>
        <pt x="318" y="48" on="1"/>
        <pt x="318" y="0" on="1"/>
        <pt x="52" y="0" on="1"/>
        <pt x="52" y="48" on="1"/>
      </contour>
    </TTGlyph>
    <TTGlyph name="Iacute_J.loclNLD" xMin="52" yMin="-15" xMax="776" yMax="838">
      <component glyphName=".ttfautohint" x="52" y="0" flags="0x0"/>
      <component glyphName="I" x="0" y="0" flags="0x0"/>
      <component glyphName="acutecomb.case" x="348" y="0" flags="0x0"/>
      <component glyphName="J" x="370" y="0" flags="0x0"/>
      <component glyphName="acutecomb.case" x="778" y="0" flags="0x0"/>
    </TTGlyph>
    <TTGlyph name="Ibreve" xMin="31" yMin="0" xMax="337" yMax="830">
      <component glyphName=".ttfautohint" x="31" y="0" flags="0x0"/>
      <component glyphName="I" x="0" y="0" flags="0x0"/>
      <component glyphName="uni0306.case" x="337" y="0" flags="0x0"/>
    </TTGlyph>
    <TTGlyph name="Icircumflex" xMin="23" yMin="0" xMax="341" yMax="837">
      <contour>
        <pt x="114" y="790" on="1"/>
        <pt x="130" y="803" on="1"/>
        <pt x="154" y="823" on="0"/>
        <pt x="175" y="837" on="0"/>
        <pt x="183" y="837" on="1"/>
        <pt x="191" y="837" on="0"/>
        <pt x="215" y="821" on="0"/>
        <pt x="247" y="795" on="0"/>
        <pt x="253" y="790" on="1"/>
        <pt x="341" y="720" on="1"/>
        <pt x="308" y="676" on="1"/>
        <pt x="179" y="740" on="1"/>
        <pt x="48" y="677" on="1"/>
        <pt x="23" y="715" on="1"/>
      </contour>
      <contour>
        <pt x="133" y="64" on="1"/>
        <pt x="133" y="584" on="1"/>
        <pt x="52" y="600" on="1"/>
        <pt x="52" y="648" on="1"/>
        <pt x="318" y="648" on="1"/>
        <pt x="318" y="600" on="1"/>
        <pt x="237" y="584" on="1"/>
        <pt x="237" y="64" on="1"/>
        <pt x="318" y="48" on="1"/>
        <pt x="318" y="0" on="1"/>
        <pt x="52" y="0" on="1"/>
        <pt x="52" y="48" on="1"/>
      </contour>
    </TTGlyph>
    <TTGlyph name="Idieresis" xMin="15" yMin="0" xMax="355" yMax="820">
      <contour>
        <pt x="47" y="694" on="0"/>
        <pt x="15" y="728" on="0"/>
        <pt x="15" y="755" on="1"/>
        <pt x="15" y="782" on="0"/>
        <pt x="50" y="820" on="0"/>
        <pt x="77" y="820" on="1"/>
        <pt x="103" y="820" on="0"/>
        <pt x="134" y="788" on="0"/>
        <pt x="134" y="761" on="1"/>
        <pt x="134" y="733" on="0"/>
        <pt x="100" y="694" on="0"/>
        <pt x="72" y="694" on="1"/>
      </contour>
      <contour>
        <pt x="268" y="694" on="0"/>
        <pt x="236" y="728" on="0"/>
        <pt x="236" y="755" on="1"/>
        <pt x="236" y="782" on="0"/>
        <pt x="271" y="820" on="0"/>
        <pt x="298" y="820" on="1"/>
        <pt x="324" y="820" on="0"/>
        <pt x="355" y="788" on="0"/>
        <pt x="355" y="761" on="1"/>
        <pt x="355" y="733" on="0"/>
        <pt x="321" y="694" on="0"/>
        <pt x="293" y="694" on="1"/>
      </contour>
      <contour>
        <pt x="52" y="48" on="1"/>
        <pt x="133" y="64" on="1"/>
        <pt x="133" y="584" on="1"/>
        <pt x="52" y="600" on="1"/>
        <pt x="52" y="648" on="1"/>
        <pt x="318" y="648" on="1"/>
        <pt x="318" y="600" on="1"/>
        <pt x="237" y="584" on="1"/>
        <pt x="237" y="64" on="1"/>
        <pt x="318" y="48" on="1"/>
        <pt x="318" y="0" on="1"/>
        <pt x="52" y="0" on="1"/>
      </contour>
    </TTGlyph>
    <TTGlyph name="Idotaccent" xMin="52" yMin="0" xMax="318" yMax="833">
      <contour>
        <pt x="153" y="693" on="0"/>
        <pt x="119" y="731" on="0"/>
        <pt x="119" y="760" on="1"/>
        <pt x="119" y="790" on="0"/>
        <pt x="158" y="833" on="0"/>
        <pt x="187" y="833" on="1"/>
        <pt x="215" y="833" on="0"/>
        <pt x="250" y="797" on="0"/>
        <pt x="250" y="767" on="1"/>
        <pt x="250" y="736" on="0"/>
        <pt x="212" y="693" on="0"/>
        <pt x="181" y="693" on="1"/>
      </contour>
      <contour>
        <pt x="133" y="64" on="1"/>
        <pt x="133" y="584" on="1"/>
        <pt x="52" y="600" on="1"/>
        <pt x="52" y="648" on="1"/>
        <pt x="318" y="648" on="1"/>
        <pt x="318" y="600" on="1"/>
        <pt x="237" y="584" on="1"/>
        <pt x="237" y="64" on="1"/>
        <pt x="318" y="48" on="1"/>
        <pt x="318" y="0" on="1"/>
        <pt x="52" y="0" on="1"/>
        <pt x="52" y="48" on="1"/>
      </contour>
    </TTGlyph>
    <TTGlyph name="Igrave" xMin="52" yMin="0" xMax="318" yMax="838">
      <contour>
        <pt x="69" y="795" on="0"/>
        <pt x="94" y="838" on="0"/>
        <pt x="114" y="838" on="1"/>
        <pt x="122" y="838" on="0"/>
        <pt x="143" y="827" on="0"/>
        <pt x="156" y="818" on="0"/>
        <pt x="159" y="816" on="1"/>
        <pt x="294" y="718" on="1"/>
        <pt x="271" y="678" on="1"/>
        <pt x="70" y="759" on="1"/>
      </contour>
      <contour>
        <pt x="133" y="64" on="1"/>
        <pt x="133" y="584" on="1"/>
        <pt x="52" y="600" on="1"/>
        <pt x="52" y="648" on="1"/>
        <pt x="318" y="648" on="1"/>
        <pt x="318" y="600" on="1"/>
        <pt x="237" y="584" on="1"/>
        <pt x="237" y="64" on="1"/>
        <pt x="318" y="48" on="1"/>
        <pt x="318" y="0" on="1"/>
        <pt x="52" y="0" on="1"/>
        <pt x="52" y="48" on="1"/>
      </contour>
    </TTGlyph>
    <TTGlyph name="Imacron" xMin="25" yMin="0" xMax="344" yMax="793">
      <contour>
        <pt x="36" y="793" on="1"/>
        <pt x="344" y="793" on="1"/>
        <pt x="333" y="728" on="1"/>
        <pt x="25" y="728" on="1"/>
      </contour>
      <contour>
        <pt x="52" y="48" on="1"/>
        <pt x="133" y="64" on="1"/>
        <pt x="133" y="584" on="1"/>
        <pt x="52" y="600" on="1"/>
        <pt x="52" y="648" on="1"/>
        <pt x="318" y="648" on="1"/>
        <pt x="318" y="600" on="1"/>
        <pt x="237" y="584" on="1"/>
        <pt x="237" y="64" on="1"/>
        <pt x="318" y="48" on="1"/>
        <pt x="318" y="0" on="1"/>
        <pt x="52" y="0" on="1"/>
      </contour>
    </TTGlyph>
    <TTGlyph name="Iogonek" xMin="52" yMin="-187" xMax="340" yMax="648">
      <contour>
        <pt x="133" y="64" on="1"/>
        <pt x="133" y="584" on="1"/>
        <pt x="52" y="600" on="1"/>
        <pt x="52" y="648" on="1"/>
        <pt x="318" y="648" on="1"/>
        <pt x="318" y="600" on="1"/>
        <pt x="237" y="584" on="1"/>
        <pt x="237" y="64" on="1"/>
        <pt x="318" y="48" on="1"/>
        <pt x="318" y="0" on="1"/>
        <pt x="278" y="0" on="1"/>
        <pt x="224" y="-44" on="0"/>
        <pt x="224" y="-82" on="1"/>
        <pt x="224" y="-123" on="0"/>
        <pt x="265" y="-123" on="1"/>
        <pt x="285" y="-123" on="0"/>
        <pt x="320" y="-103" on="1"/>
        <pt x="340" y="-136" on="1"/>
        <pt x="340" y="-137" on="0"/>
        <pt x="309" y="-164" on="0"/>
        <pt x="264" y="-187" on="0"/>
        <pt x="237" y="-187" on="1"/>
        <pt x="198" y="-187" on="0"/>
        <pt x="150" y="-149" on="0"/>
        <pt x="150" y="-113" on="1"/>
        <pt x="150" y="-77" on="0"/>
        <pt x="192" y="-20" on="0"/>
        <pt x="225" y="0" on="1"/>
        <pt x="52" y="0" on="1"/>
        <pt x="52" y="48" on="1"/>
      </contour>
    </TTGlyph>
    <TTGlyph name="Itilde" xMin="4" yMin="0" xMax="366" yMax="817">
      <component glyphName=".ttfautohint" x="4" y="0" flags="0x0"/>
      <component glyphName="I" x="0" y="0" flags="0x0"/>
      <component glyphName="tildecomb.case" x="366" y="0" flags="0x0"/>
    </TTGlyph>
    <TTGlyph name="J" xMin="7" yMin="-15" xMax="371" yMax="648">
      <contour>
        <pt x="62" y="168" on="1"/>
        <pt x="90" y="55" on="1"/>
        <pt x="93" y="53" on="0"/>
        <pt x="119" y="45" on="0"/>
        <pt x="135" y="45" on="1"/>
        <pt x="193" y="45" on="0"/>
        <pt x="193" y="105" on="1"/>
        <pt x="193" y="583" on="1"/>
        <pt x="102" y="600" on="1"/>
        <pt x="102" y="648" on="1"/>
        <pt x="371" y="648" on="1"/>
        <pt x="371" y="600" on="1"/>
        <pt x="296" y="584" on="1"/>
        <pt x="296" y="114" on="1"/>
        <pt x="296" y="49" on="0"/>
        <pt x="220" y="-15" on="0"/>
        <pt x="138" y="-15" on="1"/>
        <pt x="92" y="-15" on="0"/>
        <pt x="18" y="6" on="0"/>
        <pt x="7" y="14" on="1"/>
        <pt x="7" y="168" on="1"/>
      </contour>
    </TTGlyph>
    <TTGlyph name="Jcircumflex" xMin="7" yMin="-15" xMax="404" yMax="837">
      <component glyphName=".ttfautohint" x="7" y="0" flags="0x0"/>
      <component glyphName="J" x="0" y="0" flags="0x0"/>
      <component glyphName="uni0302.case" x="404" y="0" flags="0x0"/>
    </TTGlyph>
    <TTGlyph name="K" xMin="49" yMin="0" xMax="620" yMax="648">
      <contour>
        <pt x="131" y="64" on="1"/>
        <pt x="131" y="584" on="1"/>
        <pt x="49" y="600" on="1"/>
        <pt x="49" y="648" on="1"/>
        <pt x="316" y="648" on="1"/>
        <pt x="316" y="600" on="1"/>
        <pt x="234" y="584" on="1"/>
        <pt x="234" y="358" on="1"/>
        <pt x="260" y="358" on="1"/>
        <pt x="439" y="576" on="1"/>
        <pt x="439" y="589" on="1"/>
        <pt x="384" y="601" on="1"/>
        <pt x="384" y="648" on="1"/>
        <pt x="597" y="648" on="1"/>
        <pt x="597" y="600" on="1"/>
        <pt x="536" y="586" on="1"/>
        <pt x="346" y="357" on="1"/>
        <pt x="551" y="65" on="1"/>
        <pt x="620" y="48" on="1"/>
        <pt x="620" y="0" on="1"/>
        <pt x="509" y="0" on="1"/>
        <pt x="485" y="0" on="0"/>
        <pt x="459" y="14" on="0"/>
        <pt x="446" y="34" on="1"/>
        <pt x="261" y="306" on="1"/>
        <pt x="234" y="306" on="1"/>
        <pt x="234" y="64" on="1"/>
        <pt x="316" y="48" on="1"/>
        <pt x="316" y="0" on="1"/>
        <pt x="49" y="0" on="1"/>
        <pt x="49" y="48" on="1"/>
      </contour>
    </TTGlyph>
    <TTGlyph name="Kcommaaccent" xMin="49" yMin="-197" xMax="620" yMax="648">
      <contour>
        <pt x="49" y="48" on="1"/>
        <pt x="131" y="64" on="1"/>
        <pt x="131" y="584" on="1"/>
        <pt x="49" y="600" on="1"/>
        <pt x="49" y="648" on="1"/>
        <pt x="316" y="648" on="1"/>
        <pt x="316" y="600" on="1"/>
        <pt x="234" y="584" on="1"/>
        <pt x="234" y="358" on="1"/>
        <pt x="260" y="358" on="1"/>
        <pt x="439" y="576" on="1"/>
        <pt x="439" y="589" on="1"/>
        <pt x="384" y="601" on="1"/>
        <pt x="384" y="648" on="1"/>
        <pt x="597" y="648" on="1"/>
        <pt x="597" y="600" on="1"/>
        <pt x="536" y="586" on="1"/>
        <pt x="346" y="357" on="1"/>
        <pt x="551" y="65" on="1"/>
        <pt x="620" y="48" on="1"/>
        <pt x="620" y="0" on="1"/>
        <pt x="509" y="0" on="1"/>
        <pt x="485" y="0" on="0"/>
        <pt x="459" y="14" on="0"/>
        <pt x="446" y="34" on="1"/>
        <pt x="261" y="306" on="1"/>
        <pt x="234" y="306" on="1"/>
        <pt x="234" y="64" on="1"/>
        <pt x="316" y="48" on="1"/>
        <pt x="316" y="0" on="1"/>
        <pt x="49" y="0" on="1"/>
      </contour>
      <contour>
        <pt x="318" y="-147" on="0"/>
        <pt x="318" y="-111" on="1"/>
        <pt x="318" y="-74" on="0"/>
        <pt x="294" y="-52" on="1"/>
        <pt x="316" y="-27" on="0"/>
        <pt x="343" y="-27" on="1"/>
        <pt x="369" y="-27" on="0"/>
        <pt x="395" y="-60" on="0"/>
        <pt x="395" y="-82" on="1"/>
        <pt x="395" y="-112" on="0"/>
        <pt x="369" y="-162" on="0"/>
        <pt x="337" y="-197" on="0"/>
        <pt x="337" y="-195" on="1"/>
        <pt x="302" y="-195" on="1"/>
      </contour>
    </TTGlyph>
    <TTGlyph name="L" xMin="49" yMin="0" xMax="510" yMax="648">
      <contour>
        <pt x="131" y="65" on="1"/>
        <pt x="131" y="584" on="1"/>
        <pt x="49" y="601" on="1"/>
        <pt x="49" y="648" on="1"/>
        <pt x="322" y="648" on="1"/>
        <pt x="322" y="598" on="1"/>
        <pt x="234" y="582" on="1"/>
        <pt x="234" y="69" on="1"/>
        <pt x="318" y="61" on="1"/>
        <pt x="432" y="61" on="1"/>
        <pt x="456" y="170" on="1"/>
        <pt x="510" y="170" on="1"/>
        <pt x="510" y="0" on="1"/>
        <pt x="49" y="0" on="1"/>
        <pt x="49" y="47" on="1"/>
      </contour>
    </TTGlyph>
    <TTGlyph name="Lacute" xMin="49" yMin="0" xMax="510" yMax="838">
      <contour>
        <pt x="118" y="718" on="1"/>
        <pt x="253" y="816" on="1"/>
        <pt x="265" y="824" on="0"/>
        <pt x="290" y="838" on="0"/>
        <pt x="298" y="838" on="1"/>
        <pt x="319" y="838" on="0"/>
        <pt x="343" y="795" on="0"/>
        <pt x="342" y="759" on="1"/>
        <pt x="141" y="678" on="1"/>
      </contour>
      <contour>
        <pt x="49" y="47" on="1"/>
        <pt x="131" y="65" on="1"/>
        <pt x="131" y="584" on="1"/>
        <pt x="49" y="601" on="1"/>
        <pt x="49" y="648" on="1"/>
        <pt x="322" y="648" on="1"/>
        <pt x="322" y="598" on="1"/>
        <pt x="234" y="582" on="1"/>
        <pt x="234" y="69" on="1"/>
        <pt x="318" y="61" on="1"/>
        <pt x="432" y="61" on="1"/>
        <pt x="456" y="170" on="1"/>
        <pt x="510" y="170" on="1"/>
        <pt x="510" y="0" on="1"/>
        <pt x="49" y="0" on="1"/>
      </contour>
    </TTGlyph>
    <TTGlyph name="Lcaron" xMin="52" yMin="0" xMax="512" yMax="662">
      <contour>
        <pt x="395" y="503" on="0"/>
        <pt x="404" y="558" on="0"/>
        <pt x="404" y="580" on="1"/>
        <pt x="404" y="613" on="0"/>
        <pt x="382" y="639" on="1"/>
        <pt x="399" y="662" on="0"/>
        <pt x="429" y="662" on="1"/>
        <pt x="455" y="662" on="0"/>
        <pt x="482" y="630" on="0"/>
        <pt x="482" y="607" on="1"/>
        <pt x="482" y="584" on="0"/>
        <pt x="456" y="528" on="0"/>
        <pt x="428" y="487" on="0"/>
        <pt x="424" y="481" on="1"/>
        <pt x="388" y="481" on="1"/>
      </contour>
      <contour>
        <pt x="52" y="47" on="1"/>
        <pt x="134" y="65" on="1"/>
        <pt x="134" y="584" on="1"/>
        <pt x="52" y="601" on="1"/>
        <pt x="52" y="648" on="1"/>
        <pt x="324" y="648" on="1"/>
        <pt x="324" y="598" on="1"/>
        <pt x="237" y="582" on="1"/>
        <pt x="237" y="69" on="1"/>
        <pt x="321" y="61" on="1"/>
        <pt x="435" y="61" on="1"/>
        <pt x="458" y="170" on="1"/>
        <pt x="512" y="170" on="1"/>
        <pt x="512" y="0" on="1"/>
        <pt x="52" y="0" on="1"/>
      </contour>
    </TTGlyph>
    <TTGlyph name="Lcommaaccent" xMin="52" yMin="-197" xMax="512" yMax="648">
      <contour>
        <pt x="52" y="47" on="1"/>
        <pt x="134" y="65" on="1"/>
        <pt x="134" y="584" on="1"/>
        <pt x="52" y="601" on="1"/>
        <pt x="52" y="648" on="1"/>
        <pt x="324" y="648" on="1"/>
        <pt x="324" y="598" on="1"/>
        <pt x="237" y="582" on="1"/>
        <pt x="237" y="69" on="1"/>
        <pt x="321" y="61" on="1"/>
        <pt x="435" y="61" on="1"/>
        <pt x="458" y="170" on="1"/>
        <pt x="512" y="170" on="1"/>
        <pt x="512" y="0" on="1"/>
        <pt x="52" y="0" on="1"/>
      </contour>
      <contour>
        <pt x="269" y="-147" on="0"/>
        <pt x="269" y="-111" on="1"/>
        <pt x="269" y="-74" on="0"/>
        <pt x="245" y="-52" on="1"/>
        <pt x="267" y="-27" on="0"/>
        <pt x="293" y="-27" on="1"/>
        <pt x="319" y="-27" on="0"/>
        <pt x="345" y="-60" on="0"/>
        <pt x="345" y="-82" on="1"/>
        <pt x="345" y="-112" on="0"/>
        <pt x="320" y="-162" on="0"/>
        <pt x="288" y="-197" on="0"/>
        <pt x="288" y="-195" on="1"/>
        <pt x="253" y="-195" on="1"/>
      </contour>
    </TTGlyph>
    <TTGlyph name="Ldot" xMin="49" yMin="0" xMax="510" yMax="648">
      <component glyphName=".ttfautohint" x="49" y="0" flags="0x0"/>
      <component glyphName="L" x="0" y="0" flags="0x0"/>
      <component glyphName="periodcentered" x="284" y="101" flags="0x4"/>
    </TTGlyph>
    <TTGlyph name="Lslash" xMin="49" yMin="0" xMax="510" yMax="648">
      <contour>
        <pt x="131" y="65" on="1"/>
        <pt x="131" y="276" on="1"/>
        <pt x="60" y="251" on="1"/>
        <pt x="60" y="311" on="1"/>
        <pt x="131" y="336" on="1"/>
        <pt x="131" y="584" on="1"/>
        <pt x="49" y="601" on="1"/>
        <pt x="49" y="648" on="1"/>
        <pt x="322" y="648" on="1"/>
        <pt x="322" y="598" on="1"/>
        <pt x="234" y="582" on="1"/>
        <pt x="234" y="374" on="1"/>
        <pt x="355" y="419" on="1"/>
        <pt x="355" y="355" on="1"/>
        <pt x="234" y="312" on="1"/>
        <pt x="234" y="69" on="1"/>
        <pt x="318" y="61" on="1"/>
        <pt x="432" y="61" on="1"/>
        <pt x="456" y="170" on="1"/>
        <pt x="510" y="170" on="1"/>
        <pt x="510" y="0" on="1"/>
        <pt x="49" y="0" on="1"/>
        <pt x="49" y="47" on="1"/>
      </contour>
    </TTGlyph>
    <TTGlyph name="M" xMin="48" yMin="0" xMax="831" yMax="648">
      <contour>
        <pt x="48" y="46" on="1"/>
        <pt x="123" y="63" on="1"/>
        <pt x="123" y="587" on="1"/>
        <pt x="59" y="599" on="1"/>
        <pt x="59" y="648" on="1"/>
        <pt x="275" y="648" on="1"/>
        <pt x="426" y="187" on="1"/>
        <pt x="438" y="138" on="1"/>
        <pt x="450" y="187" on="1"/>
        <pt x="600" y="648" on="1"/>
        <pt x="827" y="648" on="1"/>
        <pt x="827" y="599" on="1"/>
        <pt x="749" y="585" on="1"/>
        <pt x="749" y="64" on="1"/>
        <pt x="831" y="48" on="1"/>
        <pt x="831" y="0" on="1"/>
        <pt x="564" y="0" on="1"/>
        <pt x="564" y="48" on="1"/>
        <pt x="646" y="64" on="1"/>
        <pt x="646" y="544" on="1"/>
        <pt x="634" y="544" on="1"/>
        <pt x="627" y="520" on="1"/>
        <pt x="455" y="0" on="1"/>
        <pt x="385" y="0" on="1"/>
        <pt x="205" y="544" on="1"/>
        <pt x="195" y="544" on="1"/>
        <pt x="196" y="518" on="1"/>
        <pt x="196" y="63" on="1"/>
        <pt x="271" y="46" on="1"/>
        <pt x="271" y="0" on="1"/>
        <pt x="48" y="0" on="1"/>
      </contour>
    </TTGlyph>
    <TTGlyph name="N" xMin="49" yMin="0" xMax="689" yMax="648">
      <contour>
        <pt x="49" y="46" on="1"/>
        <pt x="122" y="63" on="1"/>
        <pt x="122" y="585" on="1"/>
        <pt x="57" y="599" on="1"/>
        <pt x="57" y="648" on="1"/>
        <pt x="227" y="648" on="1"/>
        <pt x="526" y="174" on="1"/>
        <pt x="537" y="156" on="1"/>
        <pt x="544" y="156" on="1"/>
        <pt x="544" y="585" on="1"/>
        <pt x="472" y="602" on="1"/>
        <pt x="472" y="648" on="1"/>
        <pt x="689" y="648" on="1"/>
        <pt x="689" y="602" on="1"/>
        <pt x="616" y="585" on="1"/>
        <pt x="616" y="0" on="1"/>
        <pt x="515" y="0" on="1"/>
        <pt x="211" y="478" on="1"/>
        <pt x="201" y="495" on="1"/>
        <pt x="194" y="495" on="1"/>
        <pt x="194" y="63" on="1"/>
        <pt x="267" y="46" on="1"/>
        <pt x="267" y="0" on="1"/>
        <pt x="49" y="0" on="1"/>
      </contour>
    </TTGlyph>
    <TTGlyph name="Nacute" xMin="49" yMin="0" xMax="689" yMax="838">
      <contour>
        <pt x="271" y="718" on="1"/>
        <pt x="406" y="816" on="1"/>
        <pt x="418" y="824" on="0"/>
        <pt x="443" y="838" on="0"/>
        <pt x="451" y="838" on="1"/>
        <pt x="472" y="838" on="0"/>
        <pt x="496" y="795" on="0"/>
        <pt x="495" y="759" on="1"/>
        <pt x="294" y="678" on="1"/>
      </contour>
      <contour>
        <pt x="49" y="46" on="1"/>
        <pt x="122" y="63" on="1"/>
        <pt x="122" y="585" on="1"/>
        <pt x="57" y="599" on="1"/>
        <pt x="57" y="648" on="1"/>
        <pt x="227" y="648" on="1"/>
        <pt x="526" y="176" on="1"/>
        <pt x="537" y="156" on="1"/>
        <pt x="544" y="156" on="1"/>
        <pt x="544" y="585" on="1"/>
        <pt x="472" y="602" on="1"/>
        <pt x="472" y="648" on="1"/>
        <pt x="689" y="648" on="1"/>
        <pt x="689" y="602" on="1"/>
        <pt x="616" y="585" on="1"/>
        <pt x="616" y="0" on="1"/>
        <pt x="515" y="0" on="1"/>
        <pt x="210" y="479" on="1"/>
        <pt x="201" y="495" on="1"/>
        <pt x="194" y="495" on="1"/>
        <pt x="194" y="63" on="1"/>
        <pt x="267" y="46" on="1"/>
        <pt x="267" y="0" on="1"/>
        <pt x="49" y="0" on="1"/>
      </contour>
    </TTGlyph>
    <TTGlyph name="Nacute.loclPLK" xMin="49" yMin="0" xMax="689" yMax="865">
      <contour>
        <pt x="335" y="698" on="1"/>
        <pt x="406" y="824" on="1"/>
        <pt x="409" y="828" on="0"/>
        <pt x="426" y="853" on="0"/>
        <pt x="442" y="865" on="0"/>
        <pt x="451" y="865" on="1"/>
        <pt x="486" y="865" on="0"/>
        <pt x="511" y="808" on="1"/>
        <pt x="376" y="666" on="1"/>
      </contour>
      <contour>
        <pt x="49" y="46" on="1"/>
        <pt x="122" y="63" on="1"/>
        <pt x="122" y="585" on="1"/>
        <pt x="57" y="599" on="1"/>
        <pt x="57" y="648" on="1"/>
        <pt x="227" y="648" on="1"/>
        <pt x="526" y="174" on="1"/>
        <pt x="537" y="156" on="1"/>
        <pt x="544" y="156" on="1"/>
        <pt x="544" y="585" on="1"/>
        <pt x="472" y="602" on="1"/>
        <pt x="472" y="648" on="1"/>
        <pt x="689" y="648" on="1"/>
        <pt x="689" y="602" on="1"/>
        <pt x="616" y="585" on="1"/>
        <pt x="616" y="0" on="1"/>
        <pt x="515" y="0" on="1"/>
        <pt x="211" y="478" on="1"/>
        <pt x="201" y="495" on="1"/>
        <pt x="194" y="495" on="1"/>
        <pt x="194" y="63" on="1"/>
        <pt x="267" y="46" on="1"/>
        <pt x="267" y="0" on="1"/>
        <pt x="49" y="0" on="1"/>
      </contour>
    </TTGlyph>
    <TTGlyph name="Ncaron" xMin="49" yMin="0" xMax="689" yMax="845">
      <contour>
        <pt x="358" y="682" on="0"/>
        <pt x="333" y="700" on="0"/>
        <pt x="301" y="728" on="0"/>
        <pt x="295" y="733" on="1"/>
        <pt x="216" y="802" on="1"/>
        <pt x="252" y="845" on="1"/>
        <pt x="372" y="777" on="1"/>
        <pt x="495" y="844" on="1"/>
        <pt x="522" y="806" on="1"/>
        <pt x="437" y="733" on="1"/>
        <pt x="400" y="701" on="0"/>
        <pt x="376" y="682" on="0"/>
        <pt x="367" y="682" on="1"/>
      </contour>
      <contour>
        <pt x="49" y="46" on="1"/>
        <pt x="122" y="63" on="1"/>
        <pt x="122" y="585" on="1"/>
        <pt x="57" y="599" on="1"/>
        <pt x="57" y="648" on="1"/>
        <pt x="227" y="648" on="1"/>
        <pt x="526" y="176" on="1"/>
        <pt x="537" y="156" on="1"/>
        <pt x="544" y="156" on="1"/>
        <pt x="544" y="585" on="1"/>
        <pt x="472" y="602" on="1"/>
        <pt x="472" y="648" on="1"/>
        <pt x="689" y="648" on="1"/>
        <pt x="689" y="602" on="1"/>
        <pt x="616" y="585" on="1"/>
        <pt x="616" y="0" on="1"/>
        <pt x="515" y="0" on="1"/>
        <pt x="209" y="480" on="1"/>
        <pt x="201" y="495" on="1"/>
        <pt x="194" y="495" on="1"/>
        <pt x="194" y="63" on="1"/>
        <pt x="267" y="46" on="1"/>
        <pt x="267" y="0" on="1"/>
        <pt x="49" y="0" on="1"/>
      </contour>
    </TTGlyph>
    <TTGlyph name="Ncommaaccent" xMin="49" yMin="-197" xMax="689" yMax="648">
      <contour>
        <pt x="49" y="46" on="1"/>
        <pt x="122" y="63" on="1"/>
        <pt x="122" y="585" on="1"/>
        <pt x="57" y="599" on="1"/>
        <pt x="57" y="648" on="1"/>
        <pt x="227" y="648" on="1"/>
        <pt x="526" y="175" on="1"/>
        <pt x="537" y="156" on="1"/>
        <pt x="544" y="156" on="1"/>
        <pt x="544" y="585" on="1"/>
        <pt x="472" y="602" on="1"/>
        <pt x="472" y="648" on="1"/>
        <pt x="689" y="648" on="1"/>
        <pt x="689" y="602" on="1"/>
        <pt x="616" y="585" on="1"/>
        <pt x="616" y="0" on="1"/>
        <pt x="515" y="0" on="1"/>
        <pt x="209" y="480" on="1"/>
        <pt x="201" y="495" on="1"/>
        <pt x="194" y="495" on="1"/>
        <pt x="194" y="63" on="1"/>
        <pt x="267" y="46" on="1"/>
        <pt x="267" y="0" on="1"/>
        <pt x="49" y="0" on="1"/>
      </contour>
      <contour>
        <pt x="347" y="-147" on="0"/>
        <pt x="347" y="-111" on="1"/>
        <pt x="347" y="-74" on="0"/>
        <pt x="323" y="-52" on="1"/>
        <pt x="345" y="-27" on="0"/>
        <pt x="371" y="-27" on="1"/>
        <pt x="397" y="-27" on="0"/>
        <pt x="423" y="-60" on="0"/>
        <pt x="423" y="-82" on="1"/>
        <pt x="423" y="-112" on="0"/>
        <pt x="398" y="-162" on="0"/>
        <pt x="366" y="-197" on="0"/>
        <pt x="366" y="-195" on="1"/>
        <pt x="331" y="-195" on="1"/>
      </contour>
    </TTGlyph>
    <TTGlyph name="Ntilde" xMin="49" yMin="0" xMax="689" yMax="817">
      <contour>
        <pt x="421" y="699" on="0"/>
        <pt x="382" y="712" on="1"/>
        <pt x="296" y="740" on="1"/>
        <pt x="219" y="703" on="1"/>
        <pt x="191" y="732" on="1"/>
        <pt x="228" y="782" on="1"/>
        <pt x="241" y="802" on="0"/>
        <pt x="275" y="817" on="0"/>
        <pt x="296" y="817" on="1"/>
        <pt x="322" y="817" on="0"/>
        <pt x="363" y="804" on="1"/>
        <pt x="448" y="776" on="1"/>
        <pt x="525" y="813" on="1"/>
        <pt x="553" y="784" on="1"/>
        <pt x="517" y="734" on="1"/>
        <pt x="503" y="714" on="0"/>
        <pt x="469" y="699" on="0"/>
        <pt x="448" y="699" on="1"/>
      </contour>
      <contour>
        <pt x="49" y="46" on="1"/>
        <pt x="122" y="63" on="1"/>
        <pt x="122" y="585" on="1"/>
        <pt x="57" y="599" on="1"/>
        <pt x="57" y="648" on="1"/>
        <pt x="227" y="648" on="1"/>
        <pt x="526" y="176" on="1"/>
        <pt x="537" y="156" on="1"/>
        <pt x="544" y="156" on="1"/>
        <pt x="544" y="585" on="1"/>
        <pt x="472" y="602" on="1"/>
        <pt x="472" y="648" on="1"/>
        <pt x="689" y="648" on="1"/>
        <pt x="689" y="602" on="1"/>
        <pt x="616" y="585" on="1"/>
        <pt x="616" y="0" on="1"/>
        <pt x="515" y="0" on="1"/>
        <pt x="208" y="482" on="1"/>
        <pt x="201" y="495" on="1"/>
        <pt x="194" y="495" on="1"/>
        <pt x="194" y="63" on="1"/>
        <pt x="267" y="46" on="1"/>
        <pt x="267" y="0" on="1"/>
        <pt x="49" y="0" on="1"/>
      </contour>
    </TTGlyph>
    <TTGlyph name="O" xMin="42" yMin="-15" xMax="657" yMax="662">
      <contour>
        <pt x="197" y="-15" on="0"/>
        <pt x="42" y="157" on="0"/>
        <pt x="42" y="313" on="1"/>
        <pt x="42" y="412" on="0"/>
        <pt x="119" y="571" on="0"/>
        <pt x="266" y="662" on="0"/>
        <pt x="366" y="662" on="1"/>
        <pt x="504" y="662" on="0"/>
        <pt x="657" y="489" on="0"/>
        <pt x="657" y="337" on="1"/>
        <pt x="657" y="235" on="0"/>
        <pt x="588" y="76" on="0"/>
        <pt x="447" y="-15" on="0"/>
        <pt x="343" y="-15" on="1"/>
      </contour>
      <contour>
        <pt x="454" y="50" on="0"/>
        <pt x="537" y="181" on="0"/>
        <pt x="537" y="316" on="1"/>
        <pt x="537" y="424" on="0"/>
        <pt x="493" y="547" on="0"/>
        <pt x="412" y="595" on="0"/>
        <pt x="351" y="595" on="1"/>
        <pt x="289" y="595" on="0"/>
        <pt x="209" y="555" on="0"/>
        <pt x="162" y="438" on="0"/>
        <pt x="162" y="325" on="1"/>
        <pt x="162" y="178" on="0"/>
        <pt x="261" y="50" on="0"/>
        <pt x="363" y="50" on="1"/>
      </contour>
    </TTGlyph>
    <TTGlyph name="OE" xMin="42" yMin="0" xMax="853" yMax="648">
      <contour>
        <pt x="42" y="0" on="0"/>
        <pt x="42" y="313" on="1"/>
        <pt x="42" y="411" on="0"/>
        <pt x="121" y="563" on="0"/>
        <pt x="270" y="648" on="0"/>
        <pt x="371" y="648" on="1"/>
        <pt x="844" y="648" on="1"/>
        <pt x="844" y="477" on="1"/>
        <pt x="790" y="477" on="1"/>
        <pt x="767" y="587" on="1"/>
        <pt x="641" y="587" on="1"/>
        <pt x="559" y="580" on="1"/>
        <pt x="559" y="360" on="1"/>
        <pt x="700" y="360" on="1"/>
        <pt x="717" y="422" on="1"/>
        <pt x="763" y="422" on="1"/>
        <pt x="763" y="236" on="1"/>
        <pt x="717" y="236" on="1"/>
        <pt x="700" y="301" on="1"/>
        <pt x="559" y="301" on="1"/>
        <pt x="559" y="70" on="1"/>
        <pt x="601" y="63" on="0"/>
        <pt x="653" y="63" on="1"/>
        <pt x="775" y="63" on="1"/>
        <pt x="799" y="174" on="1"/>
        <pt x="853" y="174" on="1"/>
        <pt x="853" y="0" on="1"/>
        <pt x="356" y="0" on="1"/>
      </contour>
      <contour>
        <pt x="425" y="59" on="0"/>
        <pt x="456" y="75" on="1"/>
        <pt x="456" y="572" on="1"/>
        <pt x="423" y="586" on="0"/>
        <pt x="368" y="586" on="1"/>
        <pt x="307" y="586" on="0"/>
        <pt x="218" y="548" on="0"/>
        <pt x="162" y="433" on="0"/>
        <pt x="162" y="325" on="1"/>
        <pt x="162" y="183" on="0"/>
        <pt x="265" y="59" on="0"/>
        <pt x="369" y="59" on="1"/>
      </contour>
    </TTGlyph>
    <TTGlyph name="Oacute" xMin="42" yMin="-15" xMax="657" yMax="838">
      <contour>
        <pt x="246" y="718" on="1"/>
        <pt x="381" y="816" on="1"/>
        <pt x="393" y="824" on="0"/>
        <pt x="418" y="838" on="0"/>
        <pt x="426" y="838" on="1"/>
        <pt x="447" y="838" on="0"/>
        <pt x="471" y="794" on="0"/>
        <pt x="470" y="759" on="1"/>
        <pt x="269" y="678" on="1"/>
      </contour>
      <contour>
        <pt x="197" y="-15" on="0"/>
        <pt x="42" y="157" on="0"/>
        <pt x="42" y="313" on="1"/>
        <pt x="42" y="412" on="0"/>
        <pt x="119" y="571" on="0"/>
        <pt x="266" y="662" on="0"/>
        <pt x="366" y="662" on="1"/>
        <pt x="504" y="662" on="0"/>
        <pt x="657" y="489" on="0"/>
        <pt x="657" y="337" on="1"/>
        <pt x="657" y="235" on="0"/>
        <pt x="588" y="76" on="0"/>
        <pt x="447" y="-15" on="0"/>
        <pt x="343" y="-15" on="1"/>
      </contour>
      <contour>
        <pt x="454" y="50" on="0"/>
        <pt x="537" y="181" on="0"/>
        <pt x="537" y="316" on="1"/>
        <pt x="537" y="424" on="0"/>
        <pt x="493" y="547" on="0"/>
        <pt x="412" y="595" on="0"/>
        <pt x="351" y="595" on="1"/>
        <pt x="289" y="595" on="0"/>
        <pt x="209" y="555" on="0"/>
        <pt x="162" y="438" on="0"/>
        <pt x="162" y="325" on="1"/>
        <pt x="162" y="178" on="0"/>
        <pt x="261" y="50" on="0"/>
        <pt x="363" y="50" on="1"/>
      </contour>
    </TTGlyph>
    <TTGlyph name="Oacute.loclPLK" xMin="42" yMin="-15" xMax="657" yMax="865">
      <contour>
        <pt x="321" y="698" on="1"/>
        <pt x="392" y="824" on="1"/>
        <pt x="395" y="828" on="0"/>
        <pt x="412" y="853" on="0"/>
        <pt x="428" y="865" on="0"/>
        <pt x="437" y="865" on="1"/>
        <pt x="472" y="865" on="0"/>
        <pt x="497" y="808" on="1"/>
        <pt x="362" y="666" on="1"/>
      </contour>
      <contour>
        <pt x="197" y="-15" on="0"/>
        <pt x="42" y="157" on="0"/>
        <pt x="42" y="313" on="1"/>
        <pt x="42" y="412" on="0"/>
        <pt x="119" y="571" on="0"/>
        <pt x="266" y="662" on="0"/>
        <pt x="366" y="662" on="1"/>
        <pt x="504" y="662" on="0"/>
        <pt x="657" y="489" on="0"/>
        <pt x="657" y="337" on="1"/>
        <pt x="657" y="235" on="0"/>
        <pt x="588" y="76" on="0"/>
        <pt x="447" y="-15" on="0"/>
        <pt x="343" y="-15" on="1"/>
      </contour>
      <contour>
        <pt x="454" y="50" on="0"/>
        <pt x="537" y="181" on="0"/>
        <pt x="537" y="316" on="1"/>
        <pt x="537" y="424" on="0"/>
        <pt x="493" y="547" on="0"/>
        <pt x="412" y="595" on="0"/>
        <pt x="351" y="595" on="1"/>
        <pt x="289" y="595" on="0"/>
        <pt x="209" y="555" on="0"/>
        <pt x="162" y="438" on="0"/>
        <pt x="162" y="325" on="1"/>
        <pt x="162" y="178" on="0"/>
        <pt x="261" y="50" on="0"/>
        <pt x="363" y="50" on="1"/>
      </contour>
    </TTGlyph>
    <TTGlyph name="Obreve" xMin="42" yMin="-15" xMax="657" yMax="830">
      <component glyphName=".ttfautohint" x="42" y="0" flags="0x0"/>
      <component glyphName="O" x="0" y="0" flags="0x0"/>
      <component glyphName="uni0306.case" x="502" y="0" flags="0x0"/>
    </TTGlyph>
    <TTGlyph name="Ocircumflex" xMin="42" yMin="-15" xMax="657" yMax="837">
      <contour>
        <pt x="284" y="790" on="1"/>
        <pt x="321" y="820" on="0"/>
        <pt x="345" y="837" on="0"/>
        <pt x="353" y="837" on="1"/>
        <pt x="362" y="837" on="0"/>
        <pt x="385" y="822" on="0"/>
        <pt x="404" y="805" on="1"/>
        <pt x="422" y="790" on="1"/>
        <pt x="510" y="720" on="1"/>
        <pt x="478" y="676" on="1"/>
        <pt x="348" y="740" on="1"/>
        <pt x="217" y="677" on="1"/>
        <pt x="192" y="715" on="1"/>
      </contour>
      <contour>
        <pt x="197" y="-15" on="0"/>
        <pt x="42" y="157" on="0"/>
        <pt x="42" y="313" on="1"/>
        <pt x="42" y="412" on="0"/>
        <pt x="119" y="571" on="0"/>
        <pt x="266" y="662" on="0"/>
        <pt x="366" y="662" on="1"/>
        <pt x="504" y="662" on="0"/>
        <pt x="657" y="489" on="0"/>
        <pt x="657" y="337" on="1"/>
        <pt x="657" y="235" on="0"/>
        <pt x="588" y="76" on="0"/>
        <pt x="447" y="-15" on="0"/>
        <pt x="343" y="-15" on="1"/>
      </contour>
      <contour>
        <pt x="454" y="50" on="0"/>
        <pt x="537" y="181" on="0"/>
        <pt x="537" y="316" on="1"/>
        <pt x="537" y="424" on="0"/>
        <pt x="493" y="547" on="0"/>
        <pt x="412" y="595" on="0"/>
        <pt x="351" y="595" on="1"/>
        <pt x="289" y="595" on="0"/>
        <pt x="209" y="555" on="0"/>
        <pt x="162" y="438" on="0"/>
        <pt x="162" y="325" on="1"/>
        <pt x="162" y="178" on="0"/>
        <pt x="261" y="50" on="0"/>
        <pt x="363" y="50" on="1"/>
      </contour>
    </TTGlyph>
    <TTGlyph name="Odieresis" xMin="42" yMin="-15" xMax="657" yMax="820">
      <contour>
        <pt x="215" y="694" on="0"/>
        <pt x="183" y="728" on="0"/>
        <pt x="183" y="755" on="1"/>
        <pt x="183" y="782" on="0"/>
        <pt x="218" y="820" on="0"/>
        <pt x="245" y="820" on="1"/>
        <pt x="271" y="820" on="0"/>
        <pt x="302" y="788" on="0"/>
        <pt x="302" y="761" on="1"/>
        <pt x="302" y="733" on="0"/>
        <pt x="268" y="694" on="0"/>
        <pt x="240" y="694" on="1"/>
      </contour>
      <contour>
        <pt x="436" y="694" on="0"/>
        <pt x="405" y="728" on="0"/>
        <pt x="405" y="755" on="1"/>
        <pt x="405" y="782" on="0"/>
        <pt x="440" y="820" on="0"/>
        <pt x="466" y="820" on="1"/>
        <pt x="492" y="820" on="0"/>
        <pt x="523" y="788" on="0"/>
        <pt x="523" y="761" on="1"/>
        <pt x="523" y="733" on="0"/>
        <pt x="489" y="694" on="0"/>
        <pt x="461" y="694" on="1"/>
      </contour>
      <contour>
        <pt x="197" y="-15" on="0"/>
        <pt x="42" y="157" on="0"/>
        <pt x="42" y="313" on="1"/>
        <pt x="42" y="412" on="0"/>
        <pt x="119" y="571" on="0"/>
        <pt x="266" y="662" on="0"/>
        <pt x="366" y="662" on="1"/>
        <pt x="504" y="662" on="0"/>
        <pt x="657" y="489" on="0"/>
        <pt x="657" y="337" on="1"/>
        <pt x="657" y="235" on="0"/>
        <pt x="588" y="76" on="0"/>
        <pt x="447" y="-15" on="0"/>
        <pt x="343" y="-15" on="1"/>
      </contour>
      <contour>
        <pt x="454" y="50" on="0"/>
        <pt x="537" y="181" on="0"/>
        <pt x="537" y="316" on="1"/>
        <pt x="537" y="424" on="0"/>
        <pt x="493" y="547" on="0"/>
        <pt x="412" y="595" on="0"/>
        <pt x="351" y="595" on="1"/>
        <pt x="289" y="595" on="0"/>
        <pt x="209" y="555" on="0"/>
        <pt x="162" y="438" on="0"/>
        <pt x="162" y="325" on="1"/>
        <pt x="162" y="178" on="0"/>
        <pt x="261" y="50" on="0"/>
        <pt x="363" y="50" on="1"/>
      </contour>
    </TTGlyph>
    <TTGlyph name="Ograve" xMin="42" yMin="-15" xMax="657" yMax="838">
      <contour>
        <pt x="234" y="759" on="1"/>
        <pt x="233" y="795" on="0"/>
        <pt x="258" y="838" on="0"/>
        <pt x="279" y="838" on="1"/>
        <pt x="287" y="838" on="0"/>
        <pt x="312" y="824" on="0"/>
        <pt x="324" y="816" on="1"/>
        <pt x="458" y="718" on="1"/>
        <pt x="436" y="678" on="1"/>
      </contour>
      <contour>
        <pt x="197" y="-15" on="0"/>
        <pt x="42" y="157" on="0"/>
        <pt x="42" y="313" on="1"/>
        <pt x="42" y="412" on="0"/>
        <pt x="119" y="571" on="0"/>
        <pt x="266" y="662" on="0"/>
        <pt x="366" y="662" on="1"/>
        <pt x="504" y="662" on="0"/>
        <pt x="657" y="489" on="0"/>
        <pt x="657" y="337" on="1"/>
        <pt x="657" y="235" on="0"/>
        <pt x="588" y="76" on="0"/>
        <pt x="447" y="-15" on="0"/>
        <pt x="343" y="-15" on="1"/>
      </contour>
      <contour>
        <pt x="454" y="50" on="0"/>
        <pt x="537" y="181" on="0"/>
        <pt x="537" y="316" on="1"/>
        <pt x="537" y="424" on="0"/>
        <pt x="493" y="547" on="0"/>
        <pt x="412" y="595" on="0"/>
        <pt x="351" y="595" on="1"/>
        <pt x="289" y="595" on="0"/>
        <pt x="209" y="555" on="0"/>
        <pt x="162" y="438" on="0"/>
        <pt x="162" y="325" on="1"/>
        <pt x="162" y="178" on="0"/>
        <pt x="261" y="50" on="0"/>
        <pt x="363" y="50" on="1"/>
      </contour>
    </TTGlyph>
    <TTGlyph name="Ohorn" xMin="42" yMin="-15" xMax="747" yMax="720">
      <contour>
        <pt x="747" y="626" on="0"/>
        <pt x="690" y="549" on="0"/>
        <pt x="625" y="506" on="1"/>
        <pt x="657" y="434" on="0"/>
        <pt x="657" y="337" on="1"/>
        <pt x="657" y="235" on="0"/>
        <pt x="588" y="76" on="0"/>
        <pt x="447" y="-15" on="0"/>
        <pt x="343" y="-15" on="1"/>
        <pt x="197" y="-15" on="0"/>
        <pt x="42" y="157" on="0"/>
        <pt x="42" y="313" on="1"/>
        <pt x="42" y="412" on="0"/>
        <pt x="119" y="571" on="0"/>
        <pt x="266" y="662" on="0"/>
        <pt x="366" y="662" on="1"/>
        <pt x="449" y="662" on="0"/>
        <pt x="573" y="597" on="0"/>
        <pt x="609" y="536" on="1"/>
        <pt x="673" y="585" on="0"/>
        <pt x="673" y="631" on="1"/>
        <pt x="673" y="642" on="0"/>
        <pt x="664" y="656" on="0"/>
        <pt x="654" y="663" on="1"/>
        <pt x="654" y="678" on="1"/>
        <pt x="715" y="720" on="1"/>
        <pt x="730" y="708" on="0"/>
        <pt x="747" y="684" on="0"/>
        <pt x="747" y="658" on="1"/>
      </contour>
      <contour>
        <pt x="454" y="50" on="0"/>
        <pt x="537" y="181" on="0"/>
        <pt x="537" y="316" on="1"/>
        <pt x="537" y="424" on="0"/>
        <pt x="493" y="547" on="0"/>
        <pt x="412" y="595" on="0"/>
        <pt x="351" y="595" on="1"/>
        <pt x="289" y="595" on="0"/>
        <pt x="209" y="555" on="0"/>
        <pt x="162" y="438" on="0"/>
        <pt x="162" y="325" on="1"/>
        <pt x="162" y="178" on="0"/>
        <pt x="261" y="50" on="0"/>
        <pt x="363" y="50" on="1"/>
      </contour>
    </TTGlyph>
    <TTGlyph name="Ohungarumlaut" xMin="42" yMin="-15" xMax="657" yMax="843">
      <contour>
        <pt x="187" y="706" on="1"/>
        <pt x="273" y="811" on="1"/>
        <pt x="287" y="829" on="0"/>
        <pt x="307" y="843" on="0"/>
        <pt x="320" y="843" on="1"/>
        <pt x="336" y="843" on="0"/>
        <pt x="362" y="810" on="0"/>
        <pt x="369" y="779" on="1"/>
        <pt x="218" y="675" on="1"/>
      </contour>
      <contour>
        <pt x="373" y="706" on="1"/>
        <pt x="458" y="811" on="1"/>
        <pt x="473" y="829" on="0"/>
        <pt x="494" y="843" on="0"/>
        <pt x="506" y="843" on="1"/>
        <pt x="522" y="843" on="0"/>
        <pt x="548" y="810" on="0"/>
        <pt x="555" y="779" on="1"/>
        <pt x="403" y="675" on="1"/>
      </contour>
      <contour>
        <pt x="197" y="-15" on="0"/>
        <pt x="42" y="157" on="0"/>
        <pt x="42" y="313" on="1"/>
        <pt x="42" y="412" on="0"/>
        <pt x="119" y="571" on="0"/>
        <pt x="266" y="662" on="0"/>
        <pt x="366" y="662" on="1"/>
        <pt x="504" y="662" on="0"/>
        <pt x="657" y="489" on="0"/>
        <pt x="657" y="337" on="1"/>
        <pt x="657" y="235" on="0"/>
        <pt x="588" y="76" on="0"/>
        <pt x="447" y="-15" on="0"/>
        <pt x="343" y="-15" on="1"/>
      </contour>
      <contour>
        <pt x="454" y="50" on="0"/>
        <pt x="537" y="181" on="0"/>
        <pt x="537" y="316" on="1"/>
        <pt x="537" y="424" on="0"/>
        <pt x="493" y="547" on="0"/>
        <pt x="412" y="595" on="0"/>
        <pt x="351" y="595" on="1"/>
        <pt x="289" y="595" on="0"/>
        <pt x="209" y="555" on="0"/>
        <pt x="162" y="438" on="0"/>
        <pt x="162" y="325" on="1"/>
        <pt x="162" y="178" on="0"/>
        <pt x="261" y="50" on="0"/>
        <pt x="363" y="50" on="1"/>
      </contour>
    </TTGlyph>
    <TTGlyph name="Omacron" xMin="46" yMin="-15" xMax="661" yMax="788">
      <contour>
        <pt x="197" y="788" on="1"/>
        <pt x="534" y="788" on="1"/>
        <pt x="523" y="723" on="1"/>
        <pt x="187" y="723" on="1"/>
      </contour>
      <contour>
        <pt x="201" y="-15" on="0"/>
        <pt x="46" y="157" on="0"/>
        <pt x="46" y="313" on="1"/>
        <pt x="46" y="412" on="0"/>
        <pt x="123" y="571" on="0"/>
        <pt x="270" y="662" on="0"/>
        <pt x="370" y="662" on="1"/>
        <pt x="461" y="662" on="0"/>
        <pt x="592" y="584" on="0"/>
        <pt x="661" y="437" on="0"/>
        <pt x="661" y="337" on="1"/>
        <pt x="661" y="235" on="0"/>
        <pt x="592" y="76" on="0"/>
        <pt x="451" y="-15" on="0"/>
        <pt x="347" y="-15" on="1"/>
      </contour>
      <contour>
        <pt x="458" y="50" on="0"/>
        <pt x="541" y="181" on="0"/>
        <pt x="541" y="316" on="1"/>
        <pt x="541" y="424" on="0"/>
        <pt x="496" y="547" on="0"/>
        <pt x="415" y="595" on="0"/>
        <pt x="354" y="595" on="1"/>
        <pt x="292" y="595" on="0"/>
        <pt x="212" y="555" on="0"/>
        <pt x="165" y="438" on="0"/>
        <pt x="165" y="325" on="1"/>
        <pt x="165" y="178" on="0"/>
        <pt x="264" y="50" on="0"/>
        <pt x="366" y="50" on="1"/>
      </contour>
    </TTGlyph>
    <TTGlyph name="Oslash" xMin="42" yMin="-73" xMax="657" yMax="720">
      <contour>
        <pt x="110" y="64" on="0"/>
        <pt x="42" y="210" on="0"/>
        <pt x="42" y="313" on="1"/>
        <pt x="42" y="412" on="0"/>
        <pt x="119" y="571" on="0"/>
        <pt x="266" y="662" on="0"/>
        <pt x="366" y="662" on="1"/>
        <pt x="402" y="662" on="0"/>
        <pt x="447" y="653" on="1"/>
        <pt x="477" y="720" on="1"/>
        <pt x="540" y="692" on="1"/>
        <pt x="512" y="629" on="1"/>
        <pt x="582" y="591" on="0"/>
        <pt x="657" y="442" on="0"/>
        <pt x="657" y="337" on="1"/>
        <pt x="657" y="235" on="0"/>
        <pt x="588" y="76" on="0"/>
        <pt x="447" y="-15" on="0"/>
        <pt x="343" y="-15" on="1"/>
        <pt x="292" y="-15" on="0"/>
        <pt x="242" y="-2" on="1"/>
        <pt x="212" y="-73" on="1"/>
        <pt x="147" y="-45" on="1"/>
        <pt x="177" y="25" on="1"/>
      </contour>
      <contour>
        <pt x="388" y="595" on="0"/>
        <pt x="351" y="595" on="1"/>
        <pt x="289" y="595" on="0"/>
        <pt x="209" y="555" on="0"/>
        <pt x="162" y="438" on="0"/>
        <pt x="162" y="325" on="1"/>
        <pt x="162" y="179" on="0"/>
        <pt x="214" y="113" on="1"/>
        <pt x="418" y="586" on="1"/>
      </contour>
      <contour>
        <pt x="308" y="50" on="0"/>
        <pt x="363" y="50" on="1"/>
        <pt x="454" y="50" on="0"/>
        <pt x="537" y="181" on="0"/>
        <pt x="537" y="316" on="1"/>
        <pt x="537" y="405" on="0"/>
        <pt x="507" y="517" on="0"/>
        <pt x="478" y="548" on="1"/>
        <pt x="271" y="67" on="1"/>
      </contour>
    </TTGlyph>
    <TTGlyph name="Oslashacute" xMin="42" yMin="-73" xMax="657" yMax="838">
      <component glyphName=".ttfautohint" x="42" y="0" flags="0x0"/>
      <component glyphName="Oslash" x="0" y="0" flags="0x0"/>
      <component glyphName="acutecomb.case" x="467" y="0" flags="0x0"/>
    </TTGlyph>
    <TTGlyph name="Otilde" xMin="42" yMin="-15" xMax="657" yMax="817">
      <contour>
        <pt x="407" y="699" on="0"/>
        <pt x="366" y="712" on="1"/>
        <pt x="281" y="740" on="1"/>
        <pt x="204" y="703" on="1"/>
        <pt x="176" y="732" on="1"/>
        <pt x="212" y="782" on="1"/>
        <pt x="225" y="802" on="0"/>
        <pt x="259" y="817" on="0"/>
        <pt x="281" y="817" on="1"/>
        <pt x="306" y="817" on="0"/>
        <pt x="347" y="804" on="1"/>
        <pt x="432" y="776" on="1"/>
        <pt x="510" y="813" on="1"/>
        <pt x="537" y="784" on="1"/>
        <pt x="501" y="734" on="1"/>
        <pt x="488" y="714" on="0"/>
        <pt x="454" y="699" on="0"/>
        <pt x="432" y="699" on="1"/>
      </contour>
      <contour>
        <pt x="197" y="-15" on="0"/>
        <pt x="42" y="157" on="0"/>
        <pt x="42" y="313" on="1"/>
        <pt x="42" y="412" on="0"/>
        <pt x="119" y="571" on="0"/>
        <pt x="266" y="662" on="0"/>
        <pt x="366" y="662" on="1"/>
        <pt x="504" y="662" on="0"/>
        <pt x="657" y="489" on="0"/>
        <pt x="657" y="337" on="1"/>
        <pt x="657" y="235" on="0"/>
        <pt x="588" y="76" on="0"/>
        <pt x="447" y="-15" on="0"/>
        <pt x="343" y="-15" on="1"/>
      </contour>
      <contour>
        <pt x="454" y="50" on="0"/>
        <pt x="537" y="181" on="0"/>
        <pt x="537" y="316" on="1"/>
        <pt x="537" y="424" on="0"/>
        <pt x="493" y="547" on="0"/>
        <pt x="412" y="595" on="0"/>
        <pt x="351" y="595" on="1"/>
        <pt x="289" y="595" on="0"/>
        <pt x="209" y="555" on="0"/>
        <pt x="162" y="438" on="0"/>
        <pt x="162" y="325" on="1"/>
        <pt x="162" y="178" on="0"/>
        <pt x="261" y="50" on="0"/>
        <pt x="363" y="50" on="1"/>
      </contour>
    </TTGlyph>
    <TTGlyph name="P" xMin="49" yMin="0" xMax="555" yMax="648">
      <contour>
        <pt x="49" y="47" on="1"/>
        <pt x="131" y="65" on="1"/>
        <pt x="131" y="584" on="1"/>
        <pt x="49" y="601" on="1"/>
        <pt x="49" y="648" on="1"/>
        <pt x="308" y="648" on="1"/>
        <pt x="428" y="648" on="0"/>
        <pt x="555" y="569" on="0"/>
        <pt x="555" y="477" on="1"/>
        <pt x="555" y="372" on="0"/>
        <pt x="425" y="260" on="0"/>
        <pt x="317" y="260" on="1"/>
        <pt x="306" y="260" on="0"/>
        <pt x="282" y="262" on="1"/>
        <pt x="277" y="304" on="1"/>
        <pt x="362" y="306" on="0"/>
        <pt x="445" y="376" on="0"/>
        <pt x="445" y="456" on="1"/>
        <pt x="445" y="585" on="0"/>
        <pt x="306" y="585" on="1"/>
        <pt x="283" y="585" on="0"/>
        <pt x="240" y="582" on="0"/>
        <pt x="234" y="581" on="1"/>
        <pt x="234" y="67" on="1"/>
        <pt x="336" y="49" on="1"/>
        <pt x="336" y="0" on="1"/>
        <pt x="49" y="0" on="1"/>
      </contour>
    </TTGlyph>
    <TTGlyph name="Q" xMin="42" yMin="-158" xMax="700" yMax="662">
      <contour>
        <pt x="364" y="-32" on="0"/>
        <pt x="327" y="-15" on="0"/>
        <pt x="297" y="-10" on="1"/>
        <pt x="174" y="-1" on="0"/>
        <pt x="42" y="171" on="0"/>
        <pt x="42" y="317" on="1"/>
        <pt x="42" y="411" on="0"/>
        <pt x="123" y="569" on="0"/>
        <pt x="270" y="662" on="0"/>
        <pt x="366" y="662" on="1"/>
        <pt x="504" y="662" on="0"/>
        <pt x="657" y="491" on="0"/>
        <pt x="657" y="341" on="1"/>
        <pt x="657" y="230" on="0"/>
        <pt x="556" y="40" on="0"/>
        <pt x="447" y="5" on="1"/>
        <pt x="595" y="-83" on="1"/>
        <pt x="700" y="-83" on="1"/>
        <pt x="700" y="-123" on="1"/>
        <pt x="696" y="-126" on="0"/>
        <pt x="663" y="-142" on="0"/>
        <pt x="616" y="-158" on="0"/>
        <pt x="594" y="-158" on="1"/>
        <pt x="551" y="-158" on="0"/>
        <pt x="515" y="-135" on="1"/>
        <pt x="380" y="-43" on="1"/>
      </contour>
      <contour>
        <pt x="455" y="51" on="0"/>
        <pt x="537" y="186" on="0"/>
        <pt x="537" y="324" on="1"/>
        <pt x="537" y="429" on="0"/>
        <pt x="492" y="548" on="0"/>
        <pt x="411" y="595" on="0"/>
        <pt x="351" y="595" on="1"/>
        <pt x="289" y="595" on="0"/>
        <pt x="209" y="556" on="0"/>
        <pt x="162" y="439" on="0"/>
        <pt x="162" y="328" on="1"/>
        <pt x="162" y="186" on="0"/>
        <pt x="266" y="51" on="0"/>
        <pt x="367" y="51" on="1"/>
      </contour>
    </TTGlyph>
    <TTGlyph name="R" xMin="49" yMin="0" xMax="613" yMax="648">
      <contour>
        <pt x="49" y="47" on="1"/>
        <pt x="131" y="65" on="1"/>
        <pt x="131" y="584" on="1"/>
        <pt x="49" y="601" on="1"/>
        <pt x="49" y="648" on="1"/>
        <pt x="332" y="648" on="1"/>
        <pt x="432" y="648" on="0"/>
        <pt x="546" y="568" on="0"/>
        <pt x="546" y="481" on="1"/>
        <pt x="546" y="403" on="0"/>
        <pt x="471" y="318" on="0"/>
        <pt x="408" y="291" on="1"/>
        <pt x="543" y="65" on="1"/>
        <pt x="613" y="47" on="1"/>
        <pt x="613" y="0" on="1"/>
        <pt x="495" y="0" on="1"/>
        <pt x="456" y="0" on="0"/>
        <pt x="439" y="31" on="1"/>
        <pt x="307" y="270" on="1"/>
        <pt x="234" y="270" on="1"/>
        <pt x="234" y="65" on="1"/>
        <pt x="316" y="47" on="1"/>
        <pt x="316" y="0" on="1"/>
        <pt x="49" y="0" on="1"/>
      </contour>
      <contour>
        <pt x="287" y="332" on="1"/>
        <pt x="354" y="332" on="0"/>
        <pt x="435" y="406" on="0"/>
        <pt x="435" y="469" on="1"/>
        <pt x="435" y="536" on="0"/>
        <pt x="365" y="585" on="0"/>
        <pt x="306" y="585" on="1"/>
        <pt x="272" y="585" on="0"/>
        <pt x="234" y="581" on="1"/>
        <pt x="234" y="332" on="1"/>
      </contour>
    </TTGlyph>
    <TTGlyph name="Racute" xMin="49" yMin="0" xMax="611" yMax="838">
      <contour>
        <pt x="200" y="718" on="1"/>
        <pt x="335" y="816" on="1"/>
        <pt x="338" y="818" on="0"/>
        <pt x="358" y="831" on="0"/>
        <pt x="374" y="838" on="0"/>
        <pt x="380" y="838" on="1"/>
        <pt x="401" y="838" on="0"/>
        <pt x="425" y="795" on="0"/>
        <pt x="424" y="759" on="1"/>
        <pt x="223" y="678" on="1"/>
      </contour>
      <contour>
        <pt x="49" y="47" on="1"/>
        <pt x="131" y="65" on="1"/>
        <pt x="131" y="584" on="1"/>
        <pt x="49" y="601" on="1"/>
        <pt x="49" y="648" on="1"/>
        <pt x="332" y="648" on="1"/>
        <pt x="432" y="648" on="0"/>
        <pt x="546" y="568" on="0"/>
        <pt x="546" y="481" on="1"/>
        <pt x="546" y="403" on="0"/>
        <pt x="470" y="316" on="0"/>
        <pt x="407" y="291" on="1"/>
        <pt x="541" y="65" on="1"/>
        <pt x="611" y="47" on="1"/>
        <pt x="611" y="0" on="1"/>
        <pt x="496" y="0" on="1"/>
        <pt x="457" y="0" on="0"/>
        <pt x="440" y="31" on="1"/>
        <pt x="307" y="270" on="1"/>
        <pt x="234" y="270" on="1"/>
        <pt x="234" y="65" on="1"/>
        <pt x="316" y="47" on="1"/>
        <pt x="316" y="0" on="1"/>
        <pt x="49" y="0" on="1"/>
      </contour>
      <contour>
        <pt x="287" y="332" on="1"/>
        <pt x="354" y="332" on="0"/>
        <pt x="436" y="406" on="0"/>
        <pt x="436" y="469" on="1"/>
        <pt x="436" y="536" on="0"/>
        <pt x="366" y="585" on="0"/>
        <pt x="307" y="585" on="1"/>
        <pt x="274" y="585" on="0"/>
        <pt x="234" y="581" on="1"/>
        <pt x="234" y="332" on="1"/>
      </contour>
    </TTGlyph>
    <TTGlyph name="Rcaron" xMin="49" yMin="0" xMax="611" yMax="837">
      <contour>
        <pt x="296" y="676" on="0"/>
        <pt x="273" y="692" on="0"/>
        <pt x="251" y="710" on="1"/>
        <pt x="235" y="723" on="1"/>
        <pt x="147" y="793" on="1"/>
        <pt x="180" y="837" on="1"/>
        <pt x="310" y="773" on="1"/>
        <pt x="439" y="836" on="1"/>
        <pt x="466" y="798" on="1"/>
        <pt x="374" y="723" on="1"/>
        <pt x="355" y="707" on="1"/>
        <pt x="334" y="690" on="0"/>
        <pt x="313" y="676" on="0"/>
        <pt x="305" y="676" on="1"/>
      </contour>
      <contour>
        <pt x="49" y="47" on="1"/>
        <pt x="131" y="65" on="1"/>
        <pt x="131" y="584" on="1"/>
        <pt x="49" y="601" on="1"/>
        <pt x="49" y="648" on="1"/>
        <pt x="332" y="648" on="1"/>
        <pt x="432" y="648" on="0"/>
        <pt x="546" y="568" on="0"/>
        <pt x="546" y="481" on="1"/>
        <pt x="546" y="403" on="0"/>
        <pt x="470" y="316" on="0"/>
        <pt x="407" y="291" on="1"/>
        <pt x="541" y="65" on="1"/>
        <pt x="611" y="47" on="1"/>
        <pt x="611" y="0" on="1"/>
        <pt x="496" y="0" on="1"/>
        <pt x="457" y="0" on="0"/>
        <pt x="440" y="31" on="1"/>
        <pt x="307" y="270" on="1"/>
        <pt x="234" y="270" on="1"/>
        <pt x="234" y="65" on="1"/>
        <pt x="316" y="47" on="1"/>
        <pt x="316" y="0" on="1"/>
        <pt x="49" y="0" on="1"/>
      </contour>
      <contour>
        <pt x="287" y="332" on="1"/>
        <pt x="354" y="332" on="0"/>
        <pt x="436" y="406" on="0"/>
        <pt x="436" y="469" on="1"/>
        <pt x="436" y="536" on="0"/>
        <pt x="366" y="585" on="0"/>
        <pt x="307" y="585" on="1"/>
        <pt x="274" y="585" on="0"/>
        <pt x="234" y="581" on="1"/>
        <pt x="234" y="332" on="1"/>
      </contour>
    </TTGlyph>
    <TTGlyph name="Rcommaaccent" xMin="49" yMin="-197" xMax="611" yMax="648">
      <contour>
        <pt x="49" y="47" on="1"/>
        <pt x="131" y="65" on="1"/>
        <pt x="131" y="584" on="1"/>
        <pt x="49" y="601" on="1"/>
        <pt x="49" y="648" on="1"/>
        <pt x="332" y="648" on="1"/>
        <pt x="432" y="648" on="0"/>
        <pt x="546" y="568" on="0"/>
        <pt x="546" y="481" on="1"/>
        <pt x="546" y="403" on="0"/>
        <pt x="470" y="316" on="0"/>
        <pt x="407" y="291" on="1"/>
        <pt x="541" y="65" on="1"/>
        <pt x="611" y="47" on="1"/>
        <pt x="611" y="0" on="1"/>
        <pt x="496" y="0" on="1"/>
        <pt x="457" y="0" on="0"/>
        <pt x="440" y="31" on="1"/>
        <pt x="307" y="270" on="1"/>
        <pt x="234" y="270" on="1"/>
        <pt x="234" y="65" on="1"/>
        <pt x="316" y="47" on="1"/>
        <pt x="316" y="0" on="1"/>
        <pt x="49" y="0" on="1"/>
      </contour>
      <contour>
        <pt x="287" y="332" on="1"/>
        <pt x="354" y="332" on="0"/>
        <pt x="436" y="406" on="0"/>
        <pt x="436" y="469" on="1"/>
        <pt x="436" y="536" on="0"/>
        <pt x="366" y="585" on="0"/>
        <pt x="307" y="585" on="1"/>
        <pt x="274" y="585" on="0"/>
        <pt x="234" y="581" on="1"/>
        <pt x="234" y="332" on="1"/>
      </contour>
      <contour>
        <pt x="300" y="-147" on="0"/>
        <pt x="300" y="-111" on="1"/>
        <pt x="300" y="-74" on="0"/>
        <pt x="276" y="-52" on="1"/>
        <pt x="286" y="-40" on="0"/>
        <pt x="312" y="-27" on="0"/>
        <pt x="324" y="-27" on="1"/>
        <pt x="350" y="-27" on="0"/>
        <pt x="377" y="-60" on="0"/>
        <pt x="377" y="-82" on="1"/>
        <pt x="377" y="-112" on="0"/>
        <pt x="351" y="-162" on="0"/>
        <pt x="319" y="-197" on="0"/>
        <pt x="319" y="-195" on="1"/>
        <pt x="284" y="-195" on="1"/>
      </contour>
    </TTGlyph>
    <TTGlyph name="S" xMin="52" yMin="-12" xMax="477" yMax="662">
      <contour>
        <pt x="188" y="-12" on="0"/>
        <pt x="76" y="21" on="0"/>
        <pt x="52" y="41" on="1"/>
        <pt x="52" y="194" on="1"/>
        <pt x="111" y="194" on="1"/>
        <pt x="128" y="93" on="1"/>
        <pt x="149" y="76" on="0"/>
        <pt x="217" y="53" on="0"/>
        <pt x="246" y="53" on="1"/>
        <pt x="317" y="53" on="0"/>
        <pt x="379" y="103" on="0"/>
        <pt x="379" y="159" on="1"/>
        <pt x="379" y="191" on="0"/>
        <pt x="349" y="233" on="0"/>
        <pt x="297" y="262" on="0"/>
        <pt x="247" y="282" on="1"/>
        <pt x="178" y="308" on="0"/>
        <pt x="108" y="343" on="0"/>
        <pt x="53" y="416" on="0"/>
        <pt x="53" y="476" on="1"/>
        <pt x="53" y="560" on="0"/>
        <pt x="172" y="662" on="0"/>
        <pt x="273" y="662" on="1"/>
        <pt x="321" y="662" on="0"/>
        <pt x="427" y="646" on="0"/>
        <pt x="449" y="637" on="1"/>
        <pt x="449" y="476" on="1"/>
        <pt x="394" y="476" on="1"/>
        <pt x="375" y="574" on="1"/>
        <pt x="373" y="575" on="0"/>
        <pt x="320" y="595" on="0"/>
        <pt x="272" y="595" on="1"/>
        <pt x="205" y="595" on="0"/>
        <pt x="153" y="548" on="0"/>
        <pt x="153" y="504" on="1"/>
        <pt x="153" y="470" on="0"/>
        <pt x="192" y="426" on="0"/>
        <pt x="243" y="403" on="0"/>
        <pt x="301" y="381" on="1"/>
        <pt x="357" y="359" on="0"/>
        <pt x="430" y="315" on="0"/>
        <pt x="477" y="242" on="0"/>
        <pt x="477" y="187" on="1"/>
        <pt x="477" y="117" on="0"/>
        <pt x="411" y="28" on="0"/>
        <pt x="309" y="-12" on="0"/>
        <pt x="251" y="-12" on="1"/>
      </contour>
    </TTGlyph>
    <TTGlyph name="Sacute" xMin="52" yMin="-12" xMax="477" yMax="838">
      <contour>
        <pt x="171" y="718" on="1"/>
        <pt x="306" y="816" on="1"/>
        <pt x="318" y="824" on="0"/>
        <pt x="343" y="838" on="0"/>
        <pt x="351" y="838" on="1"/>
        <pt x="372" y="838" on="0"/>
        <pt x="396" y="795" on="0"/>
        <pt x="395" y="759" on="1"/>
        <pt x="194" y="678" on="1"/>
      </contour>
      <contour>
        <pt x="188" y="-12" on="0"/>
        <pt x="76" y="21" on="0"/>
        <pt x="52" y="41" on="1"/>
        <pt x="52" y="194" on="1"/>
        <pt x="111" y="194" on="1"/>
        <pt x="128" y="93" on="1"/>
        <pt x="149" y="76" on="0"/>
        <pt x="217" y="53" on="0"/>
        <pt x="246" y="53" on="1"/>
        <pt x="317" y="53" on="0"/>
        <pt x="379" y="103" on="0"/>
        <pt x="379" y="159" on="1"/>
        <pt x="379" y="191" on="0"/>
        <pt x="349" y="233" on="0"/>
        <pt x="297" y="262" on="0"/>
        <pt x="247" y="282" on="1"/>
        <pt x="178" y="308" on="0"/>
        <pt x="108" y="343" on="0"/>
        <pt x="53" y="416" on="0"/>
        <pt x="53" y="476" on="1"/>
        <pt x="53" y="560" on="0"/>
        <pt x="172" y="662" on="0"/>
        <pt x="273" y="662" on="1"/>
        <pt x="321" y="662" on="0"/>
        <pt x="427" y="646" on="0"/>
        <pt x="449" y="637" on="1"/>
        <pt x="449" y="476" on="1"/>
        <pt x="394" y="476" on="1"/>
        <pt x="375" y="574" on="1"/>
        <pt x="373" y="575" on="0"/>
        <pt x="320" y="595" on="0"/>
        <pt x="272" y="595" on="1"/>
        <pt x="205" y="595" on="0"/>
        <pt x="153" y="548" on="0"/>
        <pt x="153" y="504" on="1"/>
        <pt x="153" y="470" on="0"/>
        <pt x="192" y="426" on="0"/>
        <pt x="243" y="403" on="0"/>
        <pt x="301" y="381" on="1"/>
        <pt x="357" y="359" on="0"/>
        <pt x="430" y="315" on="0"/>
        <pt x="477" y="242" on="0"/>
        <pt x="477" y="187" on="1"/>
        <pt x="477" y="117" on="0"/>
        <pt x="411" y="28" on="0"/>
        <pt x="309" y="-12" on="0"/>
        <pt x="251" y="-12" on="1"/>
      </contour>
    </TTGlyph>
    <TTGlyph name="Sacute.loclPLK" xMin="52" yMin="-12" xMax="477" yMax="865">
      <contour>
        <pt x="231" y="698" on="1"/>
        <pt x="302" y="824" on="1"/>
        <pt x="305" y="828" on="0"/>
        <pt x="322" y="853" on="0"/>
        <pt x="338" y="865" on="0"/>
        <pt x="347" y="865" on="1"/>
        <pt x="382" y="865" on="0"/>
        <pt x="407" y="808" on="1"/>
        <pt x="272" y="666" on="1"/>
      </contour>
      <contour>
        <pt x="188" y="-12" on="0"/>
        <pt x="76" y="21" on="0"/>
        <pt x="52" y="41" on="1"/>
        <pt x="52" y="194" on="1"/>
        <pt x="111" y="194" on="1"/>
        <pt x="128" y="93" on="1"/>
        <pt x="149" y="76" on="0"/>
        <pt x="217" y="53" on="0"/>
        <pt x="246" y="53" on="1"/>
        <pt x="317" y="53" on="0"/>
        <pt x="379" y="103" on="0"/>
        <pt x="379" y="159" on="1"/>
        <pt x="379" y="191" on="0"/>
        <pt x="349" y="233" on="0"/>
        <pt x="297" y="262" on="0"/>
        <pt x="247" y="282" on="1"/>
        <pt x="178" y="308" on="0"/>
        <pt x="108" y="343" on="0"/>
        <pt x="53" y="416" on="0"/>
        <pt x="53" y="476" on="1"/>
        <pt x="53" y="560" on="0"/>
        <pt x="172" y="662" on="0"/>
        <pt x="273" y="662" on="1"/>
        <pt x="321" y="662" on="0"/>
        <pt x="427" y="646" on="0"/>
        <pt x="449" y="637" on="1"/>
        <pt x="449" y="476" on="1"/>
        <pt x="394" y="476" on="1"/>
        <pt x="375" y="574" on="1"/>
        <pt x="373" y="575" on="0"/>
        <pt x="320" y="595" on="0"/>
        <pt x="272" y="595" on="1"/>
        <pt x="205" y="595" on="0"/>
        <pt x="153" y="548" on="0"/>
        <pt x="153" y="504" on="1"/>
        <pt x="153" y="470" on="0"/>
        <pt x="192" y="426" on="0"/>
        <pt x="243" y="403" on="0"/>
        <pt x="301" y="381" on="1"/>
        <pt x="357" y="359" on="0"/>
        <pt x="430" y="315" on="0"/>
        <pt x="477" y="242" on="0"/>
        <pt x="477" y="187" on="1"/>
        <pt x="477" y="117" on="0"/>
        <pt x="411" y="28" on="0"/>
        <pt x="309" y="-12" on="0"/>
        <pt x="251" y="-12" on="1"/>
      </contour>
    </TTGlyph>
    <TTGlyph name="Scaron" xMin="52" yMin="-12" xMax="477" yMax="837">
      <contour>
        <pt x="255" y="676" on="0"/>
        <pt x="235" y="690" on="0"/>
        <pt x="213" y="708" on="1"/>
        <pt x="195" y="723" on="1"/>
        <pt x="106" y="793" on="1"/>
        <pt x="139" y="837" on="1"/>
        <pt x="269" y="773" on="1"/>
        <pt x="399" y="836" on="1"/>
        <pt x="425" y="798" on="1"/>
        <pt x="334" y="723" on="1"/>
        <pt x="318" y="710" on="1"/>
        <pt x="296" y="691" on="0"/>
        <pt x="273" y="676" on="0"/>
        <pt x="264" y="676" on="1"/>
      </contour>
      <contour>
        <pt x="188" y="-12" on="0"/>
        <pt x="76" y="21" on="0"/>
        <pt x="52" y="41" on="1"/>
        <pt x="52" y="194" on="1"/>
        <pt x="111" y="194" on="1"/>
        <pt x="128" y="93" on="1"/>
        <pt x="149" y="76" on="0"/>
        <pt x="217" y="53" on="0"/>
        <pt x="246" y="53" on="1"/>
        <pt x="317" y="53" on="0"/>
        <pt x="379" y="103" on="0"/>
        <pt x="379" y="159" on="1"/>
        <pt x="379" y="191" on="0"/>
        <pt x="349" y="233" on="0"/>
        <pt x="297" y="262" on="0"/>
        <pt x="247" y="282" on="1"/>
        <pt x="178" y="308" on="0"/>
        <pt x="108" y="343" on="0"/>
        <pt x="53" y="416" on="0"/>
        <pt x="53" y="476" on="1"/>
        <pt x="53" y="560" on="0"/>
        <pt x="172" y="662" on="0"/>
        <pt x="273" y="662" on="1"/>
        <pt x="321" y="662" on="0"/>
        <pt x="427" y="646" on="0"/>
        <pt x="449" y="637" on="1"/>
        <pt x="449" y="476" on="1"/>
        <pt x="394" y="476" on="1"/>
        <pt x="375" y="574" on="1"/>
        <pt x="373" y="575" on="0"/>
        <pt x="320" y="595" on="0"/>
        <pt x="272" y="595" on="1"/>
        <pt x="205" y="595" on="0"/>
        <pt x="153" y="548" on="0"/>
        <pt x="153" y="504" on="1"/>
        <pt x="153" y="470" on="0"/>
        <pt x="192" y="426" on="0"/>
        <pt x="243" y="403" on="0"/>
        <pt x="301" y="381" on="1"/>
        <pt x="357" y="359" on="0"/>
        <pt x="430" y="315" on="0"/>
        <pt x="477" y="242" on="0"/>
        <pt x="477" y="187" on="1"/>
        <pt x="477" y="117" on="0"/>
        <pt x="411" y="28" on="0"/>
        <pt x="309" y="-12" on="0"/>
        <pt x="251" y="-12" on="1"/>
      </contour>
    </TTGlyph>
    <TTGlyph name="Scedilla" xMin="53" yMin="-189" xMax="478" yMax="662">
      <contour>
        <pt x="221" y="-189" on="0"/>
        <pt x="186" y="-181" on="0"/>
        <pt x="167" y="-172" on="1"/>
        <pt x="185" y="-132" on="1"/>
        <pt x="214" y="-144" on="0"/>
        <pt x="241" y="-144" on="1"/>
        <pt x="292" y="-144" on="0"/>
        <pt x="292" y="-115" on="1"/>
        <pt x="292" y="-102" on="0"/>
        <pt x="280" y="-91" on="0"/>
        <pt x="264" y="-88" on="1"/>
        <pt x="229" y="-81" on="1"/>
        <pt x="209" y="-61" on="1"/>
        <pt x="230" y="-11" on="1"/>
        <pt x="173" y="-8" on="0"/>
        <pt x="74" y="23" on="0"/>
        <pt x="53" y="41" on="1"/>
        <pt x="53" y="194" on="1"/>
        <pt x="112" y="194" on="1"/>
        <pt x="129" y="93" on="1"/>
        <pt x="150" y="76" on="0"/>
        <pt x="217" y="53" on="0"/>
        <pt x="246" y="53" on="1"/>
        <pt x="318" y="53" on="0"/>
        <pt x="380" y="100" on="0"/>
        <pt x="380" y="159" on="1"/>
        <pt x="380" y="204" on="0"/>
        <pt x="321" y="254" on="0"/>
        <pt x="252" y="280" on="1"/>
        <pt x="183" y="306" on="0"/>
        <pt x="110" y="342" on="0"/>
        <pt x="54" y="416" on="0"/>
        <pt x="54" y="476" on="1"/>
        <pt x="54" y="560" on="0"/>
        <pt x="173" y="662" on="0"/>
        <pt x="274" y="662" on="1"/>
        <pt x="322" y="662" on="0"/>
        <pt x="427" y="646" on="0"/>
        <pt x="450" y="637" on="1"/>
        <pt x="450" y="476" on="1"/>
        <pt x="395" y="476" on="1"/>
        <pt x="376" y="574" on="1"/>
        <pt x="355" y="583" on="0"/>
        <pt x="299" y="595" on="0"/>
        <pt x="273" y="595" on="1"/>
        <pt x="205" y="595" on="0"/>
        <pt x="154" y="549" on="0"/>
        <pt x="154" y="504" on="1"/>
        <pt x="154" y="472" on="0"/>
        <pt x="190" y="429" on="0"/>
        <pt x="244" y="403" on="0"/>
        <pt x="294" y="384" on="1"/>
        <pt x="353" y="361" on="0"/>
        <pt x="428" y="318" on="0"/>
        <pt x="478" y="244" on="0"/>
        <pt x="478" y="187" on="1"/>
        <pt x="478" y="93" on="0"/>
        <pt x="363" y="-4" on="0"/>
        <pt x="279" y="-11" on="1"/>
        <pt x="279" y="-29" on="1"/>
        <pt x="297" y="-34" on="1"/>
        <pt x="332" y="-42" on="0"/>
        <pt x="368" y="-68" on="0"/>
        <pt x="368" y="-98" on="1"/>
        <pt x="368" y="-145" on="0"/>
        <pt x="299" y="-189" on="0"/>
        <pt x="244" y="-189" on="1"/>
      </contour>
    </TTGlyph>
    <TTGlyph name="Scircumflex" xMin="52" yMin="-12" xMax="477" yMax="837">
      <component glyphName=".ttfautohint" x="52" y="0" flags="0x0"/>
      <component glyphName="S" x="0" y="0" flags="0x0"/>
      <component glyphName="uni0302.case" x="419" y="0" flags="0x0"/>
    </TTGlyph>
    <TTGlyph name="Scommaaccent" xMin="53" yMin="-197" xMax="478" yMax="662">
      <contour>
        <pt x="189" y="-12" on="0"/>
        <pt x="76" y="21" on="0"/>
        <pt x="53" y="41" on="1"/>
        <pt x="53" y="194" on="1"/>
        <pt x="112" y="194" on="1"/>
        <pt x="129" y="93" on="1"/>
        <pt x="150" y="76" on="0"/>
        <pt x="217" y="53" on="0"/>
        <pt x="246" y="53" on="1"/>
        <pt x="319" y="53" on="0"/>
        <pt x="380" y="101" on="0"/>
        <pt x="380" y="159" on="1"/>
        <pt x="380" y="191" on="0"/>
        <pt x="350" y="234" on="0"/>
        <pt x="297" y="263" on="0"/>
        <pt x="249" y="281" on="1"/>
        <pt x="182" y="306" on="0"/>
        <pt x="109" y="343" on="0"/>
        <pt x="54" y="417" on="0"/>
        <pt x="54" y="476" on="1"/>
        <pt x="54" y="560" on="0"/>
        <pt x="173" y="662" on="0"/>
        <pt x="274" y="662" on="1"/>
        <pt x="322" y="662" on="0"/>
        <pt x="427" y="646" on="0"/>
        <pt x="450" y="637" on="1"/>
        <pt x="450" y="476" on="1"/>
        <pt x="395" y="476" on="1"/>
        <pt x="376" y="574" on="1"/>
        <pt x="355" y="583" on="0"/>
        <pt x="299" y="595" on="0"/>
        <pt x="273" y="595" on="1"/>
        <pt x="205" y="595" on="0"/>
        <pt x="154" y="549" on="0"/>
        <pt x="154" y="504" on="1"/>
        <pt x="154" y="472" on="0"/>
        <pt x="191" y="428" on="0"/>
        <pt x="245" y="402" on="0"/>
        <pt x="295" y="383" on="1"/>
        <pt x="354" y="359" on="0"/>
        <pt x="429" y="316" on="0"/>
        <pt x="478" y="243" on="0"/>
        <pt x="478" y="187" on="1"/>
        <pt x="478" y="117" on="0"/>
        <pt x="412" y="28" on="0"/>
        <pt x="310" y="-12" on="0"/>
        <pt x="252" y="-12" on="1"/>
      </contour>
      <contour>
        <pt x="235" y="-147" on="0"/>
        <pt x="235" y="-111" on="1"/>
        <pt x="235" y="-74" on="0"/>
        <pt x="211" y="-52" on="1"/>
        <pt x="233" y="-27" on="0"/>
        <pt x="260" y="-27" on="1"/>
        <pt x="286" y="-27" on="0"/>
        <pt x="312" y="-60" on="0"/>
        <pt x="312" y="-82" on="1"/>
        <pt x="312" y="-112" on="0"/>
        <pt x="286" y="-162" on="0"/>
        <pt x="254" y="-197" on="0"/>
        <pt x="254" y="-195" on="1"/>
        <pt x="219" y="-195" on="1"/>
      </contour>
    </TTGlyph>
    <TTGlyph name="T" xMin="13" yMin="0" xMax="537" yMax="648">
      <contour>
        <pt x="223" y="64" on="1"/>
        <pt x="223" y="585" on="1"/>
        <pt x="90" y="585" on="1"/>
        <pt x="67" y="477" on="1"/>
        <pt x="13" y="477" on="1"/>
        <pt x="13" y="648" on="1"/>
        <pt x="537" y="648" on="1"/>
        <pt x="537" y="477" on="1"/>
        <pt x="482" y="477" on="1"/>
        <pt x="460" y="585" on="1"/>
        <pt x="327" y="585" on="1"/>
        <pt x="327" y="64" on="1"/>
        <pt x="408" y="48" on="1"/>
        <pt x="408" y="0" on="1"/>
        <pt x="142" y="0" on="1"/>
        <pt x="142" y="48" on="1"/>
      </contour>
    </TTGlyph>
    <TTGlyph name="Tbar" xMin="13" yMin="0" xMax="537" yMax="648">
      <contour>
        <pt x="327" y="585" on="1"/>
        <pt x="327" y="365" on="1"/>
        <pt x="503" y="365" on="1"/>
        <pt x="503" y="302" on="1"/>
        <pt x="327" y="302" on="1"/>
        <pt x="327" y="64" on="1"/>
        <pt x="408" y="48" on="1"/>
        <pt x="408" y="0" on="1"/>
        <pt x="142" y="0" on="1"/>
        <pt x="142" y="48" on="1"/>
        <pt x="223" y="64" on="1"/>
        <pt x="223" y="302" on="1"/>
        <pt x="44" y="302" on="1"/>
        <pt x="44" y="365" on="1"/>
        <pt x="223" y="365" on="1"/>
        <pt x="223" y="585" on="1"/>
        <pt x="90" y="585" on="1"/>
        <pt x="67" y="477" on="1"/>
        <pt x="13" y="477" on="1"/>
        <pt x="13" y="648" on="1"/>
        <pt x="537" y="648" on="1"/>
        <pt x="537" y="477" on="1"/>
        <pt x="482" y="477" on="1"/>
        <pt x="460" y="585" on="1"/>
      </contour>
    </TTGlyph>
    <TTGlyph name="Tcaron" xMin="14" yMin="0" xMax="537" yMax="837">
      <contour>
        <pt x="279" y="773" on="1"/>
        <pt x="409" y="836" on="1"/>
        <pt x="435" y="798" on="1"/>
        <pt x="344" y="723" on="1"/>
        <pt x="321" y="704" on="1"/>
        <pt x="302" y="689" on="0"/>
        <pt x="282" y="676" on="0"/>
        <pt x="274" y="676" on="1"/>
        <pt x="265" y="676" on="0"/>
        <pt x="245" y="690" on="0"/>
        <pt x="223" y="708" on="1"/>
        <pt x="215" y="716" on="0"/>
        <pt x="205" y="723" on="1"/>
        <pt x="116" y="793" on="1"/>
        <pt x="149" y="837" on="1"/>
      </contour>
      <contour>
        <pt x="224" y="64" on="1"/>
        <pt x="224" y="585" on="1"/>
        <pt x="90" y="585" on="1"/>
        <pt x="68" y="477" on="1"/>
        <pt x="14" y="477" on="1"/>
        <pt x="14" y="648" on="1"/>
        <pt x="537" y="648" on="1"/>
        <pt x="537" y="477" on="1"/>
        <pt x="483" y="477" on="1"/>
        <pt x="461" y="585" on="1"/>
        <pt x="328" y="585" on="1"/>
        <pt x="328" y="64" on="1"/>
        <pt x="409" y="48" on="1"/>
        <pt x="409" y="0" on="1"/>
        <pt x="143" y="0" on="1"/>
        <pt x="143" y="48" on="1"/>
      </contour>
    </TTGlyph>
    <TTGlyph name="Thorn" xMin="52" yMin="0" xMax="541" yMax="648">
      <contour>
        <pt x="52" y="48" on="1"/>
        <pt x="133" y="64" on="1"/>
        <pt x="133" y="584" on="1"/>
        <pt x="52" y="600" on="1"/>
        <pt x="52" y="648" on="1"/>
        <pt x="318" y="648" on="1"/>
        <pt x="318" y="600" on="1"/>
        <pt x="237" y="584" on="1"/>
        <pt x="237" y="510" on="1"/>
        <pt x="324" y="510" on="1"/>
        <pt x="436" y="510" on="0"/>
        <pt x="541" y="438" on="0"/>
        <pt x="541" y="353" on="1"/>
        <pt x="541" y="151" on="0"/>
        <pt x="302" y="151" on="1"/>
        <pt x="237" y="151" on="1"/>
        <pt x="237" y="64" on="1"/>
        <pt x="318" y="48" on="1"/>
        <pt x="318" y="0" on="1"/>
        <pt x="52" y="0" on="1"/>
      </contour>
      <contour>
        <pt x="288" y="209" on="1"/>
        <pt x="365" y="209" on="0"/>
        <pt x="433" y="267" on="0"/>
        <pt x="433" y="335" on="1"/>
        <pt x="433" y="396" on="0"/>
        <pt x="372" y="448" on="0"/>
        <pt x="308" y="448" on="1"/>
        <pt x="237" y="447" on="1"/>
        <pt x="237" y="209" on="1"/>
      </contour>
    </TTGlyph>
    <TTGlyph name="U" xMin="32" yMin="-15" xMax="692" yMax="648">
      <contour>
        <pt x="32" y="600" on="1"/>
        <pt x="32" y="648" on="1"/>
        <pt x="297" y="648" on="1"/>
        <pt x="297" y="600" on="1"/>
        <pt x="217" y="584" on="1"/>
        <pt x="217" y="278" on="1"/>
        <pt x="217" y="188" on="0"/>
        <pt x="246" y="95" on="0"/>
        <pt x="316" y="58" on="0"/>
        <pt x="384" y="58" on="1"/>
        <pt x="442" y="58" on="0"/>
        <pt x="508" y="104" on="0"/>
        <pt x="535" y="199" on="0"/>
        <pt x="535" y="278" on="1"/>
        <pt x="535" y="583" on="1"/>
        <pt x="454" y="599" on="1"/>
        <pt x="454" y="648" on="1"/>
        <pt x="692" y="648" on="1"/>
        <pt x="692" y="599" on="1"/>
        <pt x="611" y="583" on="1"/>
        <pt x="611" y="278" on="1"/>
        <pt x="611" y="175" on="0"/>
        <pt x="567" y="49" on="0"/>
        <pt x="456" y="-15" on="0"/>
        <pt x="357" y="-15" on="1"/>
        <pt x="261" y="-15" on="0"/>
        <pt x="156" y="47" on="0"/>
        <pt x="114" y="173" on="0"/>
        <pt x="114" y="278" on="1"/>
        <pt x="114" y="584" on="1"/>
      </contour>
    </TTGlyph>
    <TTGlyph name="Uacute" xMin="32" yMin="-15" xMax="692" yMax="838">
      <contour>
        <pt x="281" y="718" on="1"/>
        <pt x="415" y="816" on="1"/>
        <pt x="420" y="819" on="0"/>
        <pt x="440" y="832" on="0"/>
        <pt x="454" y="838" on="0"/>
        <pt x="460" y="838" on="1"/>
        <pt x="482" y="838" on="0"/>
        <pt x="506" y="795" on="0"/>
        <pt x="505" y="759" on="1"/>
        <pt x="304" y="678" on="1"/>
      </contour>
      <contour>
        <pt x="261" y="-15" on="0"/>
        <pt x="156" y="47" on="0"/>
        <pt x="114" y="173" on="0"/>
        <pt x="114" y="278" on="1"/>
        <pt x="114" y="584" on="1"/>
        <pt x="32" y="600" on="1"/>
        <pt x="32" y="648" on="1"/>
        <pt x="297" y="648" on="1"/>
        <pt x="297" y="600" on="1"/>
        <pt x="217" y="584" on="1"/>
        <pt x="217" y="278" on="1"/>
        <pt x="217" y="188" on="0"/>
        <pt x="246" y="95" on="0"/>
        <pt x="316" y="58" on="0"/>
        <pt x="384" y="58" on="1"/>
        <pt x="443" y="58" on="0"/>
        <pt x="508" y="104" on="0"/>
        <pt x="535" y="198" on="0"/>
        <pt x="535" y="278" on="1"/>
        <pt x="535" y="583" on="1"/>
        <pt x="454" y="599" on="1"/>
        <pt x="454" y="648" on="1"/>
        <pt x="692" y="648" on="1"/>
        <pt x="692" y="599" on="1"/>
        <pt x="611" y="583" on="1"/>
        <pt x="611" y="278" on="1"/>
        <pt x="611" y="176" on="0"/>
        <pt x="565" y="49" on="0"/>
        <pt x="454" y="-15" on="0"/>
        <pt x="357" y="-15" on="1"/>
      </contour>
    </TTGlyph>
    <TTGlyph name="Ubreve" xMin="32" yMin="-15" xMax="692" yMax="830">
      <component glyphName=".ttfautohint" x="32" y="0" flags="0x0"/>
      <component glyphName="U" x="0" y="0" flags="0x0"/>
      <component glyphName="uni0306.case" x="511" y="0" flags="0x0"/>
    </TTGlyph>
    <TTGlyph name="Ucircumflex" xMin="32" yMin="-15" xMax="692" yMax="837">
      <contour>
        <pt x="306" y="790" on="1"/>
        <pt x="322" y="803" on="1"/>
        <pt x="347" y="823" on="0"/>
        <pt x="368" y="837" on="0"/>
        <pt x="376" y="837" on="1"/>
        <pt x="384" y="837" on="0"/>
        <pt x="403" y="824" on="0"/>
        <pt x="425" y="806" on="1"/>
        <pt x="445" y="789" on="0"/>
        <pt x="444" y="790" on="1"/>
        <pt x="533" y="720" on="1"/>
        <pt x="500" y="676" on="1"/>
        <pt x="370" y="740" on="1"/>
        <pt x="240" y="677" on="1"/>
        <pt x="214" y="715" on="1"/>
      </contour>
      <contour>
        <pt x="32" y="600" on="1"/>
        <pt x="32" y="648" on="1"/>
        <pt x="297" y="648" on="1"/>
        <pt x="297" y="600" on="1"/>
        <pt x="217" y="584" on="1"/>
        <pt x="217" y="278" on="1"/>
        <pt x="217" y="188" on="0"/>
        <pt x="246" y="95" on="0"/>
        <pt x="316" y="58" on="0"/>
        <pt x="384" y="58" on="1"/>
        <pt x="443" y="58" on="0"/>
        <pt x="508" y="104" on="0"/>
        <pt x="535" y="198" on="0"/>
        <pt x="535" y="278" on="1"/>
        <pt x="535" y="583" on="1"/>
        <pt x="454" y="599" on="1"/>
        <pt x="454" y="648" on="1"/>
        <pt x="692" y="648" on="1"/>
        <pt x="692" y="599" on="1"/>
        <pt x="611" y="583" on="1"/>
        <pt x="611" y="278" on="1"/>
        <pt x="611" y="176" on="0"/>
        <pt x="565" y="49" on="0"/>
        <pt x="454" y="-15" on="0"/>
        <pt x="357" y="-15" on="1"/>
        <pt x="261" y="-15" on="0"/>
        <pt x="156" y="47" on="0"/>
        <pt x="114" y="173" on="0"/>
        <pt x="114" y="278" on="1"/>
        <pt x="114" y="584" on="1"/>
      </contour>
    </TTGlyph>
    <TTGlyph name="Udieresis" xMin="32" yMin="-15" xMax="692" yMax="827">
      <contour>
        <pt x="234" y="701" on="0"/>
        <pt x="202" y="735" on="0"/>
        <pt x="202" y="762" on="1"/>
        <pt x="202" y="789" on="0"/>
        <pt x="237" y="827" on="0"/>
        <pt x="264" y="827" on="1"/>
        <pt x="290" y="827" on="0"/>
        <pt x="321" y="795" on="0"/>
        <pt x="321" y="768" on="1"/>
        <pt x="321" y="740" on="0"/>
        <pt x="287" y="701" on="0"/>
        <pt x="259" y="701" on="1"/>
      </contour>
      <contour>
        <pt x="455" y="701" on="0"/>
        <pt x="423" y="735" on="0"/>
        <pt x="423" y="762" on="1"/>
        <pt x="423" y="789" on="0"/>
        <pt x="458" y="827" on="0"/>
        <pt x="485" y="827" on="1"/>
        <pt x="511" y="827" on="0"/>
        <pt x="542" y="795" on="0"/>
        <pt x="542" y="768" on="1"/>
        <pt x="542" y="740" on="0"/>
        <pt x="508" y="701" on="0"/>
        <pt x="480" y="701" on="1"/>
      </contour>
      <contour>
        <pt x="261" y="-15" on="0"/>
        <pt x="156" y="47" on="0"/>
        <pt x="114" y="173" on="0"/>
        <pt x="114" y="278" on="1"/>
        <pt x="114" y="584" on="1"/>
        <pt x="32" y="600" on="1"/>
        <pt x="32" y="648" on="1"/>
        <pt x="297" y="648" on="1"/>
        <pt x="297" y="600" on="1"/>
        <pt x="217" y="584" on="1"/>
        <pt x="217" y="278" on="1"/>
        <pt x="217" y="188" on="0"/>
        <pt x="246" y="95" on="0"/>
        <pt x="316" y="58" on="0"/>
        <pt x="384" y="58" on="1"/>
        <pt x="443" y="58" on="0"/>
        <pt x="508" y="104" on="0"/>
        <pt x="535" y="198" on="0"/>
        <pt x="535" y="278" on="1"/>
        <pt x="535" y="583" on="1"/>
        <pt x="454" y="599" on="1"/>
        <pt x="454" y="648" on="1"/>
        <pt x="692" y="648" on="1"/>
        <pt x="692" y="599" on="1"/>
        <pt x="611" y="583" on="1"/>
        <pt x="611" y="278" on="1"/>
        <pt x="611" y="176" on="0"/>
        <pt x="565" y="49" on="0"/>
        <pt x="454" y="-15" on="0"/>
        <pt x="357" y="-15" on="1"/>
      </contour>
    </TTGlyph>
    <TTGlyph name="Ugrave" xMin="32" yMin="-15" xMax="692" yMax="838">
      <contour>
        <pt x="242" y="759" on="1"/>
        <pt x="241" y="795" on="0"/>
        <pt x="266" y="838" on="0"/>
        <pt x="286" y="838" on="1"/>
        <pt x="294" y="838" on="0"/>
        <pt x="315" y="827" on="0"/>
        <pt x="328" y="818" on="0"/>
        <pt x="331" y="816" on="1"/>
        <pt x="466" y="718" on="1"/>
        <pt x="443" y="678" on="1"/>
      </contour>
      <contour>
        <pt x="261" y="-15" on="0"/>
        <pt x="156" y="47" on="0"/>
        <pt x="114" y="173" on="0"/>
        <pt x="114" y="278" on="1"/>
        <pt x="114" y="584" on="1"/>
        <pt x="32" y="600" on="1"/>
        <pt x="32" y="648" on="1"/>
        <pt x="297" y="648" on="1"/>
        <pt x="297" y="600" on="1"/>
        <pt x="217" y="584" on="1"/>
        <pt x="217" y="278" on="1"/>
        <pt x="217" y="188" on="0"/>
        <pt x="246" y="95" on="0"/>
        <pt x="316" y="58" on="0"/>
        <pt x="384" y="58" on="1"/>
        <pt x="443" y="58" on="0"/>
        <pt x="508" y="104" on="0"/>
        <pt x="535" y="198" on="0"/>
        <pt x="535" y="278" on="1"/>
        <pt x="535" y="583" on="1"/>
        <pt x="454" y="599" on="1"/>
        <pt x="454" y="648" on="1"/>
        <pt x="692" y="648" on="1"/>
        <pt x="692" y="599" on="1"/>
        <pt x="611" y="583" on="1"/>
        <pt x="611" y="278" on="1"/>
        <pt x="611" y="176" on="0"/>
        <pt x="565" y="49" on="0"/>
        <pt x="454" y="-15" on="0"/>
        <pt x="357" y="-15" on="1"/>
      </contour>
    </TTGlyph>
    <TTGlyph name="Uhorn" xMin="32" yMin="-15" xMax="774" yMax="777">
      <contour>
        <pt x="261" y="-15" on="0"/>
        <pt x="156" y="47" on="0"/>
        <pt x="114" y="173" on="0"/>
        <pt x="114" y="278" on="1"/>
        <pt x="114" y="584" on="1"/>
        <pt x="32" y="600" on="1"/>
        <pt x="32" y="648" on="1"/>
        <pt x="297" y="648" on="1"/>
        <pt x="297" y="600" on="1"/>
        <pt x="217" y="584" on="1"/>
        <pt x="217" y="278" on="1"/>
        <pt x="217" y="188" on="0"/>
        <pt x="246" y="95" on="0"/>
        <pt x="316" y="58" on="0"/>
        <pt x="384" y="58" on="1"/>
        <pt x="442" y="58" on="0"/>
        <pt x="508" y="104" on="0"/>
        <pt x="535" y="199" on="0"/>
        <pt x="535" y="278" on="1"/>
        <pt x="535" y="583" on="1"/>
        <pt x="454" y="599" on="1"/>
        <pt x="454" y="648" on="1"/>
        <pt x="636" y="648" on="1"/>
        <pt x="673" y="648" on="0"/>
        <pt x="700" y="665" on="0"/>
        <pt x="700" y="688" on="1"/>
        <pt x="700" y="699" on="0"/>
        <pt x="691" y="713" on="0"/>
        <pt x="681" y="720" on="1"/>
        <pt x="681" y="735" on="1"/>
        <pt x="742" y="777" on="1"/>
        <pt x="757" y="765" on="0"/>
        <pt x="774" y="741" on="0"/>
        <pt x="774" y="715" on="1"/>
        <pt x="774" y="683" on="0"/>
        <pt x="700" y="608" on="0"/>
        <pt x="611" y="582" on="1"/>
        <pt x="611" y="278" on="1"/>
        <pt x="611" y="175" on="0"/>
        <pt x="567" y="49" on="0"/>
        <pt x="456" y="-15" on="0"/>
        <pt x="357" y="-15" on="1"/>
      </contour>
    </TTGlyph>
    <TTGlyph name="Uhungarumlaut" xMin="32" yMin="-15" xMax="692" yMax="843">
      <contour>
        <pt x="208" y="706" on="1"/>
        <pt x="293" y="811" on="1"/>
        <pt x="307" y="828" on="0"/>
        <pt x="328" y="843" on="0"/>
        <pt x="341" y="843" on="1"/>
        <pt x="357" y="843" on="0"/>
        <pt x="383" y="809" on="0"/>
        <pt x="389" y="779" on="1"/>
        <pt x="238" y="675" on="1"/>
      </contour>
      <contour>
        <pt x="394" y="706" on="1"/>
        <pt x="479" y="811" on="1"/>
        <pt x="493" y="828" on="0"/>
        <pt x="514" y="843" on="0"/>
        <pt x="526" y="843" on="1"/>
        <pt x="542" y="843" on="0"/>
        <pt x="569" y="809" on="0"/>
        <pt x="575" y="779" on="1"/>
        <pt x="424" y="675" on="1"/>
      </contour>
      <contour>
        <pt x="261" y="-15" on="0"/>
        <pt x="156" y="47" on="0"/>
        <pt x="114" y="173" on="0"/>
        <pt x="114" y="278" on="1"/>
        <pt x="114" y="584" on="1"/>
        <pt x="32" y="600" on="1"/>
        <pt x="32" y="648" on="1"/>
        <pt x="297" y="648" on="1"/>
        <pt x="297" y="600" on="1"/>
        <pt x="217" y="584" on="1"/>
        <pt x="217" y="278" on="1"/>
        <pt x="217" y="188" on="0"/>
        <pt x="246" y="95" on="0"/>
        <pt x="316" y="58" on="0"/>
        <pt x="384" y="58" on="1"/>
        <pt x="442" y="58" on="0"/>
        <pt x="508" y="104" on="0"/>
        <pt x="534" y="198" on="0"/>
        <pt x="535" y="278" on="1"/>
        <pt x="535" y="583" on="1"/>
        <pt x="454" y="599" on="1"/>
        <pt x="454" y="648" on="1"/>
        <pt x="692" y="648" on="1"/>
        <pt x="692" y="599" on="1"/>
        <pt x="611" y="583" on="1"/>
        <pt x="611" y="278" on="1"/>
        <pt x="611" y="176" on="0"/>
        <pt x="565" y="49" on="0"/>
        <pt x="454" y="-15" on="0"/>
        <pt x="357" y="-15" on="1"/>
      </contour>
    </TTGlyph>
    <TTGlyph name="Umacron" xMin="32" yMin="-15" xMax="692" yMax="788">
      <contour>
        <pt x="546" y="788" on="1"/>
        <pt x="536" y="723" on="1"/>
        <pt x="199" y="723" on="1"/>
        <pt x="210" y="788" on="1"/>
      </contour>
      <contour>
        <pt x="32" y="600" on="1"/>
        <pt x="32" y="648" on="1"/>
        <pt x="297" y="648" on="1"/>
        <pt x="297" y="600" on="1"/>
        <pt x="217" y="584" on="1"/>
        <pt x="217" y="278" on="1"/>
        <pt x="217" y="188" on="0"/>
        <pt x="246" y="95" on="0"/>
        <pt x="316" y="58" on="0"/>
        <pt x="384" y="58" on="1"/>
        <pt x="442" y="58" on="0"/>
        <pt x="508" y="104" on="0"/>
        <pt x="534" y="198" on="0"/>
        <pt x="535" y="278" on="1"/>
        <pt x="535" y="583" on="1"/>
        <pt x="454" y="599" on="1"/>
        <pt x="454" y="648" on="1"/>
        <pt x="692" y="648" on="1"/>
        <pt x="692" y="599" on="1"/>
        <pt x="611" y="583" on="1"/>
        <pt x="611" y="278" on="1"/>
        <pt x="611" y="176" on="0"/>
        <pt x="565" y="49" on="0"/>
        <pt x="454" y="-15" on="0"/>
        <pt x="357" y="-15" on="1"/>
        <pt x="261" y="-15" on="0"/>
        <pt x="156" y="47" on="0"/>
        <pt x="114" y="173" on="0"/>
        <pt x="114" y="278" on="1"/>
        <pt x="114" y="584" on="1"/>
      </contour>
    </TTGlyph>
    <TTGlyph name="Uogonek" xMin="32" yMin="-187" xMax="692" yMax="648">
      <contour>
        <pt x="406" y="-187" on="0"/>
        <pt x="358" y="-149" on="0"/>
        <pt x="358" y="-113" on="1"/>
        <pt x="358" y="-55" on="0"/>
        <pt x="417" y="-11" on="1"/>
        <pt x="381" y="-15" on="0"/>
        <pt x="357" y="-15" on="1"/>
        <pt x="261" y="-15" on="0"/>
        <pt x="156" y="47" on="0"/>
        <pt x="114" y="173" on="0"/>
        <pt x="114" y="278" on="1"/>
        <pt x="114" y="584" on="1"/>
        <pt x="32" y="600" on="1"/>
        <pt x="32" y="648" on="1"/>
        <pt x="297" y="648" on="1"/>
        <pt x="297" y="600" on="1"/>
        <pt x="217" y="584" on="1"/>
        <pt x="217" y="278" on="1"/>
        <pt x="217" y="188" on="0"/>
        <pt x="246" y="95" on="0"/>
        <pt x="316" y="58" on="0"/>
        <pt x="384" y="58" on="1"/>
        <pt x="442" y="58" on="0"/>
        <pt x="508" y="104" on="0"/>
        <pt x="534" y="198" on="0"/>
        <pt x="535" y="278" on="1"/>
        <pt x="535" y="583" on="1"/>
        <pt x="454" y="599" on="1"/>
        <pt x="454" y="648" on="1"/>
        <pt x="692" y="648" on="1"/>
        <pt x="692" y="599" on="1"/>
        <pt x="611" y="583" on="1"/>
        <pt x="611" y="278" on="1"/>
        <pt x="611" y="173" on="0"/>
        <pt x="561" y="43" on="0"/>
        <pt x="501" y="13" on="1"/>
        <pt x="477" y="-2" on="0"/>
        <pt x="432" y="-58" on="0"/>
        <pt x="432" y="-82" on="1"/>
        <pt x="432" y="-123" on="0"/>
        <pt x="472" y="-123" on="1"/>
        <pt x="493" y="-123" on="0"/>
        <pt x="528" y="-103" on="1"/>
        <pt x="548" y="-136" on="1"/>
        <pt x="530" y="-156" on="0"/>
        <pt x="474" y="-187" on="0"/>
        <pt x="445" y="-187" on="1"/>
      </contour>
    </TTGlyph>
    <TTGlyph name="Uring" xMin="32" yMin="-15" xMax="692" yMax="824">
      <contour>
        <pt x="286" y="775" on="0"/>
        <pt x="339" y="824" on="0"/>
        <pt x="383" y="824" on="1"/>
        <pt x="426" y="824" on="0"/>
        <pt x="475" y="781" on="0"/>
        <pt x="475" y="740" on="1"/>
        <pt x="475" y="697" on="0"/>
        <pt x="421" y="649" on="0"/>
        <pt x="377" y="649" on="1"/>
        <pt x="332" y="649" on="0"/>
        <pt x="286" y="691" on="0"/>
        <pt x="286" y="733" on="1"/>
      </contour>
      <contour>
        <pt x="403" y="694" on="0"/>
        <pt x="418" y="712" on="0"/>
        <pt x="418" y="734" on="1"/>
        <pt x="418" y="759" on="0"/>
        <pt x="404" y="778" on="0"/>
        <pt x="381" y="778" on="1"/>
        <pt x="359" y="778" on="0"/>
        <pt x="342" y="760" on="0"/>
        <pt x="342" y="737" on="1"/>
        <pt x="342" y="712" on="0"/>
        <pt x="357" y="694" on="0"/>
        <pt x="381" y="694" on="1"/>
      </contour>
      <contour>
        <pt x="32" y="600" on="1"/>
        <pt x="32" y="648" on="1"/>
        <pt x="297" y="648" on="1"/>
        <pt x="297" y="600" on="1"/>
        <pt x="217" y="584" on="1"/>
        <pt x="217" y="278" on="1"/>
        <pt x="217" y="188" on="0"/>
        <pt x="246" y="95" on="0"/>
        <pt x="316" y="58" on="0"/>
        <pt x="384" y="58" on="1"/>
        <pt x="442" y="58" on="0"/>
        <pt x="508" y="104" on="0"/>
        <pt x="534" y="198" on="0"/>
        <pt x="535" y="278" on="1"/>
        <pt x="535" y="583" on="1"/>
        <pt x="454" y="599" on="1"/>
        <pt x="454" y="648" on="1"/>
        <pt x="692" y="648" on="1"/>
        <pt x="692" y="599" on="1"/>
        <pt x="611" y="583" on="1"/>
        <pt x="611" y="278" on="1"/>
        <pt x="611" y="176" on="0"/>
        <pt x="565" y="49" on="0"/>
        <pt x="454" y="-15" on="0"/>
        <pt x="357" y="-15" on="1"/>
        <pt x="261" y="-15" on="0"/>
        <pt x="156" y="47" on="0"/>
        <pt x="114" y="173" on="0"/>
        <pt x="114" y="278" on="1"/>
        <pt x="114" y="584" on="1"/>
      </contour>
    </TTGlyph>
    <TTGlyph name="Utilde" xMin="32" yMin="-15" xMax="692" yMax="817">
      <component glyphName=".ttfautohint" x="32" y="0" flags="0x0"/>
      <component glyphName="U" x="0" y="0" flags="0x0"/>
      <component glyphName="tildecomb.case" x="540" y="0" flags="0x0"/>
    </TTGlyph>
    <TTGlyph name="V" xMin="-10" yMin="-7" xMax="621" yMax="648">
      <contour>
        <pt x="53" y="586" on="1"/>
        <pt x="-10" y="601" on="1"/>
        <pt x="-10" y="648" on="1"/>
        <pt x="251" y="648" on="1"/>
        <pt x="251" y="601" on="1"/>
        <pt x="175" y="586" on="1"/>
        <pt x="175" y="573" on="1"/>
        <pt x="317" y="160" on="1"/>
        <pt x="327" y="129" on="1"/>
        <pt x="338" y="155" on="1"/>
        <pt x="441" y="453" on="1"/>
        <pt x="481" y="586" on="1"/>
        <pt x="400" y="601" on="1"/>
        <pt x="400" y="648" on="1"/>
        <pt x="621" y="648" on="1"/>
        <pt x="621" y="601" on="1"/>
        <pt x="560" y="586" on="1"/>
        <pt x="346" y="-7" on="1"/>
        <pt x="279" y="-7" on="1"/>
      </contour>
    </TTGlyph>
    <TTGlyph name="W" xMin="-4" yMin="-7" xMax="971" yMax="648">
      <contour>
        <pt x="59" y="586" on="1"/>
        <pt x="-4" y="601" on="1"/>
        <pt x="-4" y="648" on="1"/>
        <pt x="254" y="648" on="1"/>
        <pt x="254" y="601" on="1"/>
        <pt x="177" y="586" on="1"/>
        <pt x="179" y="569" on="1"/>
        <pt x="294" y="159" on="1"/>
        <pt x="302" y="129" on="1"/>
        <pt x="305" y="129" on="1"/>
        <pt x="314" y="159" on="1"/>
        <pt x="446" y="523" on="1"/>
        <pt x="423" y="586" on="1"/>
        <pt x="351" y="601" on="1"/>
        <pt x="351" y="648" on="1"/>
        <pt x="619" y="648" on="1"/>
        <pt x="619" y="601" on="1"/>
        <pt x="541" y="586" on="1"/>
        <pt x="543" y="570" on="1"/>
        <pt x="695" y="159" on="1"/>
        <pt x="703" y="130" on="1"/>
        <pt x="708" y="130" on="1"/>
        <pt x="715" y="159" on="1"/>
        <pt x="827" y="569" on="1"/>
        <pt x="828" y="586" on="1"/>
        <pt x="746" y="601" on="1"/>
        <pt x="746" y="648" on="1"/>
        <pt x="971" y="648" on="1"/>
        <pt x="971" y="601" on="1"/>
        <pt x="910" y="586" on="1"/>
        <pt x="733" y="-7" on="1"/>
        <pt x="653" y="-7" on="1"/>
        <pt x="494" y="398" on="1"/>
        <pt x="488" y="417" on="1"/>
        <pt x="482" y="417" on="1"/>
        <pt x="476" y="396" on="1"/>
        <pt x="327" y="-7" on="1"/>
        <pt x="247" y="-7" on="1"/>
      </contour>
    </TTGlyph>
    <TTGlyph name="Wacute" xMin="-4" yMin="-7" xMax="971" yMax="838">
      <component glyphName=".ttfautohint" x="0" y="0" flags="0x0"/>
      <component glyphName="W" x="0" y="0" flags="0x0"/>
      <component glyphName="acutecomb.case" x="646" y="0" flags="0x0"/>
    </TTGlyph>
    <TTGlyph name="Wcircumflex" xMin="-4" yMin="-7" xMax="971" yMax="837">
      <component glyphName=".ttfautohint" x="0" y="0" flags="0x0"/>
      <component glyphName="W" x="0" y="0" flags="0x0"/>
      <component glyphName="uni0302.case" x="642" y="0" flags="0x0"/>
    </TTGlyph>
    <TTGlyph name="Wdieresis" xMin="-4" yMin="-7" xMax="971" yMax="816">
      <component glyphName=".ttfautohint" x="0" y="0" flags="0x0"/>
      <component glyphName="W" x="0" y="0" flags="0x0"/>
      <component glyphName="uni0308.case" x="653" y="0" flags="0x0"/>
    </TTGlyph>
    <TTGlyph name="Wgrave" xMin="-4" yMin="-7" xMax="971" yMax="838">
      <component glyphName=".ttfautohint" x="0" y="0" flags="0x0"/>
      <component glyphName="W" x="0" y="0" flags="0x0"/>
      <component glyphName="gravecomb.case" x="556" y="0" flags="0x0"/>
    </TTGlyph>
    <TTGlyph name="X" xMin="3" yMin="0" xMax="619" yMax="648">
      <contour>
        <pt x="72" y="63" on="1"/>
        <pt x="251" y="320" on="1"/>
        <pt x="73" y="580" on="1"/>
        <pt x="8" y="600" on="1"/>
        <pt x="8" y="648" on="1"/>
        <pt x="270" y="648" on="1"/>
        <pt x="270" y="600" on="1"/>
        <pt x="208" y="586" on="1"/>
        <pt x="208" y="568" on="1"/>
        <pt x="322" y="401" on="1"/>
        <pt x="445" y="572" on="1"/>
        <pt x="445" y="588" on="1"/>
        <pt x="377" y="601" on="1"/>
        <pt x="377" y="648" on="1"/>
        <pt x="605" y="648" on="1"/>
        <pt x="605" y="602" on="1"/>
        <pt x="537" y="586" on="1"/>
        <pt x="360" y="344" on="1"/>
        <pt x="548" y="63" on="1"/>
        <pt x="619" y="48" on="1"/>
        <pt x="619" y="0" on="1"/>
        <pt x="352" y="0" on="1"/>
        <pt x="352" y="48" on="1"/>
        <pt x="420" y="63" on="1"/>
        <pt x="420" y="75" on="1"/>
        <pt x="290" y="263" on="1"/>
        <pt x="159" y="76" on="1"/>
        <pt x="159" y="60" on="1"/>
        <pt x="222" y="47" on="1"/>
        <pt x="222" y="0" on="1"/>
        <pt x="3" y="0" on="1"/>
        <pt x="3" y="48" on="1"/>
      </contour>
    </TTGlyph>
    <TTGlyph name="Y" xMin="-4" yMin="0" xMax="608" yMax="648">
      <contour>
        <pt x="255" y="64" on="1"/>
        <pt x="255" y="237" on="1"/>
        <pt x="59" y="587" on="1"/>
        <pt x="-4" y="603" on="1"/>
        <pt x="-4" y="648" on="1"/>
        <pt x="248" y="648" on="1"/>
        <pt x="248" y="603" on="1"/>
        <pt x="176" y="587" on="1"/>
        <pt x="176" y="570" on="1"/>
        <pt x="314" y="309" on="1"/>
        <pt x="327" y="309" on="1"/>
        <pt x="463" y="572" on="1"/>
        <pt x="463" y="587" on="1"/>
        <pt x="386" y="603" on="1"/>
        <pt x="386" y="648" on="1"/>
        <pt x="608" y="648" on="1"/>
        <pt x="608" y="603" on="1"/>
        <pt x="545" y="586" on="1"/>
        <pt x="359" y="246" on="1"/>
        <pt x="359" y="64" on="1"/>
        <pt x="440" y="48" on="1"/>
        <pt x="440" y="0" on="1"/>
        <pt x="174" y="0" on="1"/>
        <pt x="174" y="48" on="1"/>
      </contour>
    </TTGlyph>
    <TTGlyph name="Y.loclGUA" xMin="32" yMin="-15" xMax="672" yMax="648">
      <contour>
        <pt x="672" y="648" on="1"/>
        <pt x="672" y="600" on="1"/>
        <pt x="597" y="584" on="1"/>
        <pt x="597" y="251" on="1"/>
        <pt x="597" y="117" on="0"/>
        <pt x="470" y="-15" on="0"/>
        <pt x="336" y="-15" on="1"/>
        <pt x="214" y="-15" on="0"/>
        <pt x="114" y="39" on="1"/>
        <pt x="114" y="193" on="1"/>
        <pt x="168" y="193" on="1"/>
        <pt x="196" y="80" on="1"/>
        <pt x="261" y="45" on="0"/>
        <pt x="332" y="45" on="1"/>
        <pt x="422" y="45" on="0"/>
        <pt x="493" y="150" on="0"/>
        <pt x="493" y="243" on="1"/>
        <pt x="493" y="248" on="1"/>
        <pt x="423" y="204" on="0"/>
        <pt x="336" y="204" on="1"/>
        <pt x="213" y="204" on="0"/>
        <pt x="114" y="331" on="0"/>
        <pt x="114" y="460" on="1"/>
        <pt x="114" y="584" on="1"/>
        <pt x="32" y="600" on="1"/>
        <pt x="32" y="648" on="1"/>
        <pt x="297" y="648" on="1"/>
        <pt x="297" y="600" on="1"/>
        <pt x="217" y="584" on="1"/>
        <pt x="217" y="474" on="1"/>
        <pt x="217" y="374" on="0"/>
        <pt x="275" y="274" on="0"/>
        <pt x="354" y="274" on="1"/>
        <pt x="431" y="274" on="0"/>
        <pt x="493" y="333" on="1"/>
        <pt x="493" y="583" on="1"/>
        <pt x="403" y="600" on="1"/>
        <pt x="403" y="648" on="1"/>
      </contour>
    </TTGlyph>
    <TTGlyph name="Yacute" xMin="-7" yMin="0" xMax="605" yMax="838">
      <contour>
        <pt x="215" y="718" on="1"/>
        <pt x="350" y="816" on="1"/>
        <pt x="362" y="824" on="0"/>
        <pt x="387" y="838" on="0"/>
        <pt x="395" y="838" on="1"/>
        <pt x="416" y="838" on="0"/>
        <pt x="440" y="794" on="0"/>
        <pt x="439" y="759" on="1"/>
        <pt x="238" y="678" on="1"/>
      </contour>
      <contour>
        <pt x="171" y="48" on="1"/>
        <pt x="252" y="64" on="1"/>
        <pt x="252" y="237" on="1"/>
        <pt x="56" y="587" on="1"/>
        <pt x="-7" y="603" on="1"/>
        <pt x="-7" y="648" on="1"/>
        <pt x="245" y="648" on="1"/>
        <pt x="245" y="603" on="1"/>
        <pt x="174" y="587" on="1"/>
        <pt x="174" y="570" on="1"/>
        <pt x="311" y="309" on="1"/>
        <pt x="324" y="309" on="1"/>
        <pt x="460" y="572" on="1"/>
        <pt x="460" y="587" on="1"/>
        <pt x="384" y="603" on="1"/>
        <pt x="384" y="648" on="1"/>
        <pt x="605" y="648" on="1"/>
        <pt x="605" y="603" on="1"/>
        <pt x="542" y="586" on="1"/>
        <pt x="356" y="246" on="1"/>
        <pt x="356" y="64" on="1"/>
        <pt x="437" y="48" on="1"/>
        <pt x="437" y="0" on="1"/>
        <pt x="171" y="0" on="1"/>
      </contour>
    </TTGlyph>
    <TTGlyph name="Yacute.loclGUA" xMin="32" yMin="-15" xMax="672" yMax="838">
      <component glyphName=".ttfautohint" x="32" y="0" flags="0x0"/>
      <component glyphName="Y.loclGUA" x="0" y="0" flags="0x0"/>
      <component glyphName="acutecomb.case" x="522" y="0" flags="0x0"/>
    </TTGlyph>
    <TTGlyph name="Ycircumflex" xMin="-4" yMin="0" xMax="608" yMax="837">
      <component glyphName=".ttfautohint" x="0" y="0" flags="0x0"/>
      <component glyphName="Y" x="0" y="0" flags="0x0"/>
      <component glyphName="uni0302.case" x="477" y="0" flags="0x0"/>
    </TTGlyph>
    <TTGlyph name="Ycircumflex.loclGUA" xMin="32" yMin="-15" xMax="672" yMax="837">
      <component glyphName=".ttfautohint" x="32" y="0" flags="0x0"/>
      <component glyphName="Y.loclGUA" x="0" y="0" flags="0x0"/>
      <component glyphName="uni0302.case" x="518" y="0" flags="0x0"/>
    </TTGlyph>
    <TTGlyph name="Ydieresis" xMin="-7" yMin="0" xMax="605" yMax="821">
      <contour>
        <pt x="171" y="694" on="0"/>
        <pt x="140" y="728" on="0"/>
        <pt x="140" y="755" on="1"/>
        <pt x="140" y="782" on="0"/>
        <pt x="176" y="821" on="0"/>
        <pt x="202" y="821" on="1"/>
        <pt x="227" y="821" on="0"/>
        <pt x="259" y="789" on="0"/>
        <pt x="259" y="762" on="1"/>
        <pt x="259" y="734" on="0"/>
        <pt x="224" y="694" on="0"/>
        <pt x="196" y="694" on="1"/>
      </contour>
      <contour>
        <pt x="393" y="694" on="0"/>
        <pt x="361" y="728" on="0"/>
        <pt x="361" y="755" on="1"/>
        <pt x="361" y="782" on="0"/>
        <pt x="397" y="821" on="0"/>
        <pt x="423" y="821" on="1"/>
        <pt x="448" y="821" on="0"/>
        <pt x="480" y="789" on="0"/>
        <pt x="480" y="762" on="1"/>
        <pt x="480" y="734" on="0"/>
        <pt x="446" y="694" on="0"/>
        <pt x="418" y="694" on="1"/>
      </contour>
      <contour>
        <pt x="252" y="64" on="1"/>
        <pt x="252" y="237" on="1"/>
        <pt x="56" y="587" on="1"/>
        <pt x="-7" y="603" on="1"/>
        <pt x="-7" y="648" on="1"/>
        <pt x="245" y="648" on="1"/>
        <pt x="245" y="603" on="1"/>
        <pt x="174" y="587" on="1"/>
        <pt x="174" y="570" on="1"/>
        <pt x="311" y="309" on="1"/>
        <pt x="324" y="309" on="1"/>
        <pt x="460" y="572" on="1"/>
        <pt x="460" y="587" on="1"/>
        <pt x="384" y="603" on="1"/>
        <pt x="384" y="648" on="1"/>
        <pt x="605" y="648" on="1"/>
        <pt x="605" y="603" on="1"/>
        <pt x="542" y="586" on="1"/>
        <pt x="356" y="246" on="1"/>
        <pt x="356" y="64" on="1"/>
        <pt x="437" y="48" on="1"/>
        <pt x="437" y="0" on="1"/>
        <pt x="171" y="0" on="1"/>
        <pt x="171" y="48" on="1"/>
      </contour>
    </TTGlyph>
    <TTGlyph name="Ydieresis.loclGUA" xMin="32" yMin="-15" xMax="672" yMax="816">
      <component glyphName=".ttfautohint" x="32" y="0" flags="0x0"/>
      <component glyphName="Y.loclGUA" x="0" y="0" flags="0x0"/>
      <component glyphName="uni0308.case" x="529" y="0" flags="0x0"/>
    </TTGlyph>
    <TTGlyph name="Ygrave" xMin="-4" yMin="0" xMax="608" yMax="838">
      <component glyphName=".ttfautohint" x="0" y="0" flags="0x0"/>
      <component glyphName="Y" x="0" y="0" flags="0x0"/>
      <component glyphName="gravecomb.case" x="391" y="0" flags="0x0"/>
    </TTGlyph>
    <TTGlyph name="Ygrave.loclGUA" xMin="32" yMin="-15" xMax="672" yMax="838">
      <component glyphName=".ttfautohint" x="32" y="0" flags="0x0"/>
      <component glyphName="Y.loclGUA" x="0" y="0" flags="0x0"/>
      <component glyphName="gravecomb.case" x="432" y="0" flags="0x0"/>
    </TTGlyph>
    <TTGlyph name="Z" xMin="26" yMin="0" xMax="521" yMax="648">
      <contour>
        <pt x="378" y="567" on="1"/>
        <pt x="378" y="584" on="1"/>
        <pt x="117" y="584" on="1"/>
        <pt x="91" y="481" on="1"/>
        <pt x="36" y="481" on="1"/>
        <pt x="36" y="648" on="1"/>
        <pt x="513" y="648" on="1"/>
        <pt x="513" y="579" on="1"/>
        <pt x="154" y="76" on="1"/>
        <pt x="154" y="64" on="1"/>
        <pt x="439" y="64" on="1"/>
        <pt x="465" y="168" on="1"/>
        <pt x="521" y="168" on="1"/>
        <pt x="521" y="0" on="1"/>
        <pt x="26" y="0" on="1"/>
        <pt x="26" y="64" on="1"/>
      </contour>
    </TTGlyph>
    <TTGlyph name="Zacute" xMin="26" yMin="0" xMax="521" yMax="838">
      <contour>
        <pt x="176" y="718" on="1"/>
        <pt x="311" y="816" on="1"/>
        <pt x="323" y="824" on="0"/>
        <pt x="348" y="838" on="0"/>
        <pt x="356" y="838" on="1"/>
        <pt x="377" y="838" on="0"/>
        <pt x="401" y="795" on="0"/>
        <pt x="400" y="759" on="1"/>
        <pt x="199" y="678" on="1"/>
      </contour>
      <contour>
        <pt x="26" y="64" on="1"/>
        <pt x="378" y="567" on="1"/>
        <pt x="378" y="584" on="1"/>
        <pt x="118" y="584" on="1"/>
        <pt x="91" y="481" on="1"/>
        <pt x="36" y="481" on="1"/>
        <pt x="36" y="648" on="1"/>
        <pt x="513" y="648" on="1"/>
        <pt x="513" y="579" on="1"/>
        <pt x="154" y="76" on="1"/>
        <pt x="154" y="64" on="1"/>
        <pt x="439" y="64" on="1"/>
        <pt x="466" y="168" on="1"/>
        <pt x="521" y="168" on="1"/>
        <pt x="521" y="0" on="1"/>
        <pt x="26" y="0" on="1"/>
      </contour>
    </TTGlyph>
    <TTGlyph name="Zacute.loclPLK" xMin="26" yMin="0" xMax="521" yMax="865">
      <contour>
        <pt x="245" y="698" on="1"/>
        <pt x="316" y="824" on="1"/>
        <pt x="319" y="828" on="0"/>
        <pt x="336" y="853" on="0"/>
        <pt x="352" y="865" on="0"/>
        <pt x="361" y="865" on="1"/>
        <pt x="396" y="865" on="0"/>
        <pt x="421" y="808" on="1"/>
        <pt x="286" y="666" on="1"/>
      </contour>
      <contour>
        <pt x="378" y="567" on="1"/>
        <pt x="378" y="584" on="1"/>
        <pt x="117" y="584" on="1"/>
        <pt x="91" y="481" on="1"/>
        <pt x="36" y="481" on="1"/>
        <pt x="36" y="648" on="1"/>
        <pt x="513" y="648" on="1"/>
        <pt x="513" y="579" on="1"/>
        <pt x="154" y="76" on="1"/>
        <pt x="154" y="64" on="1"/>
        <pt x="439" y="64" on="1"/>
        <pt x="465" y="168" on="1"/>
        <pt x="521" y="168" on="1"/>
        <pt x="521" y="0" on="1"/>
        <pt x="26" y="0" on="1"/>
        <pt x="26" y="64" on="1"/>
      </contour>
    </TTGlyph>
    <TTGlyph name="Zcaron" xMin="26" yMin="0" xMax="521" yMax="845">
      <contour>
        <pt x="277" y="777" on="1"/>
        <pt x="400" y="844" on="1"/>
        <pt x="427" y="806" on="1"/>
        <pt x="343" y="733" on="1"/>
        <pt x="336" y="727" on="0"/>
        <pt x="297" y="694" on="0"/>
        <pt x="278" y="682" on="0"/>
        <pt x="272" y="682" on="1"/>
        <pt x="263" y="682" on="0"/>
        <pt x="238" y="700" on="0"/>
        <pt x="206" y="728" on="0"/>
        <pt x="200" y="733" on="1"/>
        <pt x="121" y="802" on="1"/>
        <pt x="157" y="845" on="1"/>
      </contour>
      <contour>
        <pt x="378" y="567" on="1"/>
        <pt x="378" y="584" on="1"/>
        <pt x="118" y="584" on="1"/>
        <pt x="91" y="481" on="1"/>
        <pt x="36" y="481" on="1"/>
        <pt x="36" y="648" on="1"/>
        <pt x="513" y="648" on="1"/>
        <pt x="513" y="579" on="1"/>
        <pt x="154" y="76" on="1"/>
        <pt x="154" y="64" on="1"/>
        <pt x="439" y="64" on="1"/>
        <pt x="466" y="168" on="1"/>
        <pt x="521" y="168" on="1"/>
        <pt x="521" y="0" on="1"/>
        <pt x="26" y="0" on="1"/>
        <pt x="26" y="64" on="1"/>
      </contour>
    </TTGlyph>
    <TTGlyph name="Zdotaccent" xMin="26" yMin="0" xMax="521" yMax="828">
      <contour>
        <pt x="239" y="688" on="0"/>
        <pt x="205" y="726" on="0"/>
        <pt x="205" y="756" on="1"/>
        <pt x="205" y="785" on="0"/>
        <pt x="244" y="828" on="0"/>
        <pt x="273" y="828" on="1"/>
        <pt x="301" y="828" on="0"/>
        <pt x="336" y="792" on="0"/>
        <pt x="336" y="762" on="1"/>
        <pt x="336" y="731" on="0"/>
        <pt x="298" y="688" on="0"/>
        <pt x="267" y="688" on="1"/>
      </contour>
      <contour>
        <pt x="378" y="567" on="1"/>
        <pt x="378" y="584" on="1"/>
        <pt x="118" y="584" on="1"/>
        <pt x="91" y="481" on="1"/>
        <pt x="36" y="481" on="1"/>
        <pt x="36" y="648" on="1"/>
        <pt x="513" y="648" on="1"/>
        <pt x="513" y="579" on="1"/>
        <pt x="154" y="76" on="1"/>
        <pt x="154" y="64" on="1"/>
        <pt x="439" y="64" on="1"/>
        <pt x="466" y="168" on="1"/>
        <pt x="521" y="168" on="1"/>
        <pt x="521" y="0" on="1"/>
        <pt x="26" y="0" on="1"/>
        <pt x="26" y="64" on="1"/>
      </contour>
    </TTGlyph>
    <TTGlyph name="a" xMin="37" yMin="-9" xMax="476" yMax="505">
      <contour>
        <pt x="108" y="-9" on="0"/>
        <pt x="37" y="63" on="0"/>
        <pt x="37" y="117" on="1"/>
        <pt x="37" y="180" on="0"/>
        <pt x="127" y="255" on="0"/>
        <pt x="212" y="267" on="1"/>
        <pt x="307" y="282" on="1"/>
        <pt x="307" y="354" on="1"/>
        <pt x="307" y="396" on="0"/>
        <pt x="263" y="436" on="0"/>
        <pt x="216" y="436" on="1"/>
        <pt x="194" y="436" on="0"/>
        <pt x="163" y="430" on="0"/>
        <pt x="159" y="429" on="1"/>
        <pt x="144" y="337" on="1"/>
        <pt x="142" y="336" on="0"/>
        <pt x="122" y="329" on="0"/>
        <pt x="106" y="329" on="1"/>
        <pt x="83" y="329" on="0"/>
        <pt x="53" y="355" on="0"/>
        <pt x="53" y="379" on="1"/>
        <pt x="53" y="418" on="0"/>
        <pt x="125" y="475" on="0"/>
        <pt x="224" y="505" on="0"/>
        <pt x="260" y="505" on="1"/>
        <pt x="330" y="505" on="0"/>
        <pt x="404" y="441" on="0"/>
        <pt x="404" y="384" on="1"/>
        <pt x="404" y="72" on="1"/>
        <pt x="476" y="58" on="1"/>
        <pt x="476" y="16" on="1"/>
        <pt x="472" y="14" on="0"/>
        <pt x="442" y="4" on="0"/>
        <pt x="396" y="-5" on="0"/>
        <pt x="372" y="-5" on="1"/>
        <pt x="343" y="-5" on="0"/>
        <pt x="319" y="20" on="0"/>
        <pt x="314" y="42" on="1"/>
        <pt x="309" y="42" on="1"/>
        <pt x="295" y="26" on="0"/>
        <pt x="223" y="-9" on="0"/>
        <pt x="180" y="-9" on="1"/>
      </contour>
      <contour>
        <pt x="254" y="61" on="0"/>
        <pt x="297" y="74" on="0"/>
        <pt x="307" y="79" on="1"/>
        <pt x="307" y="228" on="1"/>
        <pt x="216" y="221" on="0"/>
        <pt x="140" y="176" on="0"/>
        <pt x="140" y="133" on="1"/>
        <pt x="140" y="102" on="0"/>
        <pt x="185" y="61" on="0"/>
        <pt x="227" y="61" on="1"/>
      </contour>
    </TTGlyph>
    <TTGlyph name="aacute" xMin="33" yMin="-9" xMax="472" yMax="721">
      <contour>
        <pt x="145" y="569" on="1"/>
        <pt x="250" y="688" on="1"/>
        <pt x="264" y="704" on="0"/>
        <pt x="284" y="721" on="0"/>
        <pt x="295" y="721" on="1"/>
        <pt x="311" y="721" on="0"/>
        <pt x="344" y="684" on="0"/>
        <pt x="350" y="652" on="1"/>
        <pt x="175" y="535" on="1"/>
      </contour>
      <contour>
        <pt x="104" y="-9" on="0"/>
        <pt x="33" y="63" on="0"/>
        <pt x="33" y="117" on="1"/>
        <pt x="33" y="180" on="0"/>
        <pt x="123" y="255" on="0"/>
        <pt x="208" y="267" on="1"/>
        <pt x="304" y="282" on="1"/>
        <pt x="304" y="354" on="1"/>
        <pt x="304" y="396" on="0"/>
        <pt x="260" y="436" on="0"/>
        <pt x="213" y="436" on="1"/>
        <pt x="191" y="436" on="0"/>
        <pt x="160" y="430" on="0"/>
        <pt x="156" y="429" on="1"/>
        <pt x="141" y="337" on="1"/>
        <pt x="139" y="336" on="0"/>
        <pt x="118" y="329" on="0"/>
        <pt x="103" y="329" on="1"/>
        <pt x="80" y="329" on="0"/>
        <pt x="50" y="355" on="0"/>
        <pt x="50" y="379" on="1"/>
        <pt x="50" y="418" on="0"/>
        <pt x="122" y="475" on="0"/>
        <pt x="221" y="505" on="0"/>
        <pt x="257" y="505" on="1"/>
        <pt x="327" y="505" on="0"/>
        <pt x="400" y="441" on="0"/>
        <pt x="400" y="384" on="1"/>
        <pt x="400" y="72" on="1"/>
        <pt x="472" y="58" on="1"/>
        <pt x="472" y="16" on="1"/>
        <pt x="468" y="14" on="0"/>
        <pt x="438" y="4" on="0"/>
        <pt x="393" y="-5" on="0"/>
        <pt x="369" y="-5" on="1"/>
        <pt x="340" y="-5" on="0"/>
        <pt x="315" y="20" on="0"/>
        <pt x="311" y="42" on="1"/>
        <pt x="305" y="42" on="1"/>
        <pt x="292" y="27" on="0"/>
        <pt x="219" y="-9" on="0"/>
        <pt x="176" y="-9" on="1"/>
      </contour>
      <contour>
        <pt x="251" y="61" on="0"/>
        <pt x="294" y="74" on="0"/>
        <pt x="304" y="79" on="1"/>
        <pt x="304" y="228" on="1"/>
        <pt x="213" y="221" on="0"/>
        <pt x="137" y="176" on="0"/>
        <pt x="137" y="133" on="1"/>
        <pt x="137" y="101" on="0"/>
        <pt x="182" y="61" on="0"/>
        <pt x="224" y="61" on="1"/>
      </contour>
    </TTGlyph>
    <TTGlyph name="abreve" xMin="33" yMin="-9" xMax="472" yMax="711">
      <contour>
        <pt x="169" y="552" on="0"/>
        <pt x="98" y="614" on="0"/>
        <pt x="74" y="681" on="0"/>
        <pt x="74" y="692" on="1"/>
        <pt x="132" y="710" on="1"/>
        <pt x="132" y="703" on="0"/>
        <pt x="149" y="662" on="0"/>
        <pt x="197" y="624" on="0"/>
        <pt x="240" y="624" on="1"/>
        <pt x="282" y="624" on="0"/>
        <pt x="331" y="663" on="0"/>
        <pt x="349" y="705" on="0"/>
        <pt x="349" y="711" on="1"/>
        <pt x="385" y="701" on="1"/>
        <pt x="385" y="688" on="0"/>
        <pt x="363" y="618" on="0"/>
        <pt x="296" y="552" on="0"/>
        <pt x="233" y="552" on="1"/>
      </contour>
      <contour>
        <pt x="104" y="-9" on="0"/>
        <pt x="33" y="63" on="0"/>
        <pt x="33" y="117" on="1"/>
        <pt x="33" y="180" on="0"/>
        <pt x="123" y="255" on="0"/>
        <pt x="208" y="267" on="1"/>
        <pt x="304" y="282" on="1"/>
        <pt x="304" y="354" on="1"/>
        <pt x="304" y="396" on="0"/>
        <pt x="260" y="436" on="0"/>
        <pt x="213" y="436" on="1"/>
        <pt x="191" y="436" on="0"/>
        <pt x="160" y="430" on="0"/>
        <pt x="156" y="429" on="1"/>
        <pt x="141" y="337" on="1"/>
        <pt x="139" y="336" on="0"/>
        <pt x="118" y="329" on="0"/>
        <pt x="103" y="329" on="1"/>
        <pt x="80" y="329" on="0"/>
        <pt x="50" y="355" on="0"/>
        <pt x="50" y="379" on="1"/>
        <pt x="50" y="418" on="0"/>
        <pt x="122" y="475" on="0"/>
        <pt x="221" y="505" on="0"/>
        <pt x="257" y="505" on="1"/>
        <pt x="327" y="505" on="0"/>
        <pt x="400" y="441" on="0"/>
        <pt x="400" y="384" on="1"/>
        <pt x="400" y="72" on="1"/>
        <pt x="472" y="58" on="1"/>
        <pt x="472" y="16" on="1"/>
        <pt x="468" y="14" on="0"/>
        <pt x="438" y="4" on="0"/>
        <pt x="393" y="-5" on="0"/>
        <pt x="369" y="-5" on="1"/>
        <pt x="340" y="-5" on="0"/>
        <pt x="315" y="20" on="0"/>
        <pt x="311" y="42" on="1"/>
        <pt x="305" y="42" on="1"/>
        <pt x="292" y="27" on="0"/>
        <pt x="219" y="-9" on="0"/>
        <pt x="176" y="-9" on="1"/>
      </contour>
      <contour>
        <pt x="251" y="61" on="0"/>
        <pt x="294" y="74" on="0"/>
        <pt x="304" y="79" on="1"/>
        <pt x="304" y="228" on="1"/>
        <pt x="213" y="221" on="0"/>
        <pt x="137" y="176" on="0"/>
        <pt x="137" y="133" on="1"/>
        <pt x="137" y="101" on="0"/>
        <pt x="182" y="61" on="0"/>
        <pt x="224" y="61" on="1"/>
      </contour>
    </TTGlyph>
    <TTGlyph name="acircumflex" xMin="33" yMin="-9" xMax="472" yMax="713">
      <contour>
        <pt x="229" y="623" on="1"/>
        <pt x="113" y="543" on="1"/>
        <pt x="84" y="578" on="1"/>
        <pt x="188" y="684" on="1"/>
        <pt x="217" y="713" on="0"/>
        <pt x="238" y="713" on="1"/>
        <pt x="255" y="713" on="0"/>
        <pt x="278" y="690" on="1"/>
        <pt x="384" y="581" on="1"/>
        <pt x="348" y="542" on="1"/>
      </contour>
      <contour>
        <pt x="104" y="-9" on="0"/>
        <pt x="33" y="63" on="0"/>
        <pt x="33" y="117" on="1"/>
        <pt x="33" y="180" on="0"/>
        <pt x="123" y="255" on="0"/>
        <pt x="208" y="267" on="1"/>
        <pt x="304" y="282" on="1"/>
        <pt x="304" y="354" on="1"/>
        <pt x="304" y="396" on="0"/>
        <pt x="260" y="436" on="0"/>
        <pt x="213" y="436" on="1"/>
        <pt x="191" y="436" on="0"/>
        <pt x="160" y="430" on="0"/>
        <pt x="156" y="429" on="1"/>
        <pt x="141" y="337" on="1"/>
        <pt x="139" y="336" on="0"/>
        <pt x="118" y="329" on="0"/>
        <pt x="103" y="329" on="1"/>
        <pt x="80" y="329" on="0"/>
        <pt x="50" y="355" on="0"/>
        <pt x="50" y="379" on="1"/>
        <pt x="50" y="418" on="0"/>
        <pt x="122" y="475" on="0"/>
        <pt x="221" y="505" on="0"/>
        <pt x="257" y="505" on="1"/>
        <pt x="327" y="505" on="0"/>
        <pt x="400" y="441" on="0"/>
        <pt x="400" y="384" on="1"/>
        <pt x="400" y="72" on="1"/>
        <pt x="472" y="58" on="1"/>
        <pt x="472" y="16" on="1"/>
        <pt x="468" y="14" on="0"/>
        <pt x="438" y="4" on="0"/>
        <pt x="393" y="-5" on="0"/>
        <pt x="369" y="-5" on="1"/>
        <pt x="340" y="-5" on="0"/>
        <pt x="315" y="20" on="0"/>
        <pt x="311" y="42" on="1"/>
        <pt x="305" y="42" on="1"/>
        <pt x="292" y="27" on="0"/>
        <pt x="219" y="-9" on="0"/>
        <pt x="176" y="-9" on="1"/>
      </contour>
      <contour>
        <pt x="251" y="61" on="0"/>
        <pt x="294" y="74" on="0"/>
        <pt x="304" y="79" on="1"/>
        <pt x="304" y="228" on="1"/>
        <pt x="213" y="221" on="0"/>
        <pt x="137" y="176" on="0"/>
        <pt x="137" y="133" on="1"/>
        <pt x="137" y="101" on="0"/>
        <pt x="182" y="61" on="0"/>
        <pt x="224" y="61" on="1"/>
      </contour>
    </TTGlyph>
    <TTGlyph name="acute" xMin="0" yMin="535" xMax="205" yMax="721">
      <contour>
        <pt x="105" y="688" on="1"/>
        <pt x="120" y="705" on="0"/>
        <pt x="140" y="721" on="0"/>
        <pt x="151" y="721" on="1"/>
        <pt x="167" y="721" on="0"/>
        <pt x="199" y="684" on="0"/>
        <pt x="205" y="652" on="1"/>
        <pt x="30" y="535" on="1"/>
        <pt x="0" y="569" on="1"/>
      </contour>
    </TTGlyph>
    <TTGlyph name="acutecomb" xMin="-205" yMin="535" xMax="0" yMax="721">
      <contour>
        <pt x="-100" y="688" on="1"/>
        <pt x="-85" y="705" on="0"/>
        <pt x="-65" y="721" on="0"/>
        <pt x="-54" y="721" on="1"/>
        <pt x="-38" y="721" on="0"/>
        <pt x="-6" y="684" on="0"/>
        <pt x="0" y="652" on="1"/>
        <pt x="-175" y="535" on="1"/>
        <pt x="-205" y="569" on="1"/>
      </contour>
    </TTGlyph>
    <TTGlyph name="acutecomb.case" xMin="-226" yMin="678" xMax="-1" yMax="838">
      <contour>
        <pt x="-226" y="718" on="1"/>
        <pt x="-91" y="816" on="1"/>
        <pt x="-88" y="818" on="0"/>
        <pt x="-68" y="831" on="0"/>
        <pt x="-52" y="838" on="0"/>
        <pt x="-46" y="838" on="1"/>
        <pt x="-25" y="838" on="0"/>
        <pt x="-1" y="795" on="0"/>
        <pt x="-2" y="759" on="1"/>
        <pt x="-203" y="678" on="1"/>
      </contour>
    </TTGlyph>
    <TTGlyph name="adieresis" xMin="33" yMin="-9" xMax="472" yMax="698">
      <contour>
        <pt x="91" y="571" on="0"/>
        <pt x="59" y="605" on="0"/>
        <pt x="59" y="632" on="1"/>
        <pt x="59" y="659" on="0"/>
        <pt x="95" y="698" on="0"/>
        <pt x="121" y="698" on="1"/>
        <pt x="146" y="698" on="0"/>
        <pt x="178" y="665" on="0"/>
        <pt x="178" y="638" on="1"/>
        <pt x="178" y="610" on="0"/>
        <pt x="144" y="571" on="0"/>
        <pt x="116" y="571" on="1"/>
      </contour>
      <contour>
        <pt x="306" y="571" on="0"/>
        <pt x="274" y="605" on="0"/>
        <pt x="274" y="632" on="1"/>
        <pt x="274" y="659" on="0"/>
        <pt x="310" y="698" on="0"/>
        <pt x="336" y="698" on="1"/>
        <pt x="362" y="698" on="0"/>
        <pt x="393" y="666" on="0"/>
        <pt x="393" y="638" on="1"/>
        <pt x="393" y="610" on="0"/>
        <pt x="359" y="571" on="0"/>
        <pt x="331" y="571" on="1"/>
      </contour>
      <contour>
        <pt x="104" y="-9" on="0"/>
        <pt x="33" y="63" on="0"/>
        <pt x="33" y="117" on="1"/>
        <pt x="33" y="180" on="0"/>
        <pt x="123" y="255" on="0"/>
        <pt x="208" y="267" on="1"/>
        <pt x="304" y="282" on="1"/>
        <pt x="304" y="354" on="1"/>
        <pt x="304" y="396" on="0"/>
        <pt x="260" y="436" on="0"/>
        <pt x="213" y="436" on="1"/>
        <pt x="191" y="436" on="0"/>
        <pt x="160" y="430" on="0"/>
        <pt x="156" y="429" on="1"/>
        <pt x="141" y="337" on="1"/>
        <pt x="139" y="336" on="0"/>
        <pt x="118" y="329" on="0"/>
        <pt x="103" y="329" on="1"/>
        <pt x="80" y="329" on="0"/>
        <pt x="50" y="355" on="0"/>
        <pt x="50" y="379" on="1"/>
        <pt x="50" y="418" on="0"/>
        <pt x="122" y="475" on="0"/>
        <pt x="221" y="505" on="0"/>
        <pt x="257" y="505" on="1"/>
        <pt x="327" y="505" on="0"/>
        <pt x="400" y="441" on="0"/>
        <pt x="400" y="384" on="1"/>
        <pt x="400" y="72" on="1"/>
        <pt x="472" y="58" on="1"/>
        <pt x="472" y="16" on="1"/>
        <pt x="468" y="14" on="0"/>
        <pt x="438" y="4" on="0"/>
        <pt x="393" y="-5" on="0"/>
        <pt x="369" y="-5" on="1"/>
        <pt x="340" y="-5" on="0"/>
        <pt x="315" y="20" on="0"/>
        <pt x="311" y="42" on="1"/>
        <pt x="305" y="42" on="1"/>
        <pt x="292" y="27" on="0"/>
        <pt x="219" y="-9" on="0"/>
        <pt x="176" y="-9" on="1"/>
      </contour>
      <contour>
        <pt x="251" y="61" on="0"/>
        <pt x="294" y="74" on="0"/>
        <pt x="304" y="79" on="1"/>
        <pt x="304" y="228" on="1"/>
        <pt x="213" y="221" on="0"/>
        <pt x="137" y="176" on="0"/>
        <pt x="137" y="133" on="1"/>
        <pt x="137" y="101" on="0"/>
        <pt x="182" y="61" on="0"/>
        <pt x="224" y="61" on="1"/>
      </contour>
    </TTGlyph>
    <TTGlyph name="ae" xMin="41" yMin="-10" xMax="710" yMax="505">
      <contour>
        <pt x="311" y="350" on="1"/>
        <pt x="311" y="392" on="0"/>
        <pt x="268" y="432" on="0"/>
        <pt x="221" y="432" on="1"/>
        <pt x="199" y="432" on="0"/>
        <pt x="169" y="426" on="0"/>
        <pt x="165" y="425" on="1"/>
        <pt x="145" y="337" on="1"/>
        <pt x="143" y="336" on="0"/>
        <pt x="122" y="329" on="0"/>
        <pt x="108" y="329" on="1"/>
        <pt x="84" y="329" on="0"/>
        <pt x="57" y="351" on="0"/>
        <pt x="57" y="378" on="1"/>
        <pt x="57" y="418" on="0"/>
        <pt x="130" y="476" on="0"/>
        <pt x="229" y="505" on="0"/>
        <pt x="265" y="505" on="1"/>
        <pt x="309" y="505" on="0"/>
        <pt x="374" y="474" on="0"/>
        <pt x="391" y="446" on="1"/>
        <pt x="417" y="475" on="0"/>
        <pt x="489" y="505" on="0"/>
        <pt x="531" y="505" on="1"/>
        <pt x="631" y="505" on="0"/>
        <pt x="710" y="384" on="0"/>
        <pt x="710" y="274" on="1"/>
        <pt x="710" y="250" on="0"/>
        <pt x="693" y="231" on="0"/>
        <pt x="675" y="230" on="1"/>
        <pt x="414" y="223" on="1"/>
        <pt x="414" y="150" on="0"/>
        <pt x="464" y="66" on="0"/>
        <pt x="540" y="66" on="1"/>
        <pt x="580" y="66" on="0"/>
        <pt x="643" y="74" on="0"/>
        <pt x="678" y="83" on="0"/>
        <pt x="682" y="84" on="1"/>
        <pt x="694" y="48" on="1"/>
        <pt x="694" y="46" on="0"/>
        <pt x="649" y="16" on="0"/>
        <pt x="576" y="-10" on="0"/>
        <pt x="529" y="-10" on="1"/>
        <pt x="417" y="-10" on="0"/>
        <pt x="364" y="55" on="1"/>
        <pt x="296" y="-9" on="0"/>
        <pt x="185" y="-9" on="1"/>
        <pt x="112" y="-9" on="0"/>
        <pt x="41" y="63" on="0"/>
        <pt x="41" y="117" on="1"/>
        <pt x="41" y="184" on="0"/>
        <pt x="138" y="262" on="0"/>
        <pt x="219" y="267" on="1"/>
        <pt x="311" y="273" on="1"/>
      </contour>
      <contour>
        <pt x="613" y="309" on="0"/>
        <pt x="613" y="329" on="1"/>
        <pt x="613" y="390" on="0"/>
        <pt x="574" y="434" on="0"/>
        <pt x="522" y="434" on="1"/>
        <pt x="465" y="434" on="0"/>
        <pt x="417" y="350" on="0"/>
        <pt x="416" y="279" on="1"/>
        <pt x="610" y="291" on="1"/>
      </contour>
      <contour>
        <pt x="219" y="215" on="0"/>
        <pt x="145" y="178" on="0"/>
        <pt x="145" y="136" on="1"/>
        <pt x="145" y="103" on="0"/>
        <pt x="187" y="61" on="0"/>
        <pt x="231" y="61" on="1"/>
        <pt x="257" y="61" on="0"/>
        <pt x="299" y="77" on="0"/>
        <pt x="311" y="84" on="1"/>
        <pt x="311" y="218" on="1"/>
      </contour>
    </TTGlyph>
    <TTGlyph name="aeacute" xMin="41" yMin="-10" xMax="710" yMax="721">
      <component glyphName=".ttfautohint" x="41" y="0" flags="0x0"/>
      <component glyphName="ae" x="0" y="0" flags="0x0"/>
      <component glyphName="acutecomb" x="527" y="0" flags="0x0"/>
    </TTGlyph>
    <TTGlyph name="agrave" xMin="33" yMin="-9" xMax="472" yMax="721">
      <contour>
        <pt x="126" y="652" on="1"/>
        <pt x="132" y="684" on="0"/>
        <pt x="164" y="721" on="0"/>
        <pt x="180" y="721" on="1"/>
        <pt x="191" y="721" on="0"/>
        <pt x="209" y="706" on="0"/>
        <pt x="225" y="688" on="1"/>
        <pt x="331" y="569" on="1"/>
        <pt x="300" y="535" on="1"/>
      </contour>
      <contour>
        <pt x="104" y="-9" on="0"/>
        <pt x="33" y="63" on="0"/>
        <pt x="33" y="117" on="1"/>
        <pt x="33" y="180" on="0"/>
        <pt x="123" y="255" on="0"/>
        <pt x="208" y="267" on="1"/>
        <pt x="304" y="282" on="1"/>
        <pt x="304" y="354" on="1"/>
        <pt x="304" y="396" on="0"/>
        <pt x="260" y="436" on="0"/>
        <pt x="213" y="436" on="1"/>
        <pt x="191" y="436" on="0"/>
        <pt x="160" y="430" on="0"/>
        <pt x="156" y="429" on="1"/>
        <pt x="141" y="337" on="1"/>
        <pt x="139" y="336" on="0"/>
        <pt x="118" y="329" on="0"/>
        <pt x="103" y="329" on="1"/>
        <pt x="80" y="329" on="0"/>
        <pt x="50" y="355" on="0"/>
        <pt x="50" y="379" on="1"/>
        <pt x="50" y="418" on="0"/>
        <pt x="122" y="475" on="0"/>
        <pt x="221" y="505" on="0"/>
        <pt x="257" y="505" on="1"/>
        <pt x="327" y="505" on="0"/>
        <pt x="400" y="441" on="0"/>
        <pt x="400" y="384" on="1"/>
        <pt x="400" y="72" on="1"/>
        <pt x="472" y="58" on="1"/>
        <pt x="472" y="16" on="1"/>
        <pt x="468" y="14" on="0"/>
        <pt x="438" y="4" on="0"/>
        <pt x="393" y="-5" on="0"/>
        <pt x="369" y="-5" on="1"/>
        <pt x="340" y="-5" on="0"/>
        <pt x="315" y="20" on="0"/>
        <pt x="311" y="42" on="1"/>
        <pt x="305" y="42" on="1"/>
        <pt x="292" y="27" on="0"/>
        <pt x="219" y="-9" on="0"/>
        <pt x="176" y="-9" on="1"/>
      </contour>
      <contour>
        <pt x="251" y="61" on="0"/>
        <pt x="294" y="74" on="0"/>
        <pt x="304" y="79" on="1"/>
        <pt x="304" y="228" on="1"/>
        <pt x="213" y="221" on="0"/>
        <pt x="137" y="176" on="0"/>
        <pt x="137" y="133" on="1"/>
        <pt x="137" y="101" on="0"/>
        <pt x="182" y="61" on="0"/>
        <pt x="224" y="61" on="1"/>
      </contour>
    </TTGlyph>
    <TTGlyph name="amacron" xMin="33" yMin="-9" xMax="472" yMax="665">
      <contour>
        <pt x="66" y="665" on="1"/>
        <pt x="402" y="665" on="1"/>
        <pt x="392" y="600" on="1"/>
        <pt x="55" y="600" on="1"/>
      </contour>
      <contour>
        <pt x="104" y="-9" on="0"/>
        <pt x="33" y="63" on="0"/>
        <pt x="33" y="117" on="1"/>
        <pt x="33" y="180" on="0"/>
        <pt x="123" y="255" on="0"/>
        <pt x="208" y="267" on="1"/>
        <pt x="304" y="282" on="1"/>
        <pt x="304" y="354" on="1"/>
        <pt x="304" y="396" on="0"/>
        <pt x="260" y="436" on="0"/>
        <pt x="213" y="436" on="1"/>
        <pt x="191" y="436" on="0"/>
        <pt x="160" y="430" on="0"/>
        <pt x="156" y="429" on="1"/>
        <pt x="141" y="337" on="1"/>
        <pt x="139" y="336" on="0"/>
        <pt x="118" y="329" on="0"/>
        <pt x="103" y="329" on="1"/>
        <pt x="80" y="329" on="0"/>
        <pt x="50" y="355" on="0"/>
        <pt x="50" y="379" on="1"/>
        <pt x="50" y="418" on="0"/>
        <pt x="122" y="475" on="0"/>
        <pt x="221" y="505" on="0"/>
        <pt x="257" y="505" on="1"/>
        <pt x="327" y="505" on="0"/>
        <pt x="400" y="441" on="0"/>
        <pt x="400" y="384" on="1"/>
        <pt x="400" y="72" on="1"/>
        <pt x="472" y="58" on="1"/>
        <pt x="472" y="16" on="1"/>
        <pt x="468" y="14" on="0"/>
        <pt x="438" y="4" on="0"/>
        <pt x="393" y="-5" on="0"/>
        <pt x="369" y="-5" on="1"/>
        <pt x="340" y="-5" on="0"/>
        <pt x="315" y="20" on="0"/>
        <pt x="311" y="42" on="1"/>
        <pt x="305" y="42" on="1"/>
        <pt x="292" y="27" on="0"/>
        <pt x="219" y="-9" on="0"/>
        <pt x="176" y="-9" on="1"/>
      </contour>
      <contour>
        <pt x="251" y="61" on="0"/>
        <pt x="294" y="74" on="0"/>
        <pt x="304" y="79" on="1"/>
        <pt x="304" y="228" on="1"/>
        <pt x="213" y="221" on="0"/>
        <pt x="137" y="176" on="0"/>
        <pt x="137" y="133" on="1"/>
        <pt x="137" y="101" on="0"/>
        <pt x="182" y="61" on="0"/>
        <pt x="224" y="61" on="1"/>
      </contour>
    </TTGlyph>
</ttFont>
